<svg width="195" height="189" viewBox="0 0 195 189" fill="none" xmlns="http://www.w3.org/2000/svg">
<rect y="56.7656" width="131.789" height="131.789" rx="10" fill="#F1D492"/>
<path d="M103.914 161.916H29.4111C28.1897 161.916 27.4569 161.188 27.4569 160.217V86.165C27.4569 84.951 28.1897 84.2227 29.4111 84.2227H103.914C104.891 84.2227 105.624 84.951 105.624 86.165V160.217C105.624 161.188 104.891 161.916 103.914 161.916ZM31.121 158.274H101.96V87.8645H31.121V158.274Z" fill="white"/>
<path d="M57.5022 115.785H39.1817C37.9604 115.785 37.2275 115.057 37.2275 114.085V95.8759C37.2275 94.662 37.9604 93.9336 39.1817 93.9336H57.5022C58.4792 93.9336 59.2121 94.662 59.2121 95.8759V114.085C59.2121 115.057 58.4792 115.785 57.5022 115.785ZM40.8916 112.143H55.548V97.5755H40.8916V112.143Z" fill="white"/>
<path d="M94.1427 97.5735H66.5399C65.5628 97.5735 64.5857 96.8451 64.5857 95.6312C64.5857 94.4172 65.5628 93.9316 66.5399 93.9316H94.1427C95.1198 93.9316 95.8526 94.66 95.8526 95.874C95.8526 97.0879 95.1198 97.5735 94.1427 97.5735Z" fill="white"/>
<path d="M94.1429 106.799H66.5401C65.563 106.799 64.5859 106.07 64.5859 104.856C64.5859 103.642 65.3188 102.914 66.5401 102.914H94.1429C95.12 102.914 96.0971 103.642 96.0971 104.856C96.0971 106.07 95.12 106.799 94.1429 106.799Z" fill="white"/>
<path d="M94.1427 115.783H66.5399C65.5628 115.783 64.5857 115.055 64.5857 113.841C64.5857 112.627 65.3185 111.898 66.5399 111.898H94.1427C95.1198 111.898 96.0968 112.627 96.0968 113.841C96.0968 115.055 95.1198 115.783 94.1427 115.783Z" fill="white"/>
<path d="M94.1428 125.012H39.1815C37.9601 125.012 37.2273 124.04 37.2273 123.069C37.2273 122.098 37.9601 121.127 39.1815 121.127H94.1428C95.1199 121.127 96.097 121.855 96.097 123.069C96.097 124.283 95.1199 125.012 94.1428 125.012Z" fill="white"/>
<path d="M94.1428 133.991H39.1815C38.2044 133.991 37.2273 133.263 37.2273 132.049C37.2273 130.835 37.9601 130.35 39.1815 130.35H94.1428C95.1199 130.35 96.097 131.078 96.097 132.292C96.097 133.506 95.1199 133.991 94.1428 133.991Z" fill="white"/>
<path d="M94.143 143.219H39.1817C38.2046 143.219 37.2275 142.49 37.2275 141.276C37.2275 140.062 37.9604 139.334 39.1817 139.334H94.143C95.1201 139.334 96.0972 140.062 96.0972 141.276C96.0972 142.49 95.1201 143.219 94.143 143.219Z" fill="white"/>
<path d="M94.1428 152.202H39.1815C37.9601 152.202 37.2273 151.474 37.2273 150.503C37.2273 149.532 37.9601 148.561 39.1815 148.561H94.1428C95.1199 148.561 96.097 149.289 96.097 150.503C96.097 151.717 95.1199 152.202 94.1428 152.202Z" fill="white"/>
<g filter="url(#filter0_d_389_1483)">
<rect x="108" y="32.7656" width="47" height="47" rx="10" fill="white"/>
</g>
<g clip-path="url(#clip0_389_1483)">
<path fill-rule="evenodd" clip-rule="evenodd" d="M143.779 47.1621C144.481 47.1621 145.049 47.7308 145.049 48.4324V54.7837C145.049 55.4853 144.481 56.054 143.779 56.054H137.428C136.726 56.054 136.158 55.4853 136.158 54.7837C136.158 54.0822 136.726 53.5135 137.428 53.5135H142.509V48.4324C142.509 47.7308 143.078 47.1621 143.779 47.1621Z" fill="#DD934C"/>
<path fill-rule="evenodd" clip-rule="evenodd" d="M119.221 59.0164C119.221 58.3148 119.789 57.7461 120.491 57.7461H126.842C127.544 57.7461 128.113 58.3148 128.113 59.0164C128.113 59.7179 127.544 60.2866 126.842 60.2866H121.761V65.3677C121.761 66.0693 121.193 66.638 120.491 66.638C119.789 66.638 119.221 66.0693 119.221 65.3677V59.0164Z" fill="#DD934C"/>
<path fill-rule="evenodd" clip-rule="evenodd" d="M134.423 48.9711C133.084 48.5836 131.667 48.5418 130.307 48.8496C128.947 49.1574 127.687 49.8048 126.644 50.7313C125.602 51.6579 124.811 52.8335 124.345 54.1483C124.111 54.8097 123.386 55.1561 122.724 54.9221C122.063 54.6881 121.716 53.9622 121.95 53.3008C122.559 51.5814 123.593 50.0441 124.956 48.8324C126.32 47.6208 127.968 46.7742 129.746 46.3717C131.525 45.9692 133.377 46.0239 135.129 46.5307C136.875 47.0355 138.465 47.9728 139.751 49.2553L144.649 53.8574C145.16 54.3378 145.185 55.1417 144.705 55.653C144.225 56.1643 143.421 56.1893 142.909 55.7089L137.998 51.0935C137.988 51.0845 137.978 51.0752 137.969 51.0658C136.983 50.0793 135.763 49.3587 134.423 48.9711ZM119.565 58.1475C120.046 57.6363 120.85 57.6113 121.361 58.0917L126.273 62.707C126.282 62.7161 126.292 62.7253 126.301 62.7347C127.287 63.7212 128.507 64.4418 129.847 64.8294C131.187 65.2169 132.603 65.2587 133.963 64.9509C135.324 64.6431 136.584 63.9958 137.626 63.0692C138.669 62.1426 139.459 60.967 139.925 59.6522C140.159 58.9908 140.885 58.6444 141.546 58.8784C142.207 59.1125 142.554 59.8383 142.32 60.4997C141.711 62.2191 140.677 63.7564 139.314 64.9681C137.951 66.1798 136.303 67.0263 134.524 67.4289C132.745 67.8314 130.893 67.7767 129.141 67.2699C127.395 66.765 125.806 65.8278 124.519 64.5452L119.621 59.9431C119.11 59.4627 119.085 58.6588 119.565 58.1475Z" fill="#DD934C"/>
</g>
<defs>
<filter id="filter0_d_389_1483" x="68" y="0.765625" width="127" height="127" filterUnits="userSpaceOnUse" color-interpolation-filters="sRGB">
<feFlood flood-opacity="0" result="BackgroundImageFix"/>
<feColorMatrix in="SourceAlpha" type="matrix" values="0 0 0 0 0 0 0 0 0 0 0 0 0 0 0 0 0 0 127 0" result="hardAlpha"/>
<feOffset dy="8"/>
<feGaussianBlur stdDeviation="20"/>
<feComposite in2="hardAlpha" operator="out"/>
<feColorMatrix type="matrix" values="0 0 0 0 0 0 0 0 0 0 0 0 0 0 0 0 0 0 0.24 0"/>
<feBlend mode="normal" in2="BackgroundImageFix" result="effect1_dropShadow_389_1483"/>
<feBlend mode="normal" in="SourceGraphic" in2="effect1_dropShadow_389_1483" result="shape"/>
</filter>
<clipPath id="clip0_389_1483">
<rect width="25.4054" height="25.4054" fill="white" transform="translate(119.432 44.1973)"/>
</clipPath>
</defs>
</svg>
