<svg width="152" height="38" viewBox="0 0 152 38" fill="none" xmlns="http://www.w3.org/2000/svg">
<path d="M8.44422 24.6552L11.6329 23.3517C12.0267 24.252 12.4911 25.1204 13.0217 25.9487L13.3284 26.4258L19.8092 26.4665L20.1122 25.995C20.6329 25.173 21.087 24.3101 21.47 23.4144L24.6745 24.7562C24.7062 24.7696 24.7406 24.775 24.7746 24.7718C24.8087 24.7687 24.8413 24.7571 24.8696 24.7381C24.8978 24.7192 24.9209 24.6934 24.9366 24.6632C24.9524 24.633 24.9603 24.5993 24.9597 24.5651L24.9428 21.7327C24.94 21.2706 24.8404 20.8129 24.6503 20.3894C24.4602 19.9658 24.1839 19.5858 23.8392 19.2738L22.8737 18.409C23.5321 13.8549 22.7538 7.80208 17.511 1.12262C17.382 0.952785 17.2158 0.81459 17.0254 0.718804C16.835 0.623017 16.6256 0.572227 16.4135 0.570393C16.2014 0.568559 15.9923 0.61573 15.8026 0.708228C15.6128 0.800727 15.4475 0.936055 15.3196 1.10366C10.1642 7.72482 9.45824 13.7726 10.1633 18.3271L9.214 19.1824C8.87242 19.4883 8.59951 19.8631 8.41282 20.2827C8.22612 20.7022 8.12978 21.1573 8.12997 21.6185L8.14692 24.4508C8.14419 24.4871 8.15112 24.5236 8.16699 24.5566C8.18287 24.5895 8.20712 24.6178 8.2373 24.6386C8.26749 24.6593 8.30252 24.6718 8.33886 24.6747C8.37519 24.6776 8.41154 24.6709 8.44422 24.6552ZM14.0027 12.1519C14.0006 11.6619 14.1438 11.184 14.4141 10.7786C14.6844 10.3732 15.0698 10.0584 15.5215 9.87398C15.9733 9.68956 16.4711 9.64381 16.9522 9.74248C17.4333 9.84116 17.8761 10.0798 18.2247 10.4284C18.5732 10.777 18.8119 11.2197 18.9106 11.7009C19.0093 12.182 18.9635 12.6798 18.7791 13.1316C18.5947 13.5833 18.2799 13.9687 17.8745 14.239C17.469 14.5093 16.9912 14.6525 16.5012 14.6504C16.1749 14.649 15.8513 14.5832 15.5489 14.4568C15.2466 14.3304 14.9715 14.1458 14.7394 13.9137C14.5072 13.6816 14.3227 13.4065 14.1963 13.1042C14.0699 12.8018 14.0041 12.4782 14.0027 12.1519Z" fill="black"/>
<path d="M13.6094 32.1689C13.9274 31.7094 14.3601 31.3416 14.8652 31.1012C14.5299 34.321 16.5404 35.6576 17.5058 36.1893C17.5536 36.2158 17.6075 36.2289 17.6618 36.2273C17.7161 36.2257 17.7687 36.2093 17.8141 36.18C17.8596 36.1507 17.896 36.1095 17.9196 36.0608C17.9432 36.0122 17.9531 35.9578 17.9482 35.9036C17.8526 34.5805 19.0867 32.8094 19.8118 31.908C20.3242 31.2815 20.5671 30.4755 20.4879 29.6642C20.2819 27.7813 18.4431 27.4567 17.8369 27.4005C17.8162 27.3983 17.7953 27.4007 17.7757 27.4076C17.7561 27.4145 17.7384 27.4256 17.7237 27.4403C17.7091 27.4549 17.6979 27.4727 17.6911 27.4922C17.6842 27.5118 17.6818 27.5327 17.684 27.5535C17.7387 28.0293 17.6812 28.51 17.5161 28.9569C17.351 29.4038 17.0828 29.8045 16.7332 30.1268C16.6922 30.1649 16.638 30.1859 16.5816 30.1856C16.5253 30.1852 16.4709 30.1636 16.4293 30.1249C16.0766 29.7948 15.8056 29.3872 15.6381 28.9352C15.4706 28.4831 15.4113 27.9992 15.4652 27.5227C15.4661 27.5029 15.4629 27.4832 15.4558 27.4647C15.4486 27.4462 15.4376 27.4294 15.4236 27.4153C15.4095 27.4013 15.3927 27.3903 15.3742 27.3831C15.3557 27.376 15.336 27.3728 15.3162 27.3737C11.8775 27.8966 12.5883 30.7954 13.0733 32.1053C13.0949 32.1633 13.1337 32.2134 13.1844 32.2489C13.2351 32.2844 13.2954 32.3035 13.3569 32.3038C13.4072 32.3046 13.4568 32.2927 13.5009 32.2691C13.5451 32.2455 13.5824 32.211 13.6094 32.1689Z" fill="#E0A409"/>
<path d="M14.26 34.5L13.76 35.5C14.4267 36.5 15.66 38.3 15.26 37.5C14.86 36.7 14.4267 35.1667 14.26 34.5Z" fill="black"/>
<path d="M19.9431 34L20.2599 34.6251C19.8374 35.2503 19.0559 36.3755 19.3094 35.8754C19.5629 35.3753 19.8374 34.4168 19.9431 34Z" fill="black"/>
<path d="M29.8439 28.0078V12.1678H33.9719V17.9518H39.7559V12.1678H43.8839V28.0078H39.7559V21.6718H33.9719V28.0078H29.8439ZM53.815 16.0078H58.183L52.543 28.6558C51.319 31.3678 49.783 32.6158 47.311 32.6158C46.567 32.6158 45.799 32.5198 45.007 32.3278V28.8718C45.775 28.8958 46.231 28.9198 46.399 28.9198C47.527 28.9198 48.247 28.6558 48.751 27.5038L48.943 27.0958L44.551 16.0078H48.943L51.247 22.7518L53.815 16.0078ZM71.5814 21.9838C71.5814 25.6318 69.1334 28.2958 65.8214 28.2958C64.5494 28.2958 63.5414 27.9358 62.7494 27.1918V32.3278H58.6214V16.0078H62.3894V17.2558C63.1334 16.2238 64.2854 15.7198 65.8214 15.7198C69.1814 15.7198 71.5814 18.3358 71.5814 21.9838ZM67.3574 22.0078C67.3574 20.3998 66.3254 19.4638 65.0054 19.4638C63.7334 19.4638 62.6774 20.3518 62.6774 21.9838C62.6774 23.6158 63.7334 24.5518 65.0054 24.5518C66.2774 24.5518 67.3574 23.6158 67.3574 22.0078ZM83.9883 23.4478H76.3083C76.7643 24.3598 77.6523 24.8158 78.9963 24.8158C80.0763 24.8158 81.1083 24.5038 82.1403 23.8798L83.6283 26.6878C82.2123 27.7678 80.6043 28.2958 78.8523 28.2958C74.9403 28.2958 72.1083 25.5598 72.1083 22.0078C72.1083 18.4798 74.9403 15.7198 78.5163 15.7198C81.9723 15.7198 84.2523 18.3118 84.2523 21.4078C84.2523 22.1278 84.1563 22.7998 83.9883 23.4478ZM76.1643 20.7598H80.3403C80.3163 19.6798 79.4283 18.9598 78.3483 18.9598C77.3163 18.9598 76.4763 19.6078 76.1643 20.7598ZM93.3569 16.0078V19.6558H92.3729C90.4769 19.6558 89.5169 20.5198 89.5169 22.5358V28.0078H85.3889V16.0078H89.1569V17.2798C89.9009 16.3438 90.9569 15.8158 92.1809 15.8158C92.6129 15.8158 92.9969 15.8878 93.3569 16.0078Z" fill="black"/>
<path d="M148.545 10.0078H151.088V28.0078H148.736V26.3278C147.824 27.6238 146.448 28.2718 144.608 28.2718C142.96 28.2718 141.585 27.6878 140.481 26.5198C139.393 25.3358 138.849 23.8718 138.849 22.1278C138.817 20.3998 139.361 18.9358 140.481 17.7358C141.601 16.5198 142.976 15.9278 144.608 15.9598C146.304 15.9598 147.617 16.5278 148.545 17.6638V10.0078ZM147.56 24.9598C148.248 24.2878 148.593 23.3438 148.593 22.1278C148.593 20.9118 148.241 19.9678 147.537 19.2958C146.849 18.6078 146.016 18.2638 145.04 18.2638C144.016 18.2638 143.152 18.6238 142.448 19.3438C141.76 20.0638 141.416 20.9838 141.416 22.1038C141.416 23.2238 141.76 24.1518 142.448 24.8878C143.136 25.6078 144 25.9678 145.04 25.9678C146.032 25.9678 146.872 25.6318 147.56 24.9598Z" fill="black"/>
<path d="M137.556 20.639V28.007H135.036V20.975C135.036 20.159 134.796 19.503 134.316 19.007C133.852 18.495 133.236 18.239 132.468 18.239C131.684 18.239 131.036 18.495 130.524 19.007C130.028 19.519 129.78 20.175 129.78 20.975V28.007H127.26V16.223H129.612V17.375C130.508 16.431 131.684 15.959 133.14 15.959C134.5 15.959 135.572 16.383 136.356 17.231C137.156 18.079 137.556 19.215 137.556 20.639Z" fill="black"/>
<path d="M125.125 20.88V28.008H122.773V26.688C121.893 27.744 120.637 28.272 119.005 28.272C117.773 28.272 116.781 27.96 116.029 27.336C115.277 26.712 114.901 25.888 114.901 24.864C114.901 23.84 115.293 23.024 116.077 22.416C116.861 21.808 117.917 21.504 119.245 21.504H122.581V20.736C122.581 19.92 122.357 19.296 121.909 18.864C121.477 18.432 120.861 18.216 120.061 18.216C118.861 18.216 117.773 18.8 116.797 19.968L115.333 18.48C116.485 16.8 118.141 15.96 120.301 15.96C121.773 15.96 122.941 16.392 123.805 17.256C124.685 18.12 125.125 19.328 125.125 20.88ZM122.581 23.544V23.328H119.557C118.165 23.328 117.469 23.808 117.469 24.768C117.469 25.248 117.653 25.632 118.021 25.92C118.405 26.192 118.909 26.328 119.533 26.328C120.397 26.328 121.117 26.064 121.693 25.536C122.285 25.008 122.581 24.344 122.581 23.544Z" fill="black"/>
<path d="M114.704 16.2235V18.4555H113.936C112.912 18.4555 112.08 18.7435 111.44 19.3195C110.8 19.8955 110.48 20.6955 110.48 21.7195V28.0075H107.96V16.2235H110.312V17.7595C111.192 16.6555 112.336 16.1035 113.744 16.1035C114.064 16.1035 114.384 16.1435 114.704 16.2235Z" fill="black"/>
<path d="M106.18 23.4C106.18 24.744 105.708 25.848 104.764 26.712C103.82 27.576 102.58 28.008 101.044 28.008H94.252V12.168H99.796C101.22 12.168 102.364 12.568 103.228 13.368C104.108 14.152 104.548 15.16 104.548 16.392C104.548 17.624 104.108 18.616 103.228 19.368C104.156 19.672 104.876 20.176 105.388 20.88C105.916 21.584 106.18 22.424 106.18 23.4ZM99.556 14.4H96.748V18.672H99.556C100.324 18.672 100.924 18.48 101.356 18.096C101.788 17.712 102.004 17.184 102.004 16.512C102.004 15.856 101.788 15.344 101.356 14.976C100.94 14.592 100.34 14.4 99.556 14.4ZM103.612 23.328C103.612 22.56 103.364 21.96 102.868 21.528C102.372 21.08 101.692 20.856 100.828 20.856H96.748V25.776H100.828C101.708 25.776 102.388 25.56 102.868 25.128C103.364 24.68 103.612 24.08 103.612 23.328Z" fill="black"/>
<path d="M50.6067 7.0542H45.4827C45.5761 7.6142 45.8234 8.05754 46.2247 8.3842C46.6354 8.70154 47.1347 8.8602 47.7227 8.8602C48.4507 8.8602 49.1181 8.58953 49.7247 8.0482L50.4247 9.0562C49.6501 9.79354 48.7354 10.1622 47.6807 10.1622C46.6354 10.1622 45.7581 9.82154 45.0487 9.1402C44.3394 8.44953 43.9847 7.59553 43.9847 6.5782C43.9661 5.58887 44.3114 4.73953 45.0207 4.0302C45.7301 3.31153 46.5701 2.96153 47.5407 2.9802C48.4461 2.9802 49.2021 3.28353 49.8087 3.8902C50.4154 4.48753 50.7187 5.2342 50.7187 6.1302C50.7187 6.40087 50.6814 6.70887 50.6067 7.0542ZM45.5107 5.9062H49.2487C49.2394 5.39287 49.0667 4.98687 48.7307 4.6882C48.3947 4.3802 47.9794 4.2262 47.4847 4.2262C46.9994 4.2262 46.5747 4.3802 46.2107 4.6882C45.8561 4.98687 45.6227 5.39287 45.5107 5.9062Z" fill="black"/>
<path d="M42.932 5.71032V10.0083H41.462V5.92032C41.462 5.44432 41.3267 5.06166 41.056 4.77232C40.7854 4.47365 40.4214 4.32432 39.964 4.32432C39.5067 4.32432 39.1287 4.47365 38.83 4.77232C38.5407 5.07099 38.396 5.45365 38.396 5.92032V10.0083H36.926V0.5H38.396V3.82032C38.872 3.26032 39.5347 2.98032 40.384 2.98032C41.1587 2.98032 41.7747 3.23232 42.232 3.73632C42.6987 4.23099 42.932 4.88899 42.932 5.71032Z" fill="black"/>
<path d="M31.5919 10.0086V2.09856H28.4839V0.768555H36.1979V2.09856H33.0759V10.0086H31.5919Z" fill="black"/>
</svg>
