<svg width="303" height="248" viewBox="0 0 303 248" fill="none" xmlns="http://www.w3.org/2000/svg">
<g filter="url(#filter0_d_389_1479)">
<rect x="124" y="146.766" width="139" height="53" rx="10" fill="white"/>
<rect width="24" height="24" transform="translate(140 161.266)" fill="white"/>
<path d="M153 163.266L143 175.266H152L151 183.266L161 171.266H152L153 163.266Z" fill="#3B8AE7" stroke="#3B8AE7" stroke-width="2" stroke-linecap="round" stroke-linejoin="round"/>
<path d="M175.99 168.798C176.895 168.798 177.675 168.984 178.328 169.358C178.981 169.731 179.485 170.277 179.84 170.996C180.195 171.705 180.372 172.592 180.372 173.656C180.372 174.785 180.157 175.742 179.728 176.526C179.308 177.31 178.725 177.907 177.978 178.318C177.231 178.728 176.363 178.934 175.374 178.934C174.861 178.934 174.366 178.878 173.89 178.766C173.414 178.654 173.003 178.486 172.658 178.262L173.498 176.596C173.769 176.782 174.058 176.913 174.366 176.988C174.674 177.053 174.996 177.086 175.332 177.086C176.172 177.086 176.839 176.829 177.334 176.316C177.838 175.802 178.09 175.042 178.09 174.034C178.09 173.866 178.085 173.679 178.076 173.474C178.067 173.268 178.043 173.063 178.006 172.858L178.622 173.446C178.463 173.81 178.239 174.118 177.95 174.37C177.661 174.612 177.325 174.799 176.942 174.93C176.559 175.051 176.13 175.112 175.654 175.112C175.029 175.112 174.459 174.986 173.946 174.734C173.442 174.482 173.036 174.127 172.728 173.67C172.429 173.212 172.28 172.676 172.28 172.06C172.28 171.388 172.443 170.809 172.77 170.324C173.106 169.838 173.554 169.465 174.114 169.204C174.683 168.933 175.309 168.798 175.99 168.798ZM176.13 170.492C175.803 170.492 175.519 170.552 175.276 170.674C175.033 170.786 174.842 170.954 174.702 171.178C174.562 171.392 174.492 171.649 174.492 171.948C174.492 172.396 174.641 172.755 174.94 173.026C175.248 173.287 175.654 173.418 176.158 173.418C176.485 173.418 176.774 173.357 177.026 173.236C177.287 173.105 177.488 172.928 177.628 172.704C177.768 172.48 177.838 172.228 177.838 171.948C177.838 171.668 177.768 171.42 177.628 171.206C177.497 170.982 177.306 170.809 177.054 170.688C176.802 170.557 176.494 170.492 176.13 170.492ZM184.904 168.798C185.809 168.798 186.589 168.984 187.242 169.358C187.895 169.731 188.399 170.277 188.754 170.996C189.109 171.705 189.286 172.592 189.286 173.656C189.286 174.785 189.071 175.742 188.642 176.526C188.222 177.31 187.639 177.907 186.892 178.318C186.145 178.728 185.277 178.934 184.288 178.934C183.775 178.934 183.28 178.878 182.804 178.766C182.328 178.654 181.917 178.486 181.572 178.262L182.412 176.596C182.683 176.782 182.972 176.913 183.28 176.988C183.588 177.053 183.91 177.086 184.246 177.086C185.086 177.086 185.753 176.829 186.248 176.316C186.752 175.802 187.004 175.042 187.004 174.034C187.004 173.866 186.999 173.679 186.99 173.474C186.981 173.268 186.957 173.063 186.92 172.858L187.536 173.446C187.377 173.81 187.153 174.118 186.864 174.37C186.575 174.612 186.239 174.799 185.856 174.93C185.473 175.051 185.044 175.112 184.568 175.112C183.943 175.112 183.373 174.986 182.86 174.734C182.356 174.482 181.95 174.127 181.642 173.67C181.343 173.212 181.194 172.676 181.194 172.06C181.194 171.388 181.357 170.809 181.684 170.324C182.02 169.838 182.468 169.465 183.028 169.204C183.597 168.933 184.223 168.798 184.904 168.798ZM185.044 170.492C184.717 170.492 184.433 170.552 184.19 170.674C183.947 170.786 183.756 170.954 183.616 171.178C183.476 171.392 183.406 171.649 183.406 171.948C183.406 172.396 183.555 172.755 183.854 173.026C184.162 173.287 184.568 173.418 185.072 173.418C185.399 173.418 185.688 173.357 185.94 173.236C186.201 173.105 186.402 172.928 186.542 172.704C186.682 172.48 186.752 172.228 186.752 171.948C186.752 171.668 186.682 171.42 186.542 171.206C186.411 170.982 186.22 170.809 185.968 170.688C185.716 170.557 185.408 170.492 185.044 170.492ZM199.645 178.934C198.889 178.934 198.184 178.812 197.531 178.57C196.887 178.318 196.327 177.963 195.851 177.506C195.375 177.048 195.002 176.512 194.731 175.896C194.47 175.28 194.339 174.603 194.339 173.866C194.339 173.128 194.47 172.452 194.731 171.836C195.002 171.22 195.375 170.683 195.851 170.226C196.336 169.768 196.901 169.418 197.545 169.176C198.189 168.924 198.894 168.798 199.659 168.798C200.508 168.798 201.274 168.947 201.955 169.246C202.646 169.535 203.224 169.964 203.691 170.534L202.235 171.878C201.899 171.495 201.526 171.21 201.115 171.024C200.704 170.828 200.256 170.73 199.771 170.73C199.314 170.73 198.894 170.804 198.511 170.954C198.128 171.103 197.797 171.318 197.517 171.598C197.237 171.878 197.018 172.209 196.859 172.592C196.71 172.974 196.635 173.399 196.635 173.866C196.635 174.332 196.71 174.757 196.859 175.14C197.018 175.522 197.237 175.854 197.517 176.134C197.797 176.414 198.128 176.628 198.511 176.778C198.894 176.927 199.314 177.002 199.771 177.002C200.256 177.002 200.704 176.908 201.115 176.722C201.526 176.526 201.899 176.232 202.235 175.84L203.691 177.184C203.224 177.753 202.646 178.187 201.955 178.486C201.274 178.784 200.504 178.934 199.645 178.934ZM205.069 178.766V171.234H207.155V173.362L206.861 172.746C207.085 172.214 207.444 171.812 207.939 171.542C208.433 171.262 209.035 171.122 209.745 171.122V173.138C209.651 173.128 209.567 173.124 209.493 173.124C209.418 173.114 209.339 173.11 209.255 173.11C208.657 173.11 208.172 173.282 207.799 173.628C207.435 173.964 207.253 174.491 207.253 175.21V178.766H205.069ZM214.726 178.878C213.868 178.878 213.112 178.71 212.458 178.374C211.814 178.038 211.315 177.58 210.96 177.002C210.606 176.414 210.428 175.746 210.428 175C210.428 174.244 210.601 173.576 210.946 172.998C211.301 172.41 211.782 171.952 212.388 171.626C212.995 171.29 213.681 171.122 214.446 171.122C215.184 171.122 215.846 171.28 216.434 171.598C217.032 171.906 217.503 172.354 217.848 172.942C218.194 173.52 218.366 174.216 218.366 175.028C218.366 175.112 218.362 175.21 218.352 175.322C218.343 175.424 218.334 175.522 218.324 175.616H212.206V174.342H217.176L216.336 174.72C216.336 174.328 216.257 173.987 216.098 173.698C215.94 173.408 215.72 173.184 215.44 173.026C215.16 172.858 214.834 172.774 214.46 172.774C214.087 172.774 213.756 172.858 213.466 173.026C213.186 173.184 212.967 173.413 212.808 173.712C212.65 174.001 212.57 174.346 212.57 174.748V175.084C212.57 175.494 212.659 175.858 212.836 176.176C213.023 176.484 213.28 176.722 213.606 176.89C213.942 177.048 214.334 177.128 214.782 177.128C215.184 177.128 215.534 177.067 215.832 176.946C216.14 176.824 216.42 176.642 216.672 176.4L217.834 177.66C217.489 178.052 217.055 178.355 216.532 178.57C216.01 178.775 215.408 178.878 214.726 178.878ZM223.055 178.878C222.345 178.878 221.706 178.719 221.137 178.402C220.567 178.075 220.115 177.622 219.779 177.044C219.452 176.465 219.289 175.784 219.289 175C219.289 174.206 219.452 173.52 219.779 172.942C220.115 172.363 220.567 171.915 221.137 171.598C221.706 171.28 222.345 171.122 223.055 171.122C223.689 171.122 224.245 171.262 224.721 171.542C225.197 171.822 225.565 172.246 225.827 172.816C226.088 173.385 226.219 174.113 226.219 175C226.219 175.877 226.093 176.605 225.841 177.184C225.589 177.753 225.225 178.178 224.749 178.458C224.282 178.738 223.717 178.878 223.055 178.878ZM223.433 177.086C223.787 177.086 224.109 177.002 224.399 176.834C224.688 176.666 224.917 176.428 225.085 176.12C225.262 175.802 225.351 175.429 225.351 175C225.351 174.561 225.262 174.188 225.085 173.88C224.917 173.572 224.688 173.334 224.399 173.166C224.109 172.998 223.787 172.914 223.433 172.914C223.069 172.914 222.742 172.998 222.453 173.166C222.163 173.334 221.93 173.572 221.753 173.88C221.585 174.188 221.501 174.561 221.501 175C221.501 175.429 221.585 175.802 221.753 176.12C221.93 176.428 222.163 176.666 222.453 176.834C222.742 177.002 223.069 177.086 223.433 177.086ZM225.407 178.766V177.226L225.449 174.986L225.309 172.76V168.378H227.493V178.766H225.407ZM229.514 178.766V171.234H231.698V178.766H229.514ZM230.606 170.184C230.205 170.184 229.878 170.067 229.626 169.834C229.374 169.6 229.248 169.311 229.248 168.966C229.248 168.62 229.374 168.331 229.626 168.098C229.878 167.864 230.205 167.748 230.606 167.748C231.007 167.748 231.334 167.86 231.586 168.084C231.838 168.298 231.964 168.578 231.964 168.924C231.964 169.288 231.838 169.591 231.586 169.834C231.343 170.067 231.017 170.184 230.606 170.184ZM236.805 178.878C235.918 178.878 235.227 178.654 234.733 178.206C234.238 177.748 233.991 177.072 233.991 176.176V169.568H236.175V176.148C236.175 176.465 236.259 176.712 236.427 176.89C236.595 177.058 236.823 177.142 237.113 177.142C237.458 177.142 237.752 177.048 237.995 176.862L238.583 178.402C238.359 178.56 238.088 178.682 237.771 178.766C237.463 178.84 237.141 178.878 236.805 178.878ZM232.829 173.082V171.402H238.051V173.082H232.829ZM242.343 178.878C241.699 178.878 241.078 178.803 240.481 178.654C239.893 178.495 239.426 178.299 239.081 178.066L239.809 176.498C240.154 176.712 240.56 176.89 241.027 177.03C241.503 177.16 241.969 177.226 242.427 177.226C242.931 177.226 243.285 177.165 243.491 177.044C243.705 176.922 243.813 176.754 243.813 176.54C243.813 176.362 243.729 176.232 243.561 176.148C243.402 176.054 243.187 175.984 242.917 175.938C242.646 175.891 242.347 175.844 242.021 175.798C241.703 175.751 241.381 175.69 241.055 175.616C240.728 175.532 240.429 175.41 240.159 175.252C239.888 175.093 239.669 174.878 239.501 174.608C239.342 174.337 239.263 173.987 239.263 173.558C239.263 173.082 239.398 172.662 239.669 172.298C239.949 171.934 240.35 171.649 240.873 171.444C241.395 171.229 242.021 171.122 242.749 171.122C243.262 171.122 243.785 171.178 244.317 171.29C244.849 171.402 245.292 171.565 245.647 171.78L244.919 173.334C244.555 173.119 244.186 172.974 243.813 172.9C243.449 172.816 243.094 172.774 242.749 172.774C242.263 172.774 241.909 172.839 241.685 172.97C241.461 173.1 241.349 173.268 241.349 173.474C241.349 173.66 241.428 173.8 241.587 173.894C241.755 173.987 241.974 174.062 242.245 174.118C242.515 174.174 242.809 174.225 243.127 174.272C243.453 174.309 243.78 174.37 244.107 174.454C244.433 174.538 244.727 174.659 244.989 174.818C245.259 174.967 245.479 175.177 245.647 175.448C245.815 175.709 245.899 176.054 245.899 176.484C245.899 176.95 245.759 177.366 245.479 177.73C245.199 178.084 244.793 178.364 244.261 178.57C243.738 178.775 243.099 178.878 242.343 178.878Z" fill="#3B8AE7"/>
</g>
<g filter="url(#filter1_d_389_1479)">
<rect x="40" y="120.766" width="74.9474" height="79.1111" rx="10" fill="white"/>
</g>
<g opacity="0.5">
<mask id="mask0_389_1479" style="mask-type:alpha" maskUnits="userSpaceOnUse" x="40" y="120" width="75" height="80">
<rect x="40" y="120.766" width="74.9474" height="79.1111" rx="10" fill="white"/>
</mask>
<g mask="url(#mask0_389_1479)">
<path opacity="0.2" d="M46.3442 219.656V210.418H53.3397V219.656H46.3442ZM46.3442 155.473V146.195H53.3397V155.473H46.3442ZM50.3922 212.937C46.5669 212.937 43.1216 212.244 40.0561 210.858C37.0169 209.445 34.5147 207.459 32.5497 204.9C30.5847 202.314 29.3009 199.274 28.6982 195.782L35.5759 194.622C36.4143 198.168 38.1828 200.981 40.8814 203.06C43.6063 205.14 46.8813 206.179 50.7066 206.179C54.5581 206.179 57.6759 205.233 60.0601 203.34C62.4444 201.447 63.6365 199.008 63.6365 196.022C63.6365 193.836 62.9946 192.076 61.7108 190.743C60.4532 189.41 58.3309 188.277 55.3441 187.344L42.4142 183.265C34.685 180.813 30.8205 176.121 30.8205 169.189C30.8205 165.937 31.5934 163.097 33.1392 160.671C34.7112 158.219 36.899 156.326 39.7024 154.993C42.5321 153.633 45.8202 152.967 49.5669 152.993C53.2087 153.02 56.4576 153.713 59.3134 155.073C62.1693 156.406 64.5273 158.325 66.3876 160.831C68.274 163.337 69.5447 166.337 70.1997 169.829L63.1256 171.149C62.7588 168.883 61.9466 166.896 60.689 165.19C59.4575 163.484 57.8855 162.164 55.9729 161.231C54.0603 160.272 51.9118 159.778 49.5276 159.752C47.3005 159.725 45.2962 160.098 43.5146 160.871C41.7592 161.645 40.3705 162.724 39.3487 164.111C38.3269 165.497 37.816 167.083 37.816 168.869C37.816 170.815 38.5234 172.468 39.9382 173.828C41.3792 175.161 43.6325 176.307 46.6979 177.267L57.3091 180.466C61.9728 181.879 65.3395 183.785 67.4094 186.185C69.4792 188.557 70.5141 191.73 70.5141 195.702C70.5141 199.141 69.6757 202.154 67.9989 204.74C66.3483 207.326 64.0033 209.338 60.9641 210.778C57.951 212.218 54.4271 212.937 50.3922 212.937Z" fill="#2C9F30"/>
<path opacity="0.2" fill-rule="evenodd" clip-rule="evenodd" d="M43.5187 222.48V214.998C41.912 214.62 40.3684 214.099 38.8918 213.432L38.8783 213.426L38.8649 213.419C35.4296 211.822 32.5616 209.554 30.3086 206.619L30.3043 206.614L30.3 206.608C28.0363 203.629 26.5864 200.159 25.9139 196.262L25.4316 193.467L37.7162 191.395L38.3253 193.971C39.025 196.931 40.4558 199.163 42.6005 200.817C44.7751 202.475 47.4275 203.353 50.7065 203.353C54.0922 203.353 56.5387 202.527 58.3033 201.126C60.0278 199.757 60.811 198.126 60.811 196.021C60.811 194.424 60.362 193.415 59.6757 192.703L59.6656 192.692L59.6556 192.682C58.8889 191.869 57.3124 190.918 54.5015 190.04L54.494 190.038L41.5595 185.958C37.3451 184.62 33.9145 182.588 31.5379 179.702C29.1311 176.78 27.995 173.212 27.995 169.188C27.995 165.47 28.8849 162.089 30.7563 159.152L30.7604 159.146C32.6352 156.221 35.2387 153.987 38.4839 152.443C40.0629 151.685 41.744 151.123 43.5187 150.747V143.369H56.165V150.964C57.6816 151.342 59.1341 151.858 60.5181 152.516C63.7875 154.044 66.5108 156.259 68.6505 159.139C70.8282 162.035 72.2527 165.448 72.9766 169.307L73.4979 172.087L60.7988 174.456L60.3364 171.599C60.0353 169.739 59.3839 168.181 58.4145 166.866L58.4061 166.854L58.3978 166.843C57.442 165.519 56.2332 164.501 54.734 163.77L54.7198 163.763L54.7056 163.756C53.2187 163.01 51.5004 162.599 49.4959 162.576L49.4937 162.576C47.61 162.554 46.0111 162.868 44.6464 163.459C43.2934 164.056 42.3187 164.842 41.623 165.786C40.9731 166.668 40.6413 167.662 40.6413 168.868C40.6413 170.03 41.0244 170.944 41.8766 171.771C42.877 172.688 44.6655 173.668 47.528 174.565L58.1282 177.761C63.0466 179.251 66.9835 181.368 69.5438 184.333C72.1667 187.343 73.3394 191.234 73.3394 195.701C73.3394 199.617 72.3785 203.174 70.3751 206.267C68.4125 209.338 65.6439 211.686 62.1774 213.329C60.3117 214.22 58.3036 214.857 56.165 215.255V222.48H43.5187ZM53.3396 212.8C54.3155 212.707 55.2573 212.565 56.165 212.375C57.8874 212.016 59.4871 211.483 60.964 210.777C64.0032 209.338 66.3482 207.325 67.9988 204.739C69.6756 202.153 70.514 199.14 70.514 195.701C70.514 191.729 69.4791 188.557 67.4093 186.184C65.3394 183.784 61.9727 181.878 57.309 180.465L46.6978 177.266C43.6324 176.306 41.3792 175.16 39.9381 173.827C38.5233 172.467 37.8159 170.815 37.8159 168.868C37.8159 167.082 38.3268 165.496 39.3486 164.11C40.3704 162.723 41.7591 161.644 43.5145 160.871C45.2961 160.097 47.3005 159.724 49.5275 159.751C51.9117 159.778 54.0602 160.271 55.9728 161.231C57.8854 162.164 59.4574 163.483 60.6889 165.189C61.8052 166.704 62.5705 168.439 62.985 170.395C63.0374 170.642 63.0843 170.893 63.1255 171.148L70.1996 169.828C70.0209 168.875 69.7964 167.959 69.526 167.08C68.8054 164.736 67.7592 162.653 66.3875 160.831C64.5272 158.325 62.1692 156.405 59.3133 155.072C58.3122 154.596 57.2628 154.201 56.165 153.888C55.2563 153.629 54.3145 153.426 53.3396 153.28V146.195H46.3441V153.153C45.366 153.262 44.4242 153.425 43.5187 153.644C42.1654 153.97 40.8932 154.42 39.7023 154.992C36.8989 156.325 34.7111 158.218 33.1391 160.671C31.5933 163.097 30.8204 165.936 30.8204 169.188C30.8204 176.12 34.6849 180.812 42.4141 183.265L55.344 187.344C58.3308 188.277 60.4531 189.41 61.7107 190.743C62.9945 192.076 63.6364 193.835 63.6364 196.021C63.6364 199.007 62.4443 201.446 60.0601 203.339C57.6758 205.232 54.558 206.178 50.7065 206.178C46.8812 206.178 43.6062 205.139 40.8813 203.059C38.1827 200.98 36.4142 198.167 35.5758 194.622L28.6982 195.781C28.8625 196.734 29.0776 197.653 29.3433 198.538C30.0518 200.898 31.1205 203.018 32.5496 204.899C34.5146 207.458 37.0168 209.444 40.056 210.857C41.1609 211.357 42.3152 211.766 43.5187 212.086C44.4321 212.329 45.3739 212.519 46.3441 212.658V219.655H53.3396V212.8Z" fill="#2C9F30"/>
<path opacity="0.15" d="M106.187 207.223V204.31H108.456V207.223H106.187ZM106.187 186.981V184.055H108.456V186.981H106.187ZM107.5 205.104C106.259 205.104 105.142 204.886 104.147 204.448C103.162 204.003 102.35 203.376 101.713 202.569C101.076 201.754 100.659 200.795 100.464 199.694L102.694 199.328C102.966 200.446 103.54 201.333 104.415 201.989C105.299 202.645 106.361 202.973 107.602 202.973C108.851 202.973 109.862 202.674 110.635 202.077C111.408 201.48 111.795 200.711 111.795 199.769C111.795 199.08 111.587 198.525 111.171 198.104C110.763 197.684 110.074 197.327 109.106 197.032L104.912 195.746C102.405 194.972 101.152 193.493 101.152 191.307C101.152 190.281 101.403 189.385 101.904 188.62C102.414 187.847 103.123 187.25 104.033 186.829C104.95 186.401 106.017 186.19 107.232 186.199C108.413 186.207 109.467 186.426 110.393 186.855C111.319 187.275 112.084 187.88 112.687 188.671C113.299 189.461 113.711 190.407 113.924 191.508L111.629 191.925C111.51 191.21 111.247 190.584 110.839 190.045C110.44 189.507 109.93 189.091 109.31 188.797C108.689 188.494 107.992 188.339 107.219 188.33C106.497 188.322 105.847 188.439 105.269 188.683C104.7 188.927 104.249 189.268 103.918 189.705C103.587 190.142 103.421 190.642 103.421 191.206C103.421 191.819 103.65 192.341 104.109 192.77C104.577 193.19 105.307 193.552 106.301 193.854L109.743 194.863C111.255 195.309 112.347 195.91 113.019 196.667C113.69 197.415 114.026 198.416 114.026 199.668C114.026 200.753 113.754 201.703 113.21 202.519C112.675 203.334 111.914 203.969 110.928 204.423C109.951 204.877 108.808 205.104 107.5 205.104Z" fill="#2C9F30"/>
<path opacity="0.15" fill-rule="evenodd" clip-rule="evenodd" d="M105.057 208.354V205.949C104.585 205.831 104.13 205.677 103.692 205.484L103.687 205.482L103.682 205.479C102.54 204.963 101.581 204.227 100.826 203.271L100.822 203.266C100.062 202.294 99.576 201.16 99.3509 199.892L99.1509 198.765L103.545 198.044L103.792 199.062C104.006 199.939 104.438 200.595 105.091 201.084C105.755 201.576 106.572 201.844 107.602 201.844C108.671 201.844 109.418 201.59 109.945 201.184C110.453 200.792 110.665 200.347 110.665 199.771C110.665 199.326 110.54 199.075 110.367 198.901L110.363 198.897L110.359 198.893C110.149 198.676 109.679 198.389 108.777 198.115L108.774 198.114L104.579 196.827C103.19 196.399 102.037 195.741 101.23 194.788C100.408 193.818 100.022 192.632 100.022 191.308C100.022 190.09 100.322 188.973 100.959 188.002L100.96 188C101.595 187.037 102.473 186.307 103.556 185.806C104.031 185.584 104.532 185.415 105.057 185.295V182.926H109.586V185.369C110.028 185.487 110.455 185.639 110.864 185.828C111.953 186.324 112.865 187.044 113.583 187.983C114.315 188.929 114.792 190.043 115.033 191.296L115.25 192.418L110.703 193.243L110.515 192.111C110.423 191.564 110.228 191.111 109.938 190.729L109.935 190.725L109.932 190.72C109.645 190.335 109.282 190.036 108.825 189.819L108.82 189.816L108.814 189.814C108.361 189.593 107.833 189.468 107.207 189.462L107.206 189.461C106.617 189.455 106.125 189.55 105.711 189.725C105.3 189.901 105.016 190.128 104.819 190.389C104.64 190.624 104.551 190.883 104.551 191.207C104.551 191.496 104.643 191.719 104.873 191.938C105.164 192.196 105.71 192.494 106.625 192.773L110.062 193.78C111.673 194.255 112.992 194.936 113.862 195.916C114.761 196.919 115.156 198.211 115.156 199.67C115.156 200.951 114.832 202.124 114.152 203.144C113.489 204.153 112.556 204.918 111.403 205.45C110.834 205.714 110.227 205.909 109.586 206.038V208.354H105.057ZM108.456 205.062C108.849 205.026 109.226 204.965 109.586 204.882C110.063 204.771 110.511 204.618 110.928 204.424C111.914 203.97 112.675 203.335 113.21 202.52C113.754 201.704 114.026 200.754 114.026 199.67C114.026 198.417 113.69 197.416 113.019 196.668C112.347 195.911 111.255 195.31 109.743 194.864L106.301 193.855C105.307 193.553 104.576 193.191 104.109 192.771C103.65 192.342 103.421 191.821 103.421 191.207C103.421 190.644 103.587 190.143 103.918 189.706C104.249 189.269 104.7 188.928 105.269 188.685C105.847 188.441 106.497 188.323 107.219 188.331C107.992 188.34 108.689 188.495 109.31 188.798C109.93 189.092 110.44 189.509 110.839 190.047C111.22 190.549 111.475 191.128 111.604 191.784C111.613 191.831 111.621 191.878 111.629 191.926L113.924 191.51C113.85 191.126 113.751 190.761 113.629 190.415C113.4 189.768 113.086 189.187 112.687 188.672C112.084 187.882 111.319 187.276 110.393 186.856C110.134 186.736 109.865 186.632 109.586 186.545C109.226 186.433 108.849 186.348 108.456 186.29V184.056H106.187V186.251C105.792 186.293 105.415 186.363 105.057 186.459C104.697 186.556 104.356 186.68 104.033 186.831C103.123 187.251 102.414 187.848 101.904 188.621C101.403 189.387 101.152 190.282 101.152 191.308C101.152 193.494 102.405 194.974 104.912 195.747L109.106 197.034C110.074 197.328 110.763 197.685 111.17 198.106C111.587 198.526 111.795 199.081 111.795 199.771C111.795 200.712 111.408 201.482 110.635 202.078C109.862 202.675 108.851 202.974 107.602 202.974C106.361 202.974 105.299 202.646 104.415 201.99C103.54 201.334 102.966 200.447 102.694 199.329L100.464 199.695C100.532 200.078 100.627 200.445 100.748 200.793C100.976 201.446 101.297 202.039 101.713 202.57C102.35 203.378 103.162 204.004 104.147 204.45C104.44 204.578 104.743 204.688 105.057 204.779C105.419 204.883 105.796 204.963 106.187 205.018V207.224H108.456V205.062Z" fill="#2C9F30"/>
</g>
</g>
<path d="M74.7447 181.226V181.726H75.2447H79.2825H79.7825V181.226V177.785C81.2855 177.601 82.6579 177.222 83.8955 176.64C85.7242 175.789 87.153 174.588 88.1619 173.035C89.1888 171.477 89.6953 169.67 89.6953 167.632C89.6953 165.288 89.0724 163.36 87.7782 161.9C86.496 160.439 84.4519 159.322 81.7163 158.507L81.7156 158.506L75.596 156.692C75.5952 156.692 75.5943 156.692 75.5935 156.692C73.8586 156.157 72.6403 155.535 71.8872 154.852C71.1709 154.174 70.8223 153.367 70.8223 152.405C70.8223 151.495 71.0843 150.701 71.6071 150.004C72.1383 149.295 72.8661 148.734 73.8089 148.325C74.7642 147.918 75.8504 147.716 77.0762 147.73L77.0766 147.73C78.3868 147.745 79.5518 148.011 80.581 148.518L80.581 148.518L80.586 148.521C81.6174 149.016 82.4601 149.712 83.1213 150.613L83.1212 150.613L83.1243 150.617C83.7983 151.516 84.2377 152.566 84.4374 153.779L84.5201 154.282L85.0209 154.19L89.104 153.441L89.5993 153.35L89.505 152.856C89.1143 150.808 88.3528 149.032 87.2115 147.54C86.0876 146.052 84.6615 144.912 82.9406 144.122C81.9602 143.663 80.9068 143.334 79.7825 143.133V139.537V139.037H79.2825H75.2447H74.7447V139.537V143.045C73.4611 143.225 72.2779 143.567 71.1985 144.077C69.503 144.87 68.166 146.004 67.2041 147.479L67.2034 147.48C66.2523 148.948 65.7846 150.656 65.7846 152.586C65.7846 154.654 66.3736 156.421 67.5743 157.854C68.7689 159.281 70.5361 160.337 72.8274 161.052L72.8282 161.052L80.2912 163.367L80.2925 163.367C81.9862 163.887 83.1148 164.499 83.7533 165.164L83.7533 165.164L83.7569 165.168C84.3908 165.815 84.7256 166.68 84.7256 167.814C84.7256 169.349 84.1128 170.59 82.8537 171.573C81.5871 172.561 79.9051 173.078 77.7626 173.078C75.6494 173.078 73.8681 172.515 72.3927 171.409C70.9334 170.303 69.974 168.809 69.5155 166.903L69.4067 166.45L68.9476 166.526L64.9779 167.184L64.48 167.267L64.5672 167.764C64.9278 169.819 65.6992 171.62 66.8871 173.158L66.8886 173.16C68.0745 174.678 69.5838 175.854 71.4074 176.688L71.4122 176.69C72.4539 177.153 73.5653 177.484 74.7447 177.684V181.226Z" fill="#2C9F30" stroke="white"/>
<g filter="url(#filter2_d_389_1479)">
<rect x="95" y="32.7656" width="99" height="104" rx="10" fill="white"/>
</g>
<g clip-path="url(#clip0_389_1479)">
<path d="M146.25 83.8342V83.6271V71.0306L146.233 70.7388C146.165 70.1967 145.903 69.6974 145.495 69.3342C145.083 68.968 144.551 68.7657 144 68.7656L146.25 83.8342ZM146.25 83.8342L146.396 83.9807M146.25 83.8342L146.396 83.9807M146.396 83.9807L153.84 91.4243L146.396 83.9807ZM154.495 92.9439C154.478 92.3728 154.244 91.8298 153.841 91.4249L154.495 92.9439ZM154.495 92.9439C154.513 93.5153 154.312 94.0719 153.934 94.5007M154.495 92.9439L153.934 94.5007M153.934 94.5007C153.556 94.9295 153.029 95.1983 152.46 95.2525M153.934 94.5007L152.46 95.2525M152.46 95.2525C151.896 95.3062 151.333 95.1452 150.882 94.802M152.46 95.2525L150.882 94.802M150.882 94.802L150.648 94.5954L142.409 86.3565C142.409 86.3564 142.409 86.3564 142.409 86.3563C142.063 86.0099 141.84 85.56 141.772 85.0752L141.75 84.7485V71.0156C141.75 70.4189 141.987 69.8466 142.409 69.4246C142.831 69.0027 143.403 68.7656 144 68.7656L150.882 94.802ZM144 57.7656C158.912 57.7656 171 69.8535 171 84.7656C171 99.6777 158.912 111.766 144 111.766C129.088 111.766 117 99.6777 117 84.7656C117 69.8535 129.088 57.7656 144 57.7656ZM144 62.2656C138.033 62.2656 132.31 64.6362 128.09 68.8557C123.871 73.0753 121.5 78.7983 121.5 84.7656C121.5 90.733 123.871 96.456 128.09 100.676C132.31 104.895 138.033 107.266 144 107.266C149.967 107.266 155.69 104.895 159.91 100.676C164.129 96.456 166.5 90.733 166.5 84.7656C166.5 78.7983 164.129 73.0753 159.91 68.8557C155.69 64.6362 149.967 62.2656 144 62.2656Z" fill="#DD944C" stroke="white"/>
</g>
<mask id="mask1_389_1479" style="mask-type:alpha" maskUnits="userSpaceOnUse" x="95" y="32" width="86" height="91">
<rect x="95" y="32.7656" width="85.2261" height="89.3884" rx="10" fill="white"/>
</mask>
<g mask="url(#mask1_389_1479)">
</g>
<g opacity="0.15" clip-path="url(#clip1_389_1479)">
<path d="M116.817 103.766H116.817C115.955 103.766 115.129 104.108 114.519 104.718C113.91 105.327 113.567 106.154 113.567 107.016V120.766V120.783L113.569 120.8L113.593 121.16L113.594 121.176L113.596 121.191C113.69 121.9 114.014 122.558 114.519 123.063L114.52 123.063L122.77 131.313L122.781 131.324L122.792 131.335L123.051 131.563L123.063 131.574L123.076 131.584C123.729 132.089 124.55 132.326 125.372 132.248C126.194 132.17 126.955 131.781 127.501 131.162C128.048 130.543 128.337 129.739 128.312 128.913C128.287 128.088 127.949 127.303 127.366 126.718L127.365 126.718L120.067 119.42V107.016V107.001L120.066 106.986L120.047 106.664L120.046 106.65L120.045 106.635C119.952 105.845 119.572 105.116 118.977 104.587C118.382 104.058 117.613 103.766 116.817 103.766ZM144.817 120.766C144.817 105.301 132.282 92.7656 116.817 92.7656C101.353 92.7656 88.8174 105.301 88.8174 120.766C88.8174 136.23 101.353 148.766 116.817 148.766C132.282 148.766 144.817 136.23 144.817 120.766ZM101.615 105.563C105.647 101.531 111.115 99.2656 116.817 99.2656C122.52 99.2656 127.988 101.531 132.02 105.563C136.052 109.595 138.317 115.063 138.317 120.766C138.317 126.468 136.052 131.936 132.02 135.968C127.988 140 122.52 142.266 116.817 142.266C111.115 142.266 105.647 140 101.615 135.968C97.5826 131.936 95.3174 126.468 95.3174 120.766C95.3174 115.063 97.5826 109.595 101.615 105.563Z" fill="#DD944C" stroke="#DD944C"/>
</g>
<rect x="172" y="16.7656" width="36" height="36" rx="18" fill="#F7EECC"/>
<path d="M190 26.7656V42.7656" stroke="#87765D" stroke-width="2" stroke-linecap="round" stroke-linejoin="round"/>
<path d="M198 34.7656L190 42.7656L182 34.7656" stroke="#87765D" stroke-width="2" stroke-linecap="round" stroke-linejoin="round"/>
<defs>
<filter id="filter0_d_389_1479" x="84" y="114.766" width="219" height="133" filterUnits="userSpaceOnUse" color-interpolation-filters="sRGB">
<feFlood flood-opacity="0" result="BackgroundImageFix"/>
<feColorMatrix in="SourceAlpha" type="matrix" values="0 0 0 0 0 0 0 0 0 0 0 0 0 0 0 0 0 0 127 0" result="hardAlpha"/>
<feOffset dy="8"/>
<feGaussianBlur stdDeviation="20"/>
<feColorMatrix type="matrix" values="0 0 0 0 0 0 0 0 0 0 0 0 0 0 0 0 0 0 0.24 0"/>
<feBlend mode="normal" in2="BackgroundImageFix" result="effect1_dropShadow_389_1479"/>
<feBlend mode="normal" in="SourceGraphic" in2="effect1_dropShadow_389_1479" result="shape"/>
</filter>
<filter id="filter1_d_389_1479" x="0" y="88.7656" width="154.947" height="159.111" filterUnits="userSpaceOnUse" color-interpolation-filters="sRGB">
<feFlood flood-opacity="0" result="BackgroundImageFix"/>
<feColorMatrix in="SourceAlpha" type="matrix" values="0 0 0 0 0 0 0 0 0 0 0 0 0 0 0 0 0 0 127 0" result="hardAlpha"/>
<feOffset dy="8"/>
<feGaussianBlur stdDeviation="20"/>
<feComposite in2="hardAlpha" operator="out"/>
<feColorMatrix type="matrix" values="0 0 0 0 0 0 0 0 0 0 0 0 0 0 0 0 0 0 0.24 0"/>
<feBlend mode="normal" in2="BackgroundImageFix" result="effect1_dropShadow_389_1479"/>
<feBlend mode="normal" in="SourceGraphic" in2="effect1_dropShadow_389_1479" result="shape"/>
</filter>
<filter id="filter2_d_389_1479" x="55" y="0.765625" width="179" height="184" filterUnits="userSpaceOnUse" color-interpolation-filters="sRGB">
<feFlood flood-opacity="0" result="BackgroundImageFix"/>
<feColorMatrix in="SourceAlpha" type="matrix" values="0 0 0 0 0 0 0 0 0 0 0 0 0 0 0 0 0 0 127 0" result="hardAlpha"/>
<feOffset dy="8"/>
<feGaussianBlur stdDeviation="20"/>
<feComposite in2="hardAlpha" operator="out"/>
<feColorMatrix type="matrix" values="0 0 0 0 0 0 0 0 0 0 0 0 0 0 0 0 0 0 0.24 0"/>
<feBlend mode="normal" in2="BackgroundImageFix" result="effect1_dropShadow_389_1479"/>
<feBlend mode="normal" in="SourceGraphic" in2="effect1_dropShadow_389_1479" result="shape"/>
</filter>
<clipPath id="clip0_389_1479">
<rect width="66" height="66" fill="white" transform="translate(111 51.7656)"/>
</clipPath>
<clipPath id="clip1_389_1479">
<rect width="57" height="57" fill="white" transform="translate(95 79.7656)"/>
</clipPath>
</defs>
</svg>
