<svg width="282" height="276" viewBox="0 0 282 276" fill="none" xmlns="http://www.w3.org/2000/svg">
<g filter="url(#filter0_d_431_2135)">
<path d="M66 79.8906C66 75.4033 69.6267 71.7656 74.1006 71.7656H202.899C207.373 71.7656 211 75.4033 211 79.8906V89.6406C211 94.1279 207.373 97.7656 202.899 97.7656H74.1006C69.6267 97.7656 66 94.1279 66 89.6406V79.8906Z" fill="white"/>
</g>
<path d="M162.065 88.8269V83.5087H162.854V84.3397H162.923C163.034 84.0558 163.213 83.8353 163.46 83.6784C163.707 83.5191 164.003 83.4395 164.35 83.4395C164.701 83.4395 164.993 83.5191 165.226 83.6784C165.461 83.8353 165.645 84.0558 165.776 84.3397H165.832C165.968 84.065 166.172 83.8469 166.444 83.6853C166.717 83.5214 167.043 83.4395 167.424 83.4395C167.9 83.4395 168.289 83.5883 168.591 83.8861C168.893 84.1816 169.045 84.642 169.045 85.2676V88.8269H168.228V85.2676C168.228 84.8752 168.12 84.5947 167.906 84.4262C167.691 84.2577 167.438 84.1735 167.147 84.1735C166.773 84.1735 166.484 84.2866 166.278 84.5128C166.073 84.7367 165.97 85.0206 165.97 85.3645V88.8269H165.139V85.1845C165.139 84.8821 165.041 84.6386 164.845 84.4539C164.649 84.267 164.396 84.1735 164.087 84.1735C163.874 84.1735 163.676 84.23 163.491 84.3431C163.309 84.4562 163.161 84.6132 163.048 84.814C162.937 85.0125 162.882 85.2422 162.882 85.503V88.8269H162.065Z" fill="#565656"/>
<path d="M158.408 88.9377C157.927 88.9377 157.506 88.8234 157.144 88.5949C156.784 88.3664 156.502 88.0467 156.299 87.6358C156.098 87.225 155.998 86.7449 155.998 86.1955C155.998 85.6415 156.098 85.1579 156.299 84.7448C156.502 84.3316 156.784 84.0107 157.144 83.7822C157.506 83.5537 157.927 83.4395 158.408 83.4395C158.888 83.4395 159.308 83.5537 159.668 83.7822C160.03 84.0107 160.312 84.3316 160.513 84.7448C160.716 85.1579 160.817 85.6415 160.817 86.1955C160.817 86.7449 160.716 87.225 160.513 87.6358C160.312 88.0467 160.03 88.3664 159.668 88.5949C159.308 88.8234 158.888 88.9377 158.408 88.9377ZM158.408 88.2037C158.772 88.2037 159.072 88.1102 159.308 87.9232C159.543 87.7362 159.718 87.4904 159.831 87.1857C159.944 86.881 160 86.551 160 86.1955C160 85.84 159.944 85.5088 159.831 85.2018C159.718 84.8948 159.543 84.6467 159.308 84.4574C159.072 84.2681 158.772 84.1735 158.408 84.1735C158.043 84.1735 157.743 84.2681 157.507 84.4574C157.272 84.6467 157.098 84.8948 156.985 85.2018C156.871 85.5088 156.815 85.84 156.815 86.1955C156.815 86.551 156.871 86.881 156.985 87.1857C157.098 87.4904 157.272 87.7362 157.507 87.9232C157.743 88.1102 158.043 88.2037 158.408 88.2037Z" fill="#565656"/>
<path d="M152.961 88.9377C152.463 88.9377 152.033 88.82 151.673 88.5845C151.313 88.3491 151.036 88.0248 150.842 87.6116C150.648 87.1984 150.552 86.7264 150.552 86.1955C150.552 85.6554 150.651 85.1787 150.849 84.7655C151.05 84.3501 151.329 84.0257 151.687 83.7926C152.047 83.5572 152.467 83.4395 152.947 83.4395C153.321 83.4395 153.658 83.5087 153.958 83.6472C154.259 83.7857 154.504 83.9796 154.696 84.2289C154.888 84.4782 155.006 84.769 155.053 85.1014H154.235C154.173 84.859 154.035 84.6444 153.82 84.4574C153.608 84.2681 153.321 84.1735 152.961 84.1735C152.643 84.1735 152.363 84.2566 152.123 84.4228C151.886 84.5866 151.7 84.8186 151.566 85.1187C151.434 85.4165 151.369 85.7662 151.369 86.1678C151.369 86.5787 151.433 86.9364 151.563 87.2411C151.694 87.5458 151.879 87.7824 152.116 87.9509C152.357 88.1194 152.638 88.2037 152.961 88.2037C153.174 88.2037 153.366 88.1667 153.54 88.0929C153.713 88.019 153.859 87.9128 153.979 87.7743C154.099 87.6358 154.185 87.4696 154.235 87.2757H155.053C155.006 87.5897 154.892 87.8724 154.71 88.124C154.53 88.3733 154.291 88.5718 153.993 88.7195C153.698 88.865 153.354 88.9377 152.961 88.9377Z" fill="#565656"/>
<path d="M148.711 88.8832C148.541 88.8832 148.394 88.822 148.272 88.6997C148.149 88.5773 148.088 88.4308 148.088 88.2599C148.088 88.0891 148.149 87.9426 148.272 87.8202C148.394 87.6979 148.541 87.6367 148.711 87.6367C148.882 87.6367 149.029 87.6979 149.151 87.8202C149.274 87.9426 149.335 88.0891 149.335 88.2599C149.335 88.373 149.306 88.4769 149.248 88.5716C149.193 88.6662 149.118 88.7424 149.023 88.8001C148.931 88.8555 148.827 88.8832 148.711 88.8832Z" fill="#565656"/>
<path d="M146.887 83.5105V84.2029H144.13V83.5105H146.887ZM144.934 82.2363H145.751V87.3052C145.751 87.536 145.784 87.7092 145.851 87.8246C145.921 87.9377 146.008 88.0138 146.114 88.0531C146.223 88.09 146.337 88.1085 146.457 88.1085C146.547 88.1085 146.621 88.1039 146.679 88.0946C146.736 88.0831 146.783 88.0739 146.817 88.0669L146.983 88.801C146.928 88.8217 146.851 88.8425 146.751 88.8633C146.652 88.8864 146.526 88.8979 146.374 88.8979C146.143 88.8979 145.917 88.8483 145.695 88.749C145.476 88.6498 145.294 88.4986 145.148 88.2955C145.005 88.0923 144.934 87.8361 144.934 87.5268V82.2363Z" fill="#565656"/>
<path d="M143.429 83.5094V84.2019H140.562V83.5094H143.429ZM141.421 88.8276V82.7754C141.421 82.4707 141.492 82.2168 141.635 82.0137C141.778 81.8105 141.964 81.6582 142.193 81.5566C142.421 81.4551 142.662 81.4043 142.916 81.4043C143.117 81.4043 143.281 81.4205 143.408 81.4528C143.535 81.4851 143.63 81.5151 143.692 81.5428L143.456 82.2491C143.415 82.2353 143.357 82.218 143.283 82.1972C143.212 82.1764 143.117 82.166 142.999 82.166C142.729 82.166 142.534 82.2341 142.414 82.3703C142.297 82.5065 142.238 82.7061 142.238 82.9693V88.8276H141.421Z" fill="#565656"/>
<path d="M137.403 88.9377C136.923 88.9377 136.502 88.8234 136.139 88.5949C135.779 88.3664 135.498 88.0467 135.295 87.6358C135.094 87.225 134.993 86.7449 134.993 86.1955C134.993 85.6415 135.094 85.1579 135.295 84.7448C135.498 84.3316 135.779 84.0107 136.139 83.7822C136.502 83.5537 136.923 83.4395 137.403 83.4395C137.883 83.4395 138.303 83.5537 138.664 83.7822C139.026 84.0107 139.308 84.3316 139.508 84.7448C139.711 85.1579 139.813 85.6415 139.813 86.1955C139.813 86.7449 139.711 87.225 139.508 87.6358C139.308 88.0467 139.026 88.3664 138.664 88.5949C138.303 88.8234 137.883 88.9377 137.403 88.9377ZM137.403 88.2037C137.768 88.2037 138.068 88.1102 138.303 87.9232C138.539 87.7362 138.713 87.4904 138.826 87.1857C138.939 86.881 138.996 86.551 138.996 86.1955C138.996 85.84 138.939 85.5088 138.826 85.2018C138.713 84.8948 138.539 84.6467 138.303 84.4574C138.068 84.2681 137.768 84.1735 137.403 84.1735C137.039 84.1735 136.738 84.2681 136.503 84.4574C136.268 84.6467 136.093 84.8948 135.98 85.2018C135.867 85.5088 135.811 85.84 135.811 86.1955C135.811 86.551 135.867 86.881 135.98 87.1857C136.093 87.4904 136.268 87.7362 136.503 87.9232C136.738 88.1102 137.039 88.2037 137.403 88.2037Z" fill="#565656"/>
<path d="M133.916 84.6998L133.182 84.9075C133.136 84.7852 133.068 84.6663 132.978 84.5509C132.89 84.4331 132.77 84.3362 132.617 84.26C132.465 84.1839 132.27 84.1458 132.032 84.1458C131.707 84.1458 131.436 84.2208 131.219 84.3708C131.004 84.5186 130.897 84.7067 130.897 84.9352C130.897 85.1383 130.971 85.2987 131.118 85.4165C131.266 85.5342 131.497 85.6323 131.811 85.7108L132.6 85.9047C133.076 86.0201 133.43 86.1966 133.663 86.4344C133.896 86.6698 134.013 86.9734 134.013 87.345C134.013 87.6497 133.925 87.9221 133.75 88.1621C133.577 88.4022 133.334 88.5914 133.023 88.7299C132.711 88.8684 132.349 88.9377 131.935 88.9377C131.393 88.9377 130.944 88.82 130.588 88.5845C130.233 88.3491 130.008 88.0051 129.913 87.5527L130.689 87.3588C130.763 87.6451 130.902 87.8597 131.108 88.0028C131.316 88.146 131.587 88.2175 131.921 88.2175C132.302 88.2175 132.605 88.1367 132.829 87.9751C133.055 87.8113 133.168 87.6151 133.168 87.3865C133.168 87.2019 133.103 87.0472 132.974 86.9226C132.845 86.7956 132.646 86.701 132.379 86.6387L131.492 86.4309C131.005 86.3155 130.647 86.1366 130.419 85.8943C130.193 85.6496 130.08 85.3438 130.08 84.9767C130.08 84.6767 130.164 84.4112 130.332 84.1804C130.503 83.9496 130.735 83.7684 131.028 83.6368C131.324 83.5052 131.658 83.4395 132.032 83.4395C132.559 83.4395 132.972 83.5549 133.272 83.7857C133.574 84.0165 133.789 84.3212 133.916 84.6998Z" fill="#565656"/>
<path d="M126.492 88.9377C126.011 88.9377 125.59 88.8234 125.228 88.5949C124.868 88.3664 124.586 88.0467 124.383 87.6358C124.182 87.225 124.082 86.7449 124.082 86.1955C124.082 85.6415 124.182 85.1579 124.383 84.7448C124.586 84.3316 124.868 84.0107 125.228 83.7822C125.59 83.5537 126.011 83.4395 126.492 83.4395C126.972 83.4395 127.392 83.5537 127.752 83.7822C128.114 84.0107 128.396 84.3316 128.597 84.7448C128.8 85.1579 128.901 85.6415 128.901 86.1955C128.901 86.7449 128.8 87.225 128.597 87.6358C128.396 88.0467 128.114 88.3664 127.752 88.5949C127.392 88.8234 126.972 88.9377 126.492 88.9377ZM126.492 88.2037C126.856 88.2037 127.156 88.1102 127.392 87.9232C127.627 87.7362 127.802 87.4904 127.915 87.1857C128.028 86.881 128.084 86.551 128.084 86.1955C128.084 85.84 128.028 85.5088 127.915 85.2018C127.802 84.8948 127.627 84.6467 127.392 84.4574C127.156 84.2681 126.856 84.1735 126.492 84.1735C126.127 84.1735 125.827 84.2681 125.591 84.4574C125.356 84.6467 125.182 84.8948 125.069 85.2018C124.955 85.5088 124.899 85.84 124.899 86.1955C124.899 86.551 124.955 86.881 125.069 87.1857C125.182 87.4904 125.356 87.7362 125.591 87.9232C125.827 88.1102 126.127 88.2037 126.492 88.2037Z" fill="#565656"/>
<path d="M120.865 88.8271V83.5089H121.655V84.3121H121.71C121.807 84.049 121.982 83.8355 122.236 83.6716C122.49 83.5077 122.776 83.4258 123.095 83.4258C123.155 83.4258 123.23 83.4269 123.32 83.4292C123.41 83.4316 123.478 83.435 123.524 83.4396V84.2706C123.497 84.2637 123.433 84.2533 123.334 84.2394C123.237 84.2233 123.134 84.2152 123.026 84.2152C122.767 84.2152 122.536 84.2694 122.333 84.3779C122.132 84.4841 121.973 84.6318 121.855 84.8211C121.74 85.0081 121.682 85.2216 121.682 85.4616V88.8271H120.865Z" fill="#565656"/>
<path d="M117.579 88.9377C117.081 88.9377 116.652 88.82 116.291 88.5845C115.931 88.3491 115.654 88.0248 115.461 87.6116C115.267 87.1984 115.17 86.7264 115.17 86.1955C115.17 85.6554 115.269 85.1787 115.467 84.7655C115.668 84.3501 115.948 84.0257 116.305 83.7926C116.665 83.5572 117.086 83.4395 117.566 83.4395C117.94 83.4395 118.277 83.5087 118.577 83.6472C118.877 83.7857 119.123 83.9796 119.314 84.2289C119.506 84.4782 119.625 84.769 119.671 85.1014H118.854C118.791 84.859 118.653 84.6444 118.438 84.4574C118.226 84.2681 117.94 84.1735 117.579 84.1735C117.261 84.1735 116.982 84.2566 116.742 84.4228C116.504 84.5866 116.318 84.8186 116.184 85.1187C116.053 85.4165 115.987 85.7662 115.987 86.1678C115.987 86.5787 116.051 86.9364 116.181 87.2411C116.312 87.5458 116.497 87.7824 116.735 87.9509C116.975 88.1194 117.256 88.2037 117.579 88.2037C117.792 88.2037 117.985 88.1667 118.158 88.0929C118.331 88.019 118.477 87.9128 118.597 87.7743C118.717 87.6358 118.803 87.4696 118.854 87.2757H119.671C119.625 87.5897 119.51 87.8724 119.328 88.124C119.148 88.3733 118.909 88.5718 118.611 88.7195C118.316 88.865 117.972 88.9377 117.579 88.9377Z" fill="#565656"/>
<path d="M113.106 88.8281V83.5099H113.923V88.8281H113.106ZM113.521 82.6236C113.362 82.6236 113.224 82.5693 113.109 82.4608C112.996 82.3524 112.939 82.2219 112.939 82.0696C112.939 81.9173 112.996 81.7868 113.109 81.6784C113.224 81.5699 113.362 81.5156 113.521 81.5156C113.68 81.5156 113.816 81.5699 113.93 81.6784C114.045 81.7868 114.103 81.9173 114.103 82.0696C114.103 82.2219 114.045 82.3524 113.93 82.4608C113.816 82.5693 113.68 82.6236 113.521 82.6236Z" fill="#565656"/>
<path d="M104.631 88.8269V83.5087H105.42V84.3397H105.49C105.6 84.0558 105.779 83.8353 106.026 83.6784C106.273 83.5191 106.57 83.4395 106.916 83.4395C107.267 83.4395 107.559 83.5191 107.792 83.6784C108.028 83.8353 108.211 84.0558 108.343 84.3397H108.398C108.534 84.065 108.738 83.8469 109.011 83.6853C109.283 83.5214 109.61 83.4395 109.991 83.4395C110.466 83.4395 110.855 83.5883 111.158 83.8861C111.46 84.1816 111.611 84.642 111.611 85.2676V88.8269H110.794V85.2676C110.794 84.8752 110.687 84.5947 110.472 84.4262C110.257 84.2577 110.005 84.1735 109.714 84.1735C109.34 84.1735 109.05 84.2866 108.845 84.5128C108.639 84.7367 108.537 85.0206 108.537 85.3645V88.8269H107.706V85.1845C107.706 84.8821 107.607 84.6386 107.411 84.4539C107.215 84.267 106.962 84.1735 106.653 84.1735C106.441 84.1735 106.242 84.23 106.057 84.3431C105.875 84.4562 105.727 84.6132 105.614 84.814C105.503 85.0125 105.448 85.2422 105.448 85.503V88.8269H104.631Z" fill="#565656"/>
<path d="M102.542 88.8832C102.371 88.8832 102.224 88.822 102.102 88.6997C101.98 88.5773 101.919 88.4308 101.919 88.2599C101.919 88.0891 101.98 87.9426 102.102 87.8202C102.224 87.6979 102.371 87.6367 102.542 87.6367C102.713 87.6367 102.859 87.6979 102.982 87.8202C103.104 87.9426 103.165 88.0891 103.165 88.2599C103.165 88.373 103.136 88.4769 103.078 88.5716C103.023 88.6662 102.948 88.7424 102.853 88.8001C102.761 88.8555 102.657 88.8832 102.542 88.8832Z" fill="#565656"/>
<path d="M100.449 81.7363V88.8272H99.6322V81.7363H100.449Z" fill="#565656"/>
<path d="M95.7034 88.9515C95.3664 88.9515 95.0606 88.8881 94.7859 88.7611C94.5112 88.6318 94.2931 88.446 94.1315 88.2037C93.9699 87.959 93.8892 87.6635 93.8892 87.3173C93.8892 87.0126 93.9492 86.7656 94.0692 86.5763C94.1892 86.3848 94.3497 86.2347 94.5505 86.1262C94.7513 86.0178 94.9729 85.937 95.2152 85.8839C95.4599 85.8285 95.7057 85.7846 95.9527 85.7523C96.2759 85.7108 96.5379 85.6796 96.7387 85.6588C96.9418 85.6357 97.0895 85.5977 97.1819 85.5446C97.2765 85.4915 97.3238 85.3991 97.3238 85.2676V85.2399C97.3238 84.8983 97.2303 84.6328 97.0434 84.4435C96.8587 84.2543 96.5783 84.1596 96.202 84.1596C95.8119 84.1596 95.5061 84.245 95.2845 84.4158C95.0629 84.5866 94.9071 84.769 94.8171 84.9629L94.0415 84.6859C94.18 84.3627 94.3647 84.1112 94.5955 83.9311C94.8286 83.7488 95.0825 83.6218 95.3572 83.5502C95.6342 83.4764 95.9066 83.4395 96.1743 83.4395C96.3451 83.4395 96.5413 83.4602 96.7629 83.5018C96.9868 83.541 97.2026 83.623 97.4104 83.7476C97.6204 83.8722 97.7947 84.0604 97.9332 84.312C98.0717 84.5636 98.1409 84.9006 98.1409 85.323V88.8269H97.3238V88.1067H97.2823C97.2269 88.2221 97.1345 88.3456 97.0053 88.4772C96.876 88.6088 96.7041 88.7207 96.4894 88.813C96.2747 88.9054 96.0127 88.9515 95.7034 88.9515ZM95.8281 88.2175C96.1512 88.2175 96.4236 88.154 96.6452 88.0271C96.8691 87.9001 97.0376 87.7362 97.1507 87.5354C97.2661 87.3346 97.3238 87.1234 97.3238 86.9018V86.1539C97.2892 86.1955 97.213 86.2336 97.0953 86.2682C96.9799 86.3005 96.846 86.3294 96.6937 86.3548C96.5436 86.3778 96.3971 86.3986 96.254 86.4171C96.1131 86.4332 95.9989 86.4471 95.9112 86.4586C95.6988 86.4863 95.5003 86.5313 95.3157 86.5937C95.1333 86.6537 94.9856 86.7449 94.8725 86.8672C94.7617 86.9872 94.7063 87.1511 94.7063 87.3588C94.7063 87.6428 94.8113 87.8574 95.0214 88.0028C95.2337 88.146 95.5026 88.2175 95.8281 88.2175Z" fill="#565656"/>
<path d="M91.825 88.8281V83.5099H92.6421V88.8281H91.825ZM92.2405 82.6236C92.0812 82.6236 91.9439 82.5693 91.8285 82.4608C91.7154 82.3524 91.6588 82.2219 91.6588 82.0696C91.6588 81.9173 91.7154 81.7868 91.8285 81.6784C91.9439 81.5699 92.0812 81.5156 92.2405 81.5156C92.3998 81.5156 92.5359 81.5699 92.649 81.6784C92.7645 81.7868 92.8222 81.9173 92.8222 82.0696C92.8222 82.2219 92.7645 82.3524 92.649 82.4608C92.5359 82.5693 92.3998 82.6236 92.2405 82.6236Z" fill="#565656"/>
<path d="M88.539 88.9377C88.0404 88.9377 87.611 88.82 87.251 88.5845C86.8909 88.3491 86.6139 88.0248 86.42 87.6116C86.2261 87.1984 86.1292 86.7264 86.1292 86.1955C86.1292 85.6554 86.2284 85.1787 86.4269 84.7655C86.6277 84.3501 86.907 84.0257 87.2648 83.7926C87.6249 83.5572 88.045 83.4395 88.5251 83.4395C88.899 83.4395 89.236 83.5087 89.5361 83.6472C89.8362 83.7857 90.082 83.9796 90.2736 84.2289C90.4652 84.4782 90.5841 84.769 90.6302 85.1014H89.8131C89.7508 84.859 89.6123 84.6444 89.3976 84.4574C89.1853 84.2681 88.899 84.1735 88.539 84.1735C88.2204 84.1735 87.9411 84.2566 87.7011 84.4228C87.4633 84.5866 87.2775 84.8186 87.1436 85.1187C87.0121 85.4165 86.9463 85.7662 86.9463 86.1678C86.9463 86.5787 87.0109 86.9364 87.1402 87.2411C87.2717 87.5458 87.4564 87.7824 87.6941 87.9509C87.9342 88.1194 88.2158 88.2037 88.539 88.2037C88.7513 88.2037 88.944 88.1667 89.1172 88.0929C89.2903 88.019 89.4369 87.9128 89.5569 87.7743C89.6769 87.6358 89.7623 87.4696 89.8131 87.2757H90.6302C90.5841 87.5897 90.4698 87.8724 90.2874 88.124C90.1074 88.3733 89.8685 88.5718 89.5707 88.7195C89.2753 88.865 88.9314 88.9377 88.539 88.9377Z" fill="#565656"/>
<path d="M82.7213 88.9377C82.2412 88.9377 81.82 88.8234 81.4576 88.5949C81.0975 88.3664 80.8159 88.0467 80.6127 87.6358C80.4119 87.225 80.3115 86.7449 80.3115 86.1955C80.3115 85.6415 80.4119 85.1579 80.6127 84.7448C80.8159 84.3316 81.0975 84.0107 81.4576 83.7822C81.82 83.5537 82.2412 83.4395 82.7213 83.4395C83.2014 83.4395 83.6215 83.5537 83.9816 83.7822C84.344 84.0107 84.6256 84.3316 84.8264 84.7448C85.0296 85.1579 85.1311 85.6415 85.1311 86.1955C85.1311 86.7449 85.0296 87.225 84.8264 87.6358C84.6256 88.0467 84.344 88.3664 83.9816 88.5949C83.6215 88.8234 83.2014 88.9377 82.7213 88.9377ZM82.7213 88.2037C83.086 88.2037 83.3861 88.1102 83.6215 87.9232C83.857 87.7362 84.0312 87.4904 84.1444 87.1857C84.2575 86.881 84.314 86.551 84.314 86.1955C84.314 85.84 84.2575 85.5088 84.1444 85.2018C84.0312 84.8948 83.857 84.6467 83.6215 84.4574C83.3861 84.2681 83.086 84.1735 82.7213 84.1735C82.3566 84.1735 82.0566 84.2681 81.8211 84.4574C81.5857 84.6467 81.4114 84.8948 81.2983 85.2018C81.1852 85.5088 81.1286 85.84 81.1286 86.1955C81.1286 86.551 81.1852 86.881 81.2983 87.1857C81.4114 87.4904 81.5857 87.7362 81.8211 87.9232C82.0566 88.1102 82.3566 88.2037 82.7213 88.2037Z" fill="#565656"/>
<path d="M79.2339 84.6998L78.4999 84.9075C78.4537 84.7852 78.3857 84.6663 78.2956 84.5509C78.2079 84.4331 78.0879 84.3362 77.9355 84.26C77.7832 84.1839 77.5882 84.1458 77.3504 84.1458C77.0249 84.1458 76.7537 84.2208 76.5368 84.3708C76.3221 84.5186 76.2148 84.7067 76.2148 84.9352C76.2148 85.1383 76.2886 85.2987 76.4363 85.4165C76.5841 85.5342 76.8149 85.6323 77.1288 85.7108L77.9182 85.9047C78.3937 86.0201 78.748 86.1966 78.9812 86.4344C79.2143 86.6698 79.3309 86.9734 79.3309 87.345C79.3309 87.6497 79.2432 87.9221 79.0677 88.1621C78.8946 88.4022 78.6523 88.5914 78.3406 88.7299C78.029 88.8684 77.6666 88.9377 77.2535 88.9377C76.711 88.9377 76.2621 88.82 75.9066 88.5845C75.5511 88.3491 75.3261 88.0051 75.2314 87.5527L76.007 87.3588C76.0809 87.6451 76.2205 87.8597 76.426 88.0028C76.6337 88.146 76.9049 88.2175 77.2396 88.2175C77.6205 88.2175 77.9229 88.1367 78.1468 87.9751C78.373 87.8113 78.4861 87.6151 78.4861 87.3865C78.4861 87.2019 78.4214 87.0472 78.2922 86.9226C78.1629 86.7956 77.9644 86.701 77.6966 86.6387L76.8103 86.4309C76.3232 86.3155 75.9655 86.1366 75.7369 85.8943C75.5107 85.6496 75.3976 85.3438 75.3976 84.9767C75.3976 84.6767 75.4819 84.4112 75.6504 84.1804C75.8212 83.9496 76.0532 83.7684 76.3463 83.6368C76.6418 83.5052 76.9765 83.4395 77.3504 83.4395C77.8767 83.4395 78.2899 83.5549 78.5899 83.7857C78.8923 84.0165 79.107 84.3212 79.2339 84.6998Z" fill="#565656"/>
<g filter="url(#filter1_d_431_2135)">
<path d="M66 112.891C66 108.403 69.6267 104.766 74.1006 104.766H202.899C207.373 104.766 211 108.403 211 112.891V122.641C211 127.128 207.373 130.766 202.899 130.766H74.1006C69.6267 130.766 66 127.128 66 122.641V112.891Z" fill="white"/>
</g>
<path d="M142.25 121.329V116.011H143.04V116.842H143.109C143.22 116.558 143.399 116.337 143.646 116.18C143.893 116.021 144.189 115.941 144.536 115.941C144.886 115.941 145.178 116.021 145.411 116.18C145.647 116.337 145.83 116.558 145.962 116.842H146.017C146.154 116.567 146.358 116.349 146.63 116.187C146.903 116.023 147.229 115.941 147.61 115.941C148.086 115.941 148.475 116.09 148.777 116.388C149.079 116.684 149.23 117.144 149.23 117.77V121.329H148.413V117.77C148.413 117.377 148.306 117.097 148.091 116.928C147.877 116.76 147.624 116.675 147.333 116.675C146.959 116.675 146.669 116.789 146.464 117.015C146.259 117.239 146.156 117.523 146.156 117.866V121.329H145.325V117.686C145.325 117.384 145.227 117.141 145.031 116.956C144.834 116.769 144.582 116.675 144.272 116.675C144.06 116.675 143.862 116.732 143.677 116.845C143.495 116.958 143.347 117.115 143.234 117.316C143.123 117.514 143.067 117.744 143.067 118.005V121.329H142.25Z" fill="#565656"/>
<path d="M138.593 121.44C138.113 121.44 137.692 121.325 137.33 121.097C136.97 120.868 136.688 120.549 136.485 120.138C136.284 119.727 136.184 119.247 136.184 118.697C136.184 118.143 136.284 117.66 136.485 117.247C136.688 116.834 136.97 116.513 137.33 116.284C137.692 116.056 138.113 115.941 138.593 115.941C139.074 115.941 139.494 116.056 139.854 116.284C140.216 116.513 140.498 116.834 140.699 117.247C140.902 117.66 141.003 118.143 141.003 118.697C141.003 119.247 140.902 119.727 140.699 120.138C140.498 120.549 140.216 120.868 139.854 121.097C139.494 121.325 139.074 121.44 138.593 121.44ZM138.593 120.706C138.958 120.706 139.258 120.612 139.494 120.425C139.729 120.238 139.903 119.992 140.016 119.688C140.13 119.383 140.186 119.053 140.186 118.697C140.186 118.342 140.13 118.011 140.016 117.704C139.903 117.397 139.729 117.149 139.494 116.959C139.258 116.77 138.958 116.675 138.593 116.675C138.229 116.675 137.929 116.77 137.693 116.959C137.458 117.149 137.283 117.397 137.17 117.704C137.057 118.011 137.001 118.342 137.001 118.697C137.001 119.053 137.057 119.383 137.17 119.688C137.283 119.992 137.458 120.238 137.693 120.425C137.929 120.612 138.229 120.706 138.593 120.706Z" fill="#565656"/>
<path d="M133.147 121.44C132.649 121.44 132.219 121.322 131.859 121.086C131.499 120.851 131.222 120.527 131.028 120.114C130.834 119.7 130.737 119.228 130.737 118.697C130.737 118.157 130.837 117.681 131.035 117.267C131.236 116.852 131.515 116.528 131.873 116.295C132.233 116.059 132.653 115.941 133.133 115.941C133.507 115.941 133.844 116.011 134.144 116.149C134.444 116.288 134.69 116.482 134.882 116.731C135.073 116.98 135.192 117.271 135.238 117.603H134.421C134.359 117.361 134.22 117.146 134.006 116.959C133.793 116.77 133.507 116.675 133.147 116.675C132.829 116.675 132.549 116.759 132.309 116.925C132.071 117.089 131.886 117.321 131.752 117.621C131.62 117.918 131.554 118.268 131.554 118.67C131.554 119.081 131.619 119.438 131.748 119.743C131.88 120.048 132.065 120.284 132.302 120.453C132.542 120.621 132.824 120.706 133.147 120.706C133.359 120.706 133.552 120.669 133.725 120.595C133.898 120.521 134.045 120.415 134.165 120.276C134.285 120.138 134.37 119.972 134.421 119.778H135.238C135.192 120.092 135.078 120.374 134.896 120.626C134.716 120.875 134.477 121.074 134.179 121.222C133.883 121.367 133.54 121.44 133.147 121.44Z" fill="#565656"/>
<path d="M128.897 121.383C128.726 121.383 128.579 121.322 128.457 121.2C128.335 121.077 128.274 120.931 128.274 120.76C128.274 120.589 128.335 120.443 128.457 120.32C128.579 120.198 128.726 120.137 128.897 120.137C129.068 120.137 129.214 120.198 129.337 120.32C129.459 120.443 129.52 120.589 129.52 120.76C129.52 120.873 129.491 120.977 129.433 121.072C129.378 121.166 129.303 121.242 129.208 121.3C129.116 121.355 129.012 121.383 128.897 121.383Z" fill="#565656"/>
<path d="M127.072 116.01V116.703H124.316V116.01H127.072ZM125.119 114.736H125.937V119.805C125.937 120.036 125.97 120.209 126.037 120.325C126.106 120.438 126.194 120.514 126.3 120.553C126.409 120.59 126.523 120.608 126.643 120.608C126.733 120.608 126.807 120.604 126.865 120.595C126.922 120.583 126.968 120.574 127.003 120.567L127.169 121.301C127.114 121.322 127.036 121.343 126.937 121.363C126.838 121.386 126.712 121.398 126.56 121.398C126.329 121.398 126.103 121.348 125.881 121.249C125.662 121.15 125.48 120.999 125.334 120.795C125.191 120.592 125.119 120.336 125.119 120.027V114.736Z" fill="#565656"/>
<path d="M122.446 121.328V116.01H123.263V121.328H122.446ZM122.861 115.124C122.702 115.124 122.564 115.069 122.449 114.961C122.336 114.852 122.279 114.722 122.279 114.57C122.279 114.417 122.336 114.287 122.449 114.178C122.564 114.07 122.702 114.016 122.861 114.016C123.02 114.016 123.157 114.07 123.27 114.178C123.385 114.287 123.443 114.417 123.443 114.57C123.443 114.722 123.385 114.852 123.27 114.961C123.157 115.069 123.02 115.124 122.861 115.124Z" fill="#565656"/>
<path d="M118.398 121.44C117.955 121.44 117.564 121.328 117.225 121.104C116.885 120.878 116.62 120.559 116.428 120.149C116.237 119.735 116.141 119.247 116.141 118.684C116.141 118.125 116.237 117.641 116.428 117.23C116.62 116.819 116.886 116.502 117.228 116.278C117.57 116.054 117.964 115.942 118.412 115.942C118.758 115.942 119.032 115.999 119.233 116.115C119.436 116.228 119.591 116.357 119.697 116.503C119.805 116.646 119.889 116.763 119.949 116.856H120.019V114.238H120.836V121.329H120.046V120.512H119.949C119.889 120.609 119.804 120.731 119.693 120.879C119.582 121.025 119.424 121.155 119.219 121.27C119.013 121.383 118.74 121.44 118.398 121.44ZM118.509 120.706C118.837 120.706 119.114 120.621 119.34 120.45C119.566 120.277 119.738 120.038 119.856 119.733C119.974 119.426 120.033 119.072 120.033 118.67C120.033 118.273 119.975 117.926 119.859 117.628C119.744 117.328 119.573 117.095 119.347 116.929C119.121 116.76 118.842 116.676 118.509 116.676C118.163 116.676 117.874 116.765 117.644 116.942C117.415 117.118 117.243 117.357 117.128 117.659C117.015 117.959 116.958 118.296 116.958 118.67C116.958 119.049 117.016 119.393 117.131 119.702C117.249 120.009 117.422 120.254 117.65 120.436C117.881 120.616 118.168 120.706 118.509 120.706Z" fill="#565656"/>
<path d="M112.343 121.44C111.899 121.44 111.508 121.328 111.169 121.104C110.83 120.878 110.564 120.559 110.373 120.149C110.181 119.735 110.085 119.247 110.085 118.684C110.085 118.125 110.181 117.641 110.373 117.23C110.564 116.819 110.831 116.502 111.172 116.278C111.514 116.054 111.909 115.942 112.357 115.942C112.703 115.942 112.976 115.999 113.177 116.115C113.38 116.228 113.535 116.357 113.641 116.503C113.75 116.646 113.834 116.763 113.894 116.856H113.963V114.238H114.78V121.329H113.991V120.512H113.894C113.834 120.609 113.748 120.731 113.638 120.879C113.527 121.025 113.369 121.155 113.163 121.27C112.958 121.383 112.684 121.44 112.343 121.44ZM112.453 120.706C112.781 120.706 113.058 120.621 113.284 120.45C113.511 120.277 113.683 120.038 113.8 119.733C113.918 119.426 113.977 119.072 113.977 118.67C113.977 118.273 113.919 117.926 113.804 117.628C113.688 117.328 113.518 117.095 113.291 116.929C113.065 116.76 112.786 116.676 112.453 116.676C112.107 116.676 111.819 116.765 111.588 116.942C111.359 117.118 111.187 117.357 111.072 117.659C110.959 117.959 110.902 118.296 110.902 118.67C110.902 119.049 110.96 119.393 111.075 119.702C111.193 120.009 111.366 120.254 111.595 120.436C111.826 120.616 112.112 120.706 112.453 120.706Z" fill="#565656"/>
<path d="M106.889 121.44C106.377 121.44 105.935 121.327 105.563 121.1C105.194 120.872 104.909 120.553 104.708 120.145C104.51 119.734 104.41 119.256 104.41 118.711C104.41 118.167 104.51 117.686 104.708 117.271C104.909 116.853 105.188 116.528 105.546 116.295C105.906 116.059 106.326 115.941 106.806 115.941C107.083 115.941 107.357 115.988 107.627 116.08C107.897 116.172 108.143 116.322 108.364 116.53C108.586 116.735 108.763 117.008 108.894 117.347C109.026 117.686 109.092 118.104 109.092 118.6V118.947H104.992V118.24H108.261C108.261 117.94 108.201 117.673 108.081 117.437C107.963 117.202 107.794 117.016 107.575 116.88C107.358 116.744 107.102 116.675 106.806 116.675C106.481 116.675 106.199 116.756 105.962 116.918C105.726 117.077 105.545 117.285 105.418 117.541C105.291 117.797 105.228 118.072 105.228 118.365V118.836C105.228 119.238 105.297 119.578 105.435 119.857C105.576 120.134 105.771 120.346 106.02 120.491C106.27 120.634 106.559 120.706 106.889 120.706C107.104 120.706 107.298 120.676 107.471 120.616C107.647 120.553 107.798 120.461 107.925 120.339C108.052 120.214 108.15 120.059 108.219 119.875L109.008 120.096C108.925 120.364 108.786 120.599 108.589 120.803C108.393 121.003 108.151 121.16 107.862 121.273C107.574 121.384 107.25 121.44 106.889 121.44Z" fill="#565656"/>
<path d="M101.194 121.327V116.009H101.983V116.812H102.039C102.135 116.549 102.311 116.335 102.565 116.172C102.819 116.008 103.105 115.926 103.423 115.926C103.483 115.926 103.559 115.927 103.649 115.929C103.739 115.932 103.807 115.935 103.853 115.94V116.771C103.825 116.764 103.762 116.753 103.662 116.739C103.565 116.723 103.463 116.715 103.354 116.715C103.096 116.715 102.865 116.769 102.662 116.878C102.461 116.984 102.302 117.132 102.184 117.321C102.069 117.508 102.011 117.722 102.011 117.962V121.327H101.194Z" fill="#565656"/>
<path d="M99.1041 121.383C98.9333 121.383 98.7867 121.322 98.6643 121.2C98.542 121.077 98.4808 120.931 98.4808 120.76C98.4808 120.589 98.542 120.443 98.6643 120.32C98.7867 120.198 98.9333 120.137 99.1041 120.137C99.2749 120.137 99.4214 120.198 99.5438 120.32C99.6661 120.443 99.7273 120.589 99.7273 120.76C99.7273 120.873 99.6984 120.977 99.6407 121.072C99.5853 121.166 99.5103 121.242 99.4157 121.3C99.3233 121.355 99.2195 121.383 99.1041 121.383Z" fill="#565656"/>
<path d="M92.5154 121.328L90.895 116.01H91.7537L92.9032 120.081H92.9586L94.0942 116.01H94.9668L96.0886 120.068H96.144L97.2935 116.01H98.1521L96.5317 121.328H95.7285L94.5651 117.242H94.482L93.3187 121.328H92.5154Z" fill="#565656"/>
<path d="M84.5935 121.328L82.9731 116.01H83.8318L84.9813 120.081H85.0367L86.1724 116.01H87.0449L88.1667 120.068H88.2221L89.3716 116.01H90.2302L88.6099 121.328H87.8066L86.6432 117.242H86.5601L85.3968 121.328H84.5935Z" fill="#565656"/>
<path d="M76.6717 121.328L75.0513 116.01H75.9099L77.0594 120.081H77.1148L78.2505 116.01H79.123L80.2448 120.068H80.3002L81.4497 116.01H82.3084L80.688 121.328H79.8847L78.7214 117.242H78.6383L77.4749 121.328H76.6717Z" fill="#565656"/>
<g filter="url(#filter2_d_431_2135)">
<path d="M66 144.891C66 140.403 69.6267 136.766 74.1006 136.766H202.899C207.373 136.766 211 140.403 211 144.891V154.641C211 159.128 207.373 162.766 202.899 162.766H74.1006C69.6267 162.766 66 159.128 66 154.641V144.891Z" fill="white"/>
</g>
<path d="M161.084 153.829V148.511H161.873V149.342H161.943C162.053 149.058 162.232 148.837 162.479 148.68C162.726 148.521 163.023 148.441 163.369 148.441C163.72 148.441 164.012 148.521 164.245 148.68C164.48 148.837 164.664 149.058 164.796 149.342H164.851C164.987 149.067 165.191 148.849 165.464 148.687C165.736 148.523 166.063 148.441 166.444 148.441C166.919 148.441 167.308 148.59 167.61 148.888C167.913 149.184 168.064 149.644 168.064 150.27V153.829H167.247V150.27C167.247 149.877 167.14 149.597 166.925 149.428C166.71 149.26 166.457 149.175 166.167 149.175C165.793 149.175 165.503 149.289 165.298 149.515C165.092 149.739 164.989 150.023 164.989 150.366V153.829H164.158V150.186C164.158 149.884 164.06 149.641 163.864 149.456C163.668 149.269 163.415 149.175 163.106 149.175C162.894 149.175 162.695 149.232 162.51 149.345C162.328 149.458 162.18 149.615 162.067 149.816C161.956 150.014 161.901 150.244 161.901 150.505V153.829H161.084Z" fill="#565656"/>
<path d="M157.427 153.94C156.947 153.94 156.526 153.825 156.163 153.597C155.803 153.368 155.521 153.049 155.318 152.638C155.117 152.227 155.017 151.747 155.017 151.197C155.017 150.643 155.117 150.16 155.318 149.747C155.521 149.334 155.803 149.013 156.163 148.784C156.526 148.556 156.947 148.441 157.427 148.441C157.907 148.441 158.327 148.556 158.687 148.784C159.05 149.013 159.331 149.334 159.532 149.747C159.735 150.16 159.837 150.643 159.837 151.197C159.837 151.747 159.735 152.227 159.532 152.638C159.331 153.049 159.05 153.368 158.687 153.597C158.327 153.825 157.907 153.94 157.427 153.94ZM157.427 153.206C157.792 153.206 158.092 153.112 158.327 152.925C158.563 152.738 158.737 152.492 158.85 152.188C158.963 151.883 159.02 151.553 159.02 151.197C159.02 150.842 158.963 150.511 158.85 150.204C158.737 149.897 158.563 149.649 158.327 149.459C158.092 149.27 157.792 149.175 157.427 149.175C157.062 149.175 156.762 149.27 156.527 149.459C156.291 149.649 156.117 149.897 156.004 150.204C155.891 150.511 155.834 150.842 155.834 151.197C155.834 151.553 155.891 151.883 156.004 152.188C156.117 152.492 156.291 152.738 156.527 152.925C156.762 153.112 157.062 153.206 157.427 153.206Z" fill="#565656"/>
<path d="M151.981 153.94C151.482 153.94 151.053 153.822 150.693 153.586C150.333 153.351 150.056 153.027 149.862 152.614C149.668 152.2 149.571 151.728 149.571 151.197C149.571 150.657 149.67 150.181 149.869 149.767C150.069 149.352 150.349 149.028 150.706 148.795C151.067 148.559 151.487 148.441 151.967 148.441C152.341 148.441 152.678 148.511 152.978 148.649C153.278 148.788 153.524 148.982 153.715 149.231C153.907 149.48 154.026 149.771 154.072 150.103H153.255C153.192 149.861 153.054 149.646 152.839 149.459C152.627 149.27 152.341 149.175 151.981 149.175C151.662 149.175 151.383 149.259 151.143 149.425C150.905 149.589 150.719 149.821 150.585 150.121C150.454 150.418 150.388 150.768 150.388 151.17C150.388 151.581 150.453 151.938 150.582 152.243C150.713 152.548 150.898 152.784 151.136 152.953C151.376 153.121 151.657 153.206 151.981 153.206C152.193 153.206 152.386 153.169 152.559 153.095C152.732 153.021 152.879 152.915 152.999 152.776C153.119 152.638 153.204 152.472 153.255 152.278H154.072C154.026 152.592 153.911 152.874 153.729 153.126C153.549 153.375 153.31 153.574 153.012 153.722C152.717 153.867 152.373 153.94 151.981 153.94Z" fill="#565656"/>
<path d="M147.73 153.883C147.559 153.883 147.413 153.822 147.291 153.7C147.168 153.577 147.107 153.431 147.107 153.26C147.107 153.089 147.168 152.943 147.291 152.82C147.413 152.698 147.559 152.637 147.73 152.637C147.901 152.637 148.048 152.698 148.17 152.82C148.292 152.943 148.354 153.089 148.354 153.26C148.354 153.373 148.325 153.477 148.267 153.572C148.212 153.666 148.137 153.742 148.042 153.8C147.95 153.855 147.846 153.883 147.73 153.883Z" fill="#565656"/>
<path d="M142.593 151.89L142.579 150.879H142.745L145.072 148.511H146.083L143.604 151.018H143.535L142.593 151.89ZM141.831 153.829V146.738H142.649V153.829H141.831ZM145.211 153.829L143.133 151.198L143.715 150.63L146.249 153.829H145.211Z" fill="#565656"/>
<path d="M138.174 153.94C137.694 153.94 137.273 153.825 136.911 153.597C136.551 153.368 136.269 153.049 136.066 152.638C135.865 152.227 135.765 151.747 135.765 151.197C135.765 150.643 135.865 150.16 136.066 149.747C136.269 149.334 136.551 149.013 136.911 148.784C137.273 148.556 137.694 148.441 138.174 148.441C138.655 148.441 139.075 148.556 139.435 148.784C139.797 149.013 140.079 149.334 140.28 149.747C140.483 150.16 140.584 150.643 140.584 151.197C140.584 151.747 140.483 152.227 140.28 152.638C140.079 153.049 139.797 153.368 139.435 153.597C139.075 153.825 138.655 153.94 138.174 153.94ZM138.174 153.206C138.539 153.206 138.839 153.112 139.075 152.925C139.31 152.738 139.484 152.492 139.597 152.188C139.711 151.883 139.767 151.553 139.767 151.197C139.767 150.842 139.711 150.511 139.597 150.204C139.484 149.897 139.31 149.649 139.075 149.459C138.839 149.27 138.539 149.175 138.174 149.175C137.81 149.175 137.51 149.27 137.274 149.459C137.039 149.649 136.865 149.897 136.751 150.204C136.638 150.511 136.582 150.842 136.582 151.197C136.582 151.553 136.638 151.883 136.751 152.188C136.865 152.492 137.039 152.738 137.274 152.925C137.51 153.112 137.81 153.206 138.174 153.206Z" fill="#565656"/>
<path d="M132.357 153.94C131.877 153.94 131.455 153.825 131.093 153.597C130.733 153.368 130.451 153.049 130.248 152.638C130.047 152.227 129.947 151.747 129.947 151.197C129.947 150.643 130.047 150.16 130.248 149.747C130.451 149.334 130.733 149.013 131.093 148.784C131.455 148.556 131.877 148.441 132.357 148.441C132.837 148.441 133.257 148.556 133.617 148.784C133.98 149.013 134.261 149.334 134.462 149.747C134.665 150.16 134.767 150.643 134.767 151.197C134.767 151.747 134.665 152.227 134.462 152.638C134.261 153.049 133.98 153.368 133.617 153.597C133.257 153.825 132.837 153.94 132.357 153.94ZM132.357 153.206C132.722 153.206 133.022 153.112 133.257 152.925C133.492 152.738 133.667 152.492 133.78 152.188C133.893 151.883 133.95 151.553 133.95 151.197C133.95 150.842 133.893 150.511 133.78 150.204C133.667 149.897 133.492 149.649 133.257 149.459C133.022 149.27 132.722 149.175 132.357 149.175C131.992 149.175 131.692 149.27 131.457 149.459C131.221 149.649 131.047 149.897 130.934 150.204C130.821 150.511 130.764 150.842 130.764 151.197C130.764 151.553 130.821 151.883 130.934 152.188C131.047 152.492 131.221 152.738 131.457 152.925C131.692 153.112 131.992 153.206 132.357 153.206Z" fill="#565656"/>
<path d="M124.252 153.829V146.738H125.069V149.356H125.138C125.198 149.263 125.281 149.146 125.387 149.003C125.496 148.857 125.65 148.728 125.851 148.615C126.054 148.499 126.329 148.442 126.675 148.442C127.123 148.442 127.518 148.554 127.859 148.778C128.201 149.002 128.468 149.319 128.659 149.73C128.851 150.141 128.947 150.625 128.947 151.184C128.947 151.747 128.851 152.235 128.659 152.649C128.468 153.059 128.202 153.378 127.863 153.604C127.524 153.828 127.132 153.94 126.689 153.94C126.347 153.94 126.074 153.883 125.869 153.77C125.663 153.655 125.505 153.525 125.394 153.379C125.283 153.231 125.198 153.109 125.138 153.012H125.041V153.829H124.252ZM125.055 151.17C125.055 151.572 125.114 151.926 125.231 152.233C125.349 152.538 125.521 152.777 125.747 152.95C125.974 153.121 126.251 153.206 126.578 153.206C126.92 153.206 127.205 153.116 127.433 152.936C127.664 152.754 127.837 152.509 127.953 152.202C128.071 151.893 128.129 151.549 128.129 151.17C128.129 150.796 128.072 150.459 127.956 150.159C127.843 149.857 127.671 149.618 127.44 149.442C127.212 149.265 126.925 149.176 126.578 149.176C126.246 149.176 125.967 149.26 125.74 149.429C125.514 149.595 125.343 149.828 125.228 150.128C125.113 150.426 125.055 150.773 125.055 151.17Z" fill="#565656"/>
<path d="M119.197 150.63V153.829H118.38V146.738H119.197V149.342H119.266C119.391 149.067 119.578 148.849 119.827 148.688C120.079 148.524 120.414 148.442 120.831 148.442C121.194 148.442 121.511 148.514 121.784 148.66C122.056 148.803 122.267 149.023 122.417 149.321C122.569 149.617 122.646 149.993 122.646 150.45V153.829H121.829V150.505C121.829 150.083 121.719 149.756 121.5 149.525C121.283 149.292 120.981 149.176 120.596 149.176C120.328 149.176 120.088 149.232 119.876 149.345C119.666 149.459 119.5 149.624 119.377 149.841C119.257 150.058 119.197 150.321 119.197 150.63Z" fill="#565656"/>
<path d="M115.094 153.94C114.596 153.94 114.166 153.822 113.806 153.586C113.446 153.351 113.169 153.027 112.975 152.614C112.782 152.2 112.685 151.728 112.685 151.197C112.685 150.657 112.784 150.181 112.982 149.767C113.183 149.352 113.462 149.028 113.82 148.795C114.18 148.559 114.6 148.441 115.081 148.441C115.454 148.441 115.791 148.511 116.092 148.649C116.392 148.788 116.637 148.982 116.829 149.231C117.021 149.48 117.139 149.771 117.186 150.103H116.369C116.306 149.861 116.168 149.646 115.953 149.459C115.741 149.27 115.454 149.175 115.094 149.175C114.776 149.175 114.497 149.259 114.256 149.425C114.019 149.589 113.833 149.821 113.699 150.121C113.567 150.418 113.502 150.768 113.502 151.17C113.502 151.581 113.566 151.938 113.696 152.243C113.827 152.548 114.012 152.784 114.25 152.953C114.49 153.121 114.771 153.206 115.094 153.206C115.307 153.206 115.499 153.169 115.673 153.095C115.846 153.021 115.992 152.915 116.112 152.776C116.232 152.638 116.318 152.472 116.369 152.278H117.186C117.139 152.592 117.025 152.874 116.843 153.126C116.663 153.375 116.424 153.574 116.126 153.722C115.831 153.867 115.487 153.94 115.094 153.94Z" fill="#565656"/>
<path d="M111.762 148.51V149.203H109.006V148.51H111.762ZM109.809 147.236H110.626V152.305C110.626 152.536 110.66 152.709 110.726 152.825C110.796 152.938 110.883 153.014 110.99 153.053C111.098 153.09 111.212 153.108 111.332 153.108C111.422 153.108 111.496 153.104 111.554 153.095C111.612 153.083 111.658 153.074 111.692 153.067L111.859 153.801C111.803 153.822 111.726 153.843 111.627 153.863C111.527 153.886 111.402 153.898 111.249 153.898C111.018 153.898 110.792 153.848 110.571 153.749C110.351 153.65 110.169 153.499 110.024 153.295C109.88 153.092 109.809 152.836 109.809 152.527V147.236Z" fill="#565656"/>
<path d="M107.135 153.828V148.51H107.952V153.828H107.135ZM107.551 147.624C107.391 147.624 107.254 147.569 107.139 147.461C107.025 147.352 106.969 147.222 106.969 147.07C106.969 146.917 107.025 146.787 107.139 146.678C107.254 146.57 107.391 146.516 107.551 146.516C107.71 146.516 107.846 146.57 107.959 146.678C108.075 146.787 108.132 146.917 108.132 147.07C108.132 147.222 108.075 147.352 107.959 147.461C107.846 147.569 107.71 147.624 107.551 147.624Z" fill="#565656"/>
<path d="M101.194 155.823V148.511H101.983V149.355H102.08C102.14 149.263 102.223 149.145 102.329 149.002C102.438 148.857 102.593 148.728 102.793 148.615C102.996 148.499 103.271 148.441 103.617 148.441C104.065 148.441 104.46 148.553 104.802 148.777C105.143 149.001 105.41 149.319 105.601 149.729C105.793 150.14 105.889 150.625 105.889 151.184C105.889 151.747 105.793 152.235 105.601 152.648C105.41 153.059 105.144 153.378 104.805 153.604C104.466 153.828 104.074 153.94 103.631 153.94C103.29 153.94 103.016 153.883 102.811 153.77C102.605 153.655 102.447 153.524 102.336 153.379C102.226 153.231 102.14 153.109 102.08 153.012H102.011V155.823H101.194ZM101.997 151.17C101.997 151.571 102.056 151.926 102.174 152.233C102.291 152.537 102.463 152.776 102.689 152.949C102.916 153.12 103.193 153.206 103.52 153.206C103.862 153.206 104.147 153.116 104.376 152.936C104.606 152.753 104.78 152.509 104.895 152.202C105.013 151.892 105.072 151.548 105.072 151.17C105.072 150.796 105.014 150.459 104.898 150.159C104.785 149.856 104.613 149.617 104.383 149.442C104.154 149.264 103.867 149.175 103.52 149.175C103.188 149.175 102.909 149.26 102.683 149.428C102.456 149.594 102.286 149.828 102.17 150.128C102.055 150.425 101.997 150.773 101.997 151.17Z" fill="#565656"/>
<path d="M99.1041 153.883C98.9333 153.883 98.7867 153.822 98.6643 153.7C98.542 153.577 98.4808 153.431 98.4808 153.26C98.4808 153.089 98.542 152.943 98.6643 152.82C98.7867 152.698 98.9333 152.637 99.1041 152.637C99.2749 152.637 99.4214 152.698 99.5438 152.82C99.6661 152.943 99.7273 153.089 99.7273 153.26C99.7273 153.373 99.6984 153.477 99.6407 153.572C99.5853 153.666 99.5103 153.742 99.4157 153.8C99.3233 153.855 99.2195 153.883 99.1041 153.883Z" fill="#565656"/>
<path d="M92.5154 153.828L90.895 148.51H91.7537L92.9032 152.581H92.9586L94.0942 148.51H94.9668L96.0886 152.568H96.144L97.2935 148.51H98.1521L96.5317 153.828H95.7285L94.5651 149.742H94.482L93.3187 153.828H92.5154Z" fill="#565656"/>
<path d="M84.5935 153.828L82.9731 148.51H83.8318L84.9813 152.581H85.0367L86.1724 148.51H87.0449L88.1667 152.568H88.2221L89.3716 148.51H90.2302L88.6099 153.828H87.8066L86.6432 149.742H86.5601L85.3968 153.828H84.5935Z" fill="#565656"/>
<path d="M76.6717 153.828L75.0513 148.51H75.9099L77.0594 152.581H77.1148L78.2505 148.51H79.123L80.2448 152.568H80.3002L81.4497 148.51H82.3084L80.688 153.828H79.8847L78.7214 149.742H78.6383L77.4749 153.828H76.6717Z" fill="#565656"/>
<g filter="url(#filter3_d_431_2135)">
<path d="M66 177.891C66 173.403 69.6267 169.766 74.1006 169.766H202.899C207.373 169.766 211 173.403 211 177.891V187.641C211 192.128 207.373 195.766 202.899 195.766H74.1006C69.6267 195.766 66 192.128 66 187.641V177.891Z" fill="white"/>
</g>
<path d="M180.936 186.329V181.011H181.726V181.842H181.795C181.906 181.558 182.085 181.337 182.331 181.18C182.578 181.021 182.875 180.941 183.221 180.941C183.572 180.941 183.864 181.021 184.097 181.18C184.333 181.337 184.516 181.558 184.648 181.842H184.703C184.839 181.567 185.044 181.349 185.316 181.187C185.588 181.023 185.915 180.941 186.296 180.941C186.771 180.941 187.16 181.09 187.463 181.388C187.765 181.684 187.916 182.144 187.916 182.77V186.329H187.099V182.77C187.099 182.377 186.992 182.097 186.777 181.928C186.562 181.76 186.31 181.675 186.019 181.675C185.645 181.675 185.355 181.789 185.15 182.015C184.944 182.239 184.842 182.523 184.842 182.866V186.329H184.011V182.686C184.011 182.384 183.913 182.141 183.716 181.956C183.52 181.769 183.267 181.675 182.958 181.675C182.746 181.675 182.547 181.732 182.363 181.845C182.18 181.958 182.033 182.115 181.919 182.316C181.809 182.514 181.753 182.744 181.753 183.005V186.329H180.936Z" fill="#565656"/>
<path d="M177.279 186.44C176.799 186.44 176.378 186.325 176.015 186.097C175.655 185.868 175.374 185.549 175.171 185.138C174.97 184.727 174.869 184.247 174.869 183.697C174.869 183.143 174.97 182.66 175.171 182.247C175.374 181.834 175.655 181.513 176.015 181.284C176.378 181.056 176.799 180.941 177.279 180.941C177.759 180.941 178.179 181.056 178.539 181.284C178.902 181.513 179.183 181.834 179.384 182.247C179.587 182.66 179.689 183.143 179.689 183.697C179.689 184.247 179.587 184.727 179.384 185.138C179.183 185.549 178.902 185.868 178.539 186.097C178.179 186.325 177.759 186.44 177.279 186.44ZM177.279 185.706C177.644 185.706 177.944 185.612 178.179 185.425C178.415 185.238 178.589 184.992 178.702 184.688C178.815 184.383 178.872 184.053 178.872 183.697C178.872 183.342 178.815 183.011 178.702 182.704C178.589 182.397 178.415 182.149 178.179 181.959C177.944 181.77 177.644 181.675 177.279 181.675C176.914 181.675 176.614 181.77 176.379 181.959C176.144 182.149 175.969 182.397 175.856 182.704C175.743 183.011 175.686 183.342 175.686 183.697C175.686 184.053 175.743 184.383 175.856 184.688C175.969 184.992 176.144 185.238 176.379 185.425C176.614 185.612 176.914 185.706 177.279 185.706Z" fill="#565656"/>
<path d="M171.833 186.44C171.334 186.44 170.905 186.322 170.545 186.086C170.185 185.851 169.908 185.527 169.714 185.114C169.52 184.7 169.423 184.228 169.423 183.697C169.423 183.157 169.522 182.681 169.721 182.267C169.922 181.852 170.201 181.528 170.559 181.295C170.919 181.059 171.339 180.941 171.819 180.941C172.193 180.941 172.53 181.011 172.83 181.149C173.13 181.288 173.376 181.482 173.568 181.731C173.759 181.98 173.878 182.271 173.924 182.603H173.107C173.045 182.361 172.906 182.146 172.692 181.959C172.479 181.77 172.193 181.675 171.833 181.675C171.514 181.675 171.235 181.759 170.995 181.925C170.757 182.089 170.571 182.321 170.438 182.621C170.306 182.918 170.24 183.268 170.24 183.67C170.24 184.081 170.305 184.438 170.434 184.743C170.566 185.048 170.75 185.284 170.988 185.453C171.228 185.621 171.51 185.706 171.833 185.706C172.045 185.706 172.238 185.669 172.411 185.595C172.584 185.521 172.731 185.415 172.851 185.276C172.971 185.138 173.056 184.972 173.107 184.778H173.924C173.878 185.092 173.764 185.374 173.581 185.626C173.401 185.875 173.162 186.074 172.865 186.222C172.569 186.367 172.225 186.44 171.833 186.44Z" fill="#565656"/>
<path d="M167.583 186.383C167.412 186.383 167.265 186.322 167.143 186.2C167.021 186.077 166.959 185.931 166.959 185.76C166.959 185.589 167.021 185.443 167.143 185.32C167.265 185.198 167.412 185.137 167.583 185.137C167.753 185.137 167.9 185.198 168.022 185.32C168.145 185.443 168.206 185.589 168.206 185.76C168.206 185.873 168.177 185.977 168.119 186.072C168.064 186.166 167.989 186.242 167.894 186.3C167.802 186.355 167.698 186.383 167.583 186.383Z" fill="#565656"/>
<path d="M163.058 186.453C162.721 186.453 162.416 186.39 162.141 186.263C161.866 186.134 161.648 185.948 161.487 185.706C161.325 185.461 161.244 185.165 161.244 184.819C161.244 184.515 161.304 184.268 161.424 184.078C161.544 183.887 161.705 183.737 161.905 183.628C162.106 183.52 162.328 183.439 162.57 183.386C162.815 183.33 163.061 183.287 163.308 183.254C163.631 183.213 163.893 183.182 164.094 183.161C164.297 183.138 164.445 183.1 164.537 183.047C164.631 182.993 164.679 182.901 164.679 182.77V182.742C164.679 182.4 164.585 182.135 164.398 181.945C164.214 181.756 163.933 181.662 163.557 181.662C163.167 181.662 162.861 181.747 162.639 181.918C162.418 182.089 162.262 182.271 162.172 182.465L161.396 182.188C161.535 181.865 161.72 181.613 161.95 181.433C162.184 181.251 162.437 181.124 162.712 181.052C162.989 180.978 163.262 180.941 163.529 180.941C163.7 180.941 163.896 180.962 164.118 181.004C164.342 181.043 164.558 181.125 164.765 181.25C164.975 181.374 165.15 181.562 165.288 181.814C165.427 182.066 165.496 182.403 165.496 182.825V186.329H164.679V185.609H164.637C164.582 185.724 164.49 185.848 164.36 185.979C164.231 186.111 164.059 186.223 163.844 186.315C163.63 186.407 163.368 186.453 163.058 186.453ZM163.183 185.719C163.506 185.719 163.779 185.656 164 185.529C164.224 185.402 164.393 185.238 164.506 185.037C164.621 184.837 164.679 184.625 164.679 184.404V183.656C164.644 183.697 164.568 183.736 164.45 183.77C164.335 183.802 164.201 183.831 164.049 183.857C163.899 183.88 163.752 183.901 163.609 183.919C163.468 183.935 163.354 183.949 163.266 183.961C163.054 183.988 162.855 184.033 162.671 184.096C162.488 184.156 162.341 184.247 162.227 184.369C162.117 184.489 162.061 184.653 162.061 184.861C162.061 185.145 162.166 185.359 162.376 185.505C162.589 185.648 162.858 185.719 163.183 185.719Z" fill="#565656"/>
<path d="M159.179 186.328V181.01H159.997V186.328H159.179ZM159.595 180.124C159.436 180.124 159.298 180.069 159.183 179.961C159.07 179.852 159.013 179.722 159.013 179.57C159.013 179.417 159.07 179.287 159.183 179.178C159.298 179.07 159.436 179.016 159.595 179.016C159.754 179.016 159.89 179.07 160.004 179.178C160.119 179.287 160.177 179.417 160.177 179.57C160.177 179.722 160.119 179.852 160.004 179.961C159.89 180.069 159.754 180.124 159.595 180.124Z" fill="#565656"/>
<path d="M155.132 186.44C154.689 186.44 154.298 186.328 153.958 186.104C153.619 185.878 153.354 185.559 153.162 185.149C152.971 184.735 152.875 184.247 152.875 183.684C152.875 183.125 152.971 182.641 153.162 182.23C153.354 181.819 153.62 181.502 153.962 181.278C154.304 181.054 154.698 180.942 155.146 180.942C155.492 180.942 155.766 180.999 155.967 181.115C156.17 181.228 156.324 181.357 156.431 181.503C156.539 181.646 156.623 181.763 156.683 181.856H156.753V179.238H157.57V186.329H156.78V185.512H156.683C156.623 185.609 156.538 185.731 156.427 185.879C156.316 186.025 156.158 186.155 155.953 186.27C155.747 186.383 155.474 186.44 155.132 186.44ZM155.243 185.706C155.571 185.706 155.848 185.621 156.074 185.45C156.3 185.277 156.472 185.038 156.59 184.733C156.708 184.426 156.766 184.072 156.766 183.67C156.766 183.273 156.709 182.926 156.593 182.628C156.478 182.328 156.307 182.095 156.081 181.929C155.855 181.76 155.575 181.676 155.243 181.676C154.897 181.676 154.608 181.765 154.377 181.942C154.149 182.118 153.977 182.357 153.862 182.659C153.748 182.959 153.692 183.296 153.692 183.67C153.692 184.049 153.75 184.393 153.865 184.702C153.983 185.009 154.156 185.254 154.384 185.436C154.615 185.616 154.901 185.706 155.243 185.706Z" fill="#565656"/>
<path d="M148.238 183.13V186.329H147.421V181.011H148.21V181.842H148.279C148.404 181.572 148.593 181.355 148.847 181.191C149.101 181.025 149.429 180.941 149.83 180.941C150.19 180.941 150.505 181.015 150.776 181.163C151.046 181.308 151.256 181.53 151.406 181.828C151.556 182.123 151.631 182.497 151.631 182.95V186.329H150.814V183.005C150.814 182.587 150.705 182.262 150.488 182.029C150.271 181.793 149.973 181.675 149.595 181.675C149.334 181.675 149.101 181.732 148.895 181.845C148.692 181.958 148.532 182.123 148.414 182.34C148.297 182.557 148.238 182.82 148.238 183.13Z" fill="#565656"/>
<path d="M145.107 186.328V181.01H145.924V186.328H145.107ZM145.522 180.124C145.363 180.124 145.226 180.069 145.11 179.961C144.997 179.852 144.941 179.722 144.941 179.57C144.941 179.417 144.997 179.287 145.11 179.178C145.226 179.07 145.363 179.016 145.522 179.016C145.681 179.016 145.818 179.07 145.931 179.178C146.046 179.287 146.104 179.417 146.104 179.57C146.104 179.722 146.046 179.852 145.931 179.961C145.818 180.069 145.681 180.124 145.522 180.124Z" fill="#565656"/>
<path d="M140.163 183.13V186.329H139.346V179.238H140.163V181.842H140.233C140.357 181.567 140.544 181.349 140.794 181.188C141.045 181.024 141.38 180.942 141.798 180.942C142.16 180.942 142.477 181.014 142.75 181.16C143.022 181.303 143.233 181.523 143.383 181.821C143.536 182.117 143.612 182.493 143.612 182.95V186.329H142.795V183.005C142.795 182.583 142.685 182.256 142.466 182.025C142.249 181.792 141.948 181.676 141.562 181.676C141.294 181.676 141.054 181.732 140.842 181.845C140.632 181.959 140.466 182.124 140.343 182.341C140.223 182.558 140.163 182.821 140.163 183.13Z" fill="#565656"/>
<path d="M133.405 188.323V181.011H134.194V181.855H134.291C134.351 181.763 134.434 181.645 134.541 181.502C134.649 181.357 134.804 181.228 135.005 181.115C135.208 180.999 135.482 180.941 135.829 180.941C136.276 180.941 136.671 181.053 137.013 181.277C137.354 181.501 137.621 181.819 137.812 182.229C138.004 182.64 138.1 183.125 138.1 183.684C138.1 184.247 138.004 184.735 137.812 185.148C137.621 185.559 137.355 185.878 137.016 186.104C136.677 186.328 136.286 186.44 135.842 186.44C135.501 186.44 135.227 186.383 135.022 186.27C134.816 186.155 134.658 186.024 134.547 185.879C134.437 185.731 134.351 185.609 134.291 185.512H134.222V188.323H133.405ZM134.208 183.67C134.208 184.071 134.267 184.426 134.385 184.733C134.502 185.037 134.674 185.276 134.901 185.449C135.127 185.62 135.404 185.706 135.732 185.706C136.073 185.706 136.358 185.616 136.587 185.436C136.818 185.253 136.991 185.009 137.106 184.702C137.224 184.392 137.283 184.048 137.283 183.67C137.283 183.296 137.225 182.959 137.11 182.659C136.997 182.356 136.825 182.117 136.594 181.942C136.365 181.764 136.078 181.675 135.732 181.675C135.399 181.675 135.12 181.76 134.894 181.928C134.668 182.094 134.497 182.328 134.381 182.628C134.266 182.925 134.208 183.273 134.208 183.67Z" fill="#565656"/>
<path d="M129.476 186.453C129.139 186.453 128.833 186.39 128.559 186.263C128.284 186.134 128.066 185.948 127.904 185.706C127.743 185.461 127.662 185.165 127.662 184.819C127.662 184.515 127.722 184.268 127.842 184.078C127.962 183.887 128.122 183.737 128.323 183.628C128.524 183.52 128.746 183.439 128.988 183.386C129.233 183.33 129.478 183.287 129.725 183.254C130.049 183.213 130.311 183.182 130.511 183.161C130.715 183.138 130.862 183.1 130.955 183.047C131.049 182.993 131.097 182.901 131.097 182.77V182.742C131.097 182.4 131.003 182.135 130.816 181.945C130.631 181.756 130.351 181.662 129.975 181.662C129.585 181.662 129.279 181.747 129.057 181.918C128.836 182.089 128.68 182.271 128.59 182.465L127.814 182.188C127.953 181.865 128.137 181.613 128.368 181.433C128.601 181.251 128.855 181.124 129.13 181.052C129.407 180.978 129.679 180.941 129.947 180.941C130.118 180.941 130.314 180.962 130.536 181.004C130.76 181.043 130.975 181.125 131.183 181.25C131.393 181.374 131.567 181.562 131.706 181.814C131.844 182.066 131.914 182.403 131.914 182.825V186.329H131.097V185.609H131.055C131 185.724 130.907 185.848 130.778 185.979C130.649 186.111 130.477 186.223 130.262 186.315C130.047 186.407 129.785 186.453 129.476 186.453ZM129.601 185.719C129.924 185.719 130.196 185.656 130.418 185.529C130.642 185.402 130.81 185.238 130.923 185.037C131.039 184.837 131.097 184.625 131.097 184.404V183.656C131.062 183.697 130.986 183.736 130.868 183.77C130.753 183.802 130.619 183.831 130.466 183.857C130.316 183.88 130.17 183.901 130.027 183.919C129.886 183.935 129.772 183.949 129.684 183.961C129.472 183.988 129.273 184.033 129.088 184.096C128.906 184.156 128.758 184.247 128.645 184.369C128.534 184.489 128.479 184.653 128.479 184.861C128.479 185.145 128.584 185.359 128.794 185.505C129.006 185.648 129.275 185.719 129.601 185.719Z" fill="#565656"/>
<path d="M124.283 186.327V181.009H125.073V181.812H125.128C125.225 181.549 125.401 181.335 125.654 181.172C125.908 181.008 126.195 180.926 126.513 180.926C126.573 180.926 126.648 180.927 126.738 180.929C126.828 180.932 126.896 180.935 126.942 180.94V181.771C126.915 181.764 126.851 181.753 126.752 181.739C126.655 181.723 126.552 181.715 126.444 181.715C126.185 181.715 125.954 181.769 125.751 181.878C125.551 181.984 125.391 182.132 125.274 182.321C125.158 182.508 125.1 182.722 125.1 182.962V186.327H124.283Z" fill="#565656"/>
<path d="M120.489 188.434C120.094 188.434 119.755 188.383 119.471 188.282C119.187 188.182 118.95 188.051 118.761 187.887C118.574 187.725 118.425 187.552 118.314 187.368L118.965 186.911C119.039 187.007 119.133 187.118 119.246 187.243C119.359 187.37 119.513 187.479 119.71 187.572C119.908 187.666 120.168 187.714 120.489 187.714C120.918 187.714 121.272 187.61 121.552 187.402C121.831 187.194 121.971 186.869 121.971 186.426V185.346H121.901C121.841 185.442 121.756 185.563 121.645 185.706C121.537 185.846 121.38 185.972 121.174 186.083C120.971 186.191 120.696 186.246 120.35 186.246C119.921 186.246 119.535 186.144 119.194 185.941C118.854 185.738 118.586 185.442 118.387 185.055C118.191 184.667 118.093 184.196 118.093 183.642C118.093 183.097 118.189 182.623 118.38 182.219C118.572 181.813 118.838 181.499 119.18 181.277C119.522 181.053 119.916 180.941 120.364 180.941C120.71 180.941 120.985 180.999 121.188 181.115C121.394 181.228 121.551 181.357 121.659 181.502C121.77 181.645 121.855 181.763 121.915 181.855H121.998V181.011H122.788V186.481C122.788 186.938 122.684 187.31 122.476 187.596C122.271 187.885 121.994 188.096 121.645 188.23C121.299 188.366 120.913 188.434 120.489 188.434ZM120.461 185.512C120.789 185.512 121.066 185.437 121.292 185.287C121.518 185.137 121.69 184.921 121.808 184.639C121.926 184.358 121.984 184.021 121.984 183.628C121.984 183.245 121.927 182.907 121.811 182.614C121.696 182.321 121.525 182.091 121.299 181.925C121.073 181.759 120.793 181.675 120.461 181.675C120.115 181.675 119.826 181.763 119.595 181.939C119.367 182.114 119.195 182.349 119.08 182.645C118.966 182.94 118.91 183.268 118.91 183.628C118.91 183.998 118.968 184.324 119.083 184.608C119.201 184.89 119.374 185.111 119.602 185.273C119.833 185.432 120.119 185.512 120.461 185.512Z" fill="#565656"/>
<path d="M114.897 186.44C114.385 186.44 113.943 186.327 113.571 186.1C113.202 185.872 112.917 185.553 112.716 185.145C112.517 184.734 112.418 184.256 112.418 183.711C112.418 183.167 112.517 182.686 112.716 182.271C112.917 181.853 113.196 181.528 113.554 181.295C113.914 181.059 114.334 180.941 114.814 180.941C115.091 180.941 115.364 180.988 115.635 181.08C115.905 181.172 116.15 181.322 116.372 181.53C116.594 181.735 116.77 182.008 116.902 182.347C117.033 182.686 117.099 183.104 117.099 183.6V183.947H113V183.24H116.268C116.268 182.94 116.208 182.673 116.088 182.437C115.97 182.202 115.802 182.016 115.583 181.88C115.366 181.744 115.109 181.675 114.814 181.675C114.488 181.675 114.207 181.756 113.969 181.918C113.734 182.077 113.552 182.285 113.426 182.541C113.299 182.797 113.235 183.072 113.235 183.365V183.836C113.235 184.238 113.304 184.578 113.443 184.857C113.584 185.134 113.779 185.346 114.028 185.491C114.277 185.634 114.567 185.706 114.897 185.706C115.112 185.706 115.306 185.676 115.479 185.616C115.654 185.553 115.805 185.461 115.932 185.339C116.059 185.214 116.157 185.059 116.227 184.875L117.016 185.096C116.933 185.364 116.793 185.599 116.597 185.803C116.401 186.003 116.158 186.16 115.87 186.273C115.581 186.384 115.257 186.44 114.897 186.44Z" fill="#565656"/>
<path d="M111.171 179.238V186.329H110.353V179.238H111.171Z" fill="#565656"/>
<path d="M106.908 186.44C106.396 186.44 105.954 186.327 105.582 186.1C105.213 185.872 104.928 185.553 104.727 185.145C104.529 184.734 104.429 184.256 104.429 183.711C104.429 183.167 104.529 182.686 104.727 182.271C104.928 181.853 105.207 181.528 105.565 181.295C105.925 181.059 106.345 180.941 106.825 180.941C107.102 180.941 107.376 180.988 107.646 181.08C107.916 181.172 108.162 181.322 108.383 181.53C108.605 181.735 108.782 182.008 108.913 182.347C109.045 182.686 109.111 183.104 109.111 183.6V183.947H105.011V183.24H108.28C108.28 182.94 108.22 182.673 108.1 182.437C107.982 182.202 107.813 182.016 107.594 181.88C107.377 181.744 107.121 181.675 106.825 181.675C106.5 181.675 106.218 181.756 105.981 181.918C105.745 182.077 105.564 182.285 105.437 182.541C105.31 182.797 105.247 183.072 105.247 183.365V183.836C105.247 184.238 105.316 184.578 105.454 184.857C105.595 185.134 105.79 185.346 106.039 185.491C106.289 185.634 106.578 185.706 106.908 185.706C107.123 185.706 107.317 185.676 107.49 185.616C107.666 185.553 107.817 185.461 107.944 185.339C108.071 185.214 108.169 185.059 108.238 184.875L109.027 185.096C108.944 185.364 108.805 185.599 108.609 185.803C108.412 186.003 108.17 186.16 107.881 186.273C107.593 186.384 107.269 186.44 106.908 186.44Z" fill="#565656"/>
<path d="M103.507 181.01V181.703H100.751V181.01H103.507ZM101.554 179.736H102.371V184.805C102.371 185.036 102.404 185.209 102.471 185.325C102.541 185.438 102.628 185.514 102.734 185.553C102.843 185.59 102.957 185.608 103.077 185.608C103.167 185.608 103.241 185.604 103.299 185.595C103.357 185.583 103.403 185.574 103.437 185.567L103.604 186.301C103.548 186.322 103.471 186.343 103.372 186.363C103.272 186.386 103.147 186.398 102.994 186.398C102.763 186.398 102.537 186.348 102.316 186.249C102.096 186.15 101.914 185.999 101.768 185.795C101.625 185.592 101.554 185.336 101.554 185.027V179.736Z" fill="#565656"/>
<path d="M99.1041 186.383C98.9333 186.383 98.7867 186.322 98.6643 186.2C98.542 186.077 98.4808 185.931 98.4808 185.76C98.4808 185.589 98.542 185.443 98.6643 185.32C98.7867 185.198 98.9333 185.137 99.1041 185.137C99.2749 185.137 99.4214 185.198 99.5438 185.32C99.6661 185.443 99.7273 185.589 99.7273 185.76C99.7273 185.873 99.6984 185.977 99.6407 186.072C99.5853 186.166 99.5103 186.242 99.4157 186.3C99.3233 186.355 99.2195 186.383 99.1041 186.383Z" fill="#565656"/>
<path d="M92.5154 186.328L90.895 181.01H91.7537L92.9032 185.081H92.9586L94.0942 181.01H94.9668L96.0886 185.068H96.144L97.2935 181.01H98.1521L96.5317 186.328H95.7285L94.5651 182.242H94.482L93.3187 186.328H92.5154Z" fill="#565656"/>
<path d="M84.5935 186.328L82.9731 181.01H83.8318L84.9813 185.081H85.0367L86.1724 181.01H87.0449L88.1667 185.068H88.2221L89.3716 181.01H90.2302L88.6099 186.328H87.8066L86.6432 182.242H86.5601L85.3968 186.328H84.5935Z" fill="#565656"/>
<path d="M76.6717 186.328L75.0513 181.01H75.9099L77.0594 185.081H77.1148L78.2505 181.01H79.123L80.2448 185.068H80.3002L81.4497 181.01H82.3084L80.688 186.328H79.8847L78.7214 182.242H78.6383L77.4749 186.328H76.6717Z" fill="#565656"/>
<g filter="url(#filter4_d_431_2135)">
<path d="M66 209.891C66 205.403 69.6267 201.766 74.1006 201.766H202.899C207.373 201.766 211 205.403 211 209.891V219.641C211 224.128 207.373 227.766 202.899 227.766H74.1006C69.6267 227.766 66 224.128 66 219.641V209.891Z" fill="white"/>
</g>
<path d="M156.58 218.829V213.511H157.37V214.342H157.439C157.55 214.058 157.729 213.837 157.976 213.68C158.223 213.521 158.519 213.441 158.865 213.441C159.216 213.441 159.508 213.521 159.741 213.68C159.977 213.837 160.16 214.058 160.292 214.342H160.347C160.483 214.067 160.688 213.849 160.96 213.687C161.232 213.523 161.559 213.441 161.94 213.441C162.415 213.441 162.804 213.59 163.107 213.888C163.409 214.184 163.56 214.644 163.56 215.27V218.829H162.743V215.27C162.743 214.877 162.636 214.597 162.421 214.428C162.207 214.26 161.954 214.175 161.663 214.175C161.289 214.175 160.999 214.289 160.794 214.515C160.588 214.739 160.486 215.023 160.486 215.366V218.829H159.655V215.186C159.655 214.884 159.557 214.641 159.36 214.456C159.164 214.269 158.912 214.175 158.602 214.175C158.39 214.175 158.191 214.232 158.007 214.345C157.824 214.458 157.677 214.615 157.564 214.816C157.453 215.014 157.397 215.244 157.397 215.505V218.829H156.58Z" fill="#565656"/>
<path d="M152.923 218.94C152.443 218.94 152.022 218.825 151.659 218.597C151.299 218.368 151.018 218.049 150.815 217.638C150.614 217.227 150.513 216.747 150.513 216.197C150.513 215.643 150.614 215.16 150.815 214.747C151.018 214.334 151.299 214.013 151.659 213.784C152.022 213.556 152.443 213.441 152.923 213.441C153.403 213.441 153.823 213.556 154.184 213.784C154.546 214.013 154.828 214.334 155.028 214.747C155.231 215.16 155.333 215.643 155.333 216.197C155.333 216.747 155.231 217.227 155.028 217.638C154.828 218.049 154.546 218.368 154.184 218.597C153.823 218.825 153.403 218.94 152.923 218.94ZM152.923 218.206C153.288 218.206 153.588 218.112 153.823 217.925C154.059 217.738 154.233 217.492 154.346 217.188C154.459 216.883 154.516 216.553 154.516 216.197C154.516 215.842 154.459 215.511 154.346 215.204C154.233 214.897 154.059 214.649 153.823 214.459C153.588 214.27 153.288 214.175 152.923 214.175C152.559 214.175 152.258 214.27 152.023 214.459C151.788 214.649 151.613 214.897 151.5 215.204C151.387 215.511 151.331 215.842 151.331 216.197C151.331 216.553 151.387 216.883 151.5 217.188C151.613 217.492 151.788 217.738 152.023 217.925C152.258 218.112 152.559 218.206 152.923 218.206Z" fill="#565656"/>
<path d="M147.477 218.94C146.978 218.94 146.549 218.822 146.189 218.586C145.829 218.351 145.552 218.027 145.358 217.614C145.164 217.2 145.067 216.728 145.067 216.197C145.067 215.657 145.166 215.181 145.365 214.767C145.566 214.352 145.845 214.028 146.203 213.795C146.563 213.559 146.983 213.441 147.463 213.441C147.837 213.441 148.174 213.511 148.474 213.649C148.774 213.788 149.02 213.982 149.212 214.231C149.403 214.48 149.522 214.771 149.568 215.103H148.751C148.689 214.861 148.55 214.646 148.336 214.459C148.123 214.27 147.837 214.175 147.477 214.175C147.158 214.175 146.879 214.259 146.639 214.425C146.401 214.589 146.215 214.821 146.082 215.121C145.95 215.418 145.884 215.768 145.884 216.17C145.884 216.581 145.949 216.938 146.078 217.243C146.21 217.548 146.394 217.784 146.632 217.953C146.872 218.121 147.154 218.206 147.477 218.206C147.689 218.206 147.882 218.169 148.055 218.095C148.228 218.021 148.375 217.915 148.495 217.776C148.615 217.638 148.7 217.472 148.751 217.278H149.568C149.522 217.592 149.408 217.874 149.225 218.126C149.045 218.375 148.806 218.574 148.509 218.722C148.213 218.867 147.869 218.94 147.477 218.94Z" fill="#565656"/>
<path d="M143.227 218.883C143.056 218.883 142.909 218.822 142.787 218.7C142.665 218.577 142.603 218.431 142.603 218.26C142.603 218.089 142.665 217.943 142.787 217.82C142.909 217.698 143.056 217.637 143.227 217.637C143.397 217.637 143.544 217.698 143.666 217.82C143.789 217.943 143.85 218.089 143.85 218.26C143.85 218.373 143.821 218.477 143.763 218.572C143.708 218.666 143.633 218.742 143.538 218.8C143.446 218.855 143.342 218.883 143.227 218.883Z" fill="#565656"/>
<path d="M138.064 220.822C137.925 220.822 137.802 220.811 137.693 220.788C137.585 220.767 137.51 220.746 137.468 220.725L137.676 220.005C137.874 220.056 138.05 220.074 138.202 220.061C138.354 220.047 138.489 219.979 138.607 219.856C138.727 219.736 138.837 219.541 138.936 219.271L139.088 218.856L137.122 213.51H138.008L139.476 217.748H139.532L141 213.51H141.886L139.629 219.604C139.527 219.878 139.401 220.106 139.251 220.286C139.101 220.468 138.927 220.603 138.728 220.691C138.532 220.778 138.311 220.822 138.064 220.822Z" fill="#565656"/>
<path d="M136.041 211.738V218.829H135.224V211.738H136.041Z" fill="#565656"/>
<path d="M132.91 218.828V213.51H133.727V218.828H132.91ZM133.325 212.624C133.166 212.624 133.029 212.569 132.913 212.461C132.8 212.352 132.744 212.222 132.744 212.07C132.744 211.917 132.8 211.787 132.913 211.678C133.029 211.57 133.166 211.516 133.325 211.516C133.484 211.516 133.621 211.57 133.734 211.678C133.849 211.787 133.907 211.917 133.907 212.07C133.907 212.222 133.849 212.352 133.734 212.461C133.621 212.569 133.484 212.624 133.325 212.624Z" fill="#565656"/>
<path d="M128.981 218.953C128.644 218.953 128.338 218.89 128.063 218.763C127.789 218.634 127.571 218.448 127.409 218.206C127.248 217.961 127.167 217.665 127.167 217.319C127.167 217.015 127.227 216.768 127.347 216.578C127.467 216.387 127.627 216.237 127.828 216.128C128.029 216.02 128.25 215.939 128.493 215.886C128.737 215.83 128.983 215.787 129.23 215.754C129.553 215.713 129.815 215.682 130.016 215.661C130.219 215.638 130.367 215.6 130.459 215.547C130.554 215.493 130.601 215.401 130.601 215.27V215.242C130.601 214.9 130.508 214.635 130.321 214.445C130.136 214.256 129.856 214.162 129.48 214.162C129.09 214.162 128.784 214.247 128.562 214.418C128.34 214.589 128.185 214.771 128.095 214.965L127.319 214.688C127.458 214.365 127.642 214.113 127.873 213.933C128.106 213.751 128.36 213.624 128.635 213.552C128.912 213.478 129.184 213.441 129.452 213.441C129.623 213.441 129.819 213.462 130.041 213.504C130.264 213.543 130.48 213.625 130.688 213.75C130.898 213.874 131.072 214.062 131.211 214.314C131.349 214.566 131.419 214.903 131.419 215.325V218.829H130.601V218.109H130.56C130.504 218.224 130.412 218.348 130.283 218.479C130.154 218.611 129.982 218.723 129.767 218.815C129.552 218.907 129.29 218.953 128.981 218.953ZM129.106 218.219C129.429 218.219 129.701 218.156 129.923 218.029C130.147 217.902 130.315 217.738 130.428 217.537C130.544 217.337 130.601 217.125 130.601 216.904V216.156C130.567 216.197 130.491 216.236 130.373 216.27C130.257 216.302 130.124 216.331 129.971 216.357C129.821 216.38 129.675 216.401 129.532 216.419C129.391 216.435 129.276 216.449 129.189 216.461C128.976 216.488 128.778 216.533 128.593 216.596C128.411 216.656 128.263 216.747 128.15 216.869C128.039 216.989 127.984 217.153 127.984 217.361C127.984 217.645 128.089 217.859 128.299 218.005C128.511 218.148 128.78 218.219 129.106 218.219Z" fill="#565656"/>
<path d="M123.369 218.94C122.925 218.94 122.534 218.828 122.195 218.604C121.855 218.378 121.59 218.059 121.398 217.649C121.207 217.235 121.111 216.747 121.111 216.184C121.111 215.625 121.207 215.141 121.398 214.73C121.59 214.319 121.857 214.002 122.198 213.778C122.54 213.554 122.935 213.442 123.382 213.442C123.729 213.442 124.002 213.499 124.203 213.615C124.406 213.728 124.561 213.857 124.667 214.003C124.775 214.146 124.86 214.263 124.92 214.356H124.989V211.738H125.806V218.829H125.017V218.012H124.92C124.86 218.109 124.774 218.231 124.663 218.379C124.553 218.525 124.395 218.655 124.189 218.77C123.984 218.883 123.71 218.94 123.369 218.94ZM123.479 218.206C123.807 218.206 124.084 218.121 124.31 217.95C124.537 217.777 124.708 217.538 124.826 217.233C124.944 216.926 125.003 216.572 125.003 216.17C125.003 215.773 124.945 215.426 124.83 215.128C124.714 214.828 124.543 214.595 124.317 214.429C124.091 214.26 123.812 214.176 123.479 214.176C123.133 214.176 122.845 214.265 122.614 214.442C122.385 214.618 122.213 214.857 122.098 215.159C121.985 215.459 121.928 215.796 121.928 216.17C121.928 216.549 121.986 216.893 122.101 217.202C122.219 217.509 122.392 217.754 122.621 217.936C122.851 218.116 123.138 218.206 123.479 218.206Z" fill="#565656"/>
<path d="M116.417 215.63V218.829H115.6V211.738H116.417V214.342H116.486C116.611 214.067 116.798 213.849 117.047 213.688C117.299 213.524 117.633 213.442 118.051 213.442C118.413 213.442 118.731 213.514 119.003 213.66C119.276 213.803 119.487 214.023 119.637 214.321C119.789 214.617 119.865 214.993 119.865 215.45V218.829H119.048V215.505C119.048 215.083 118.939 214.756 118.719 214.525C118.502 214.292 118.201 214.176 117.816 214.176C117.548 214.176 117.308 214.232 117.095 214.345C116.885 214.459 116.719 214.624 116.597 214.841C116.477 215.058 116.417 215.321 116.417 215.63Z" fill="#565656"/>
<path d="M112.314 218.94C111.816 218.94 111.386 218.822 111.026 218.586C110.666 218.351 110.389 218.027 110.195 217.614C110.001 217.2 109.904 216.728 109.904 216.197C109.904 215.657 110.004 215.181 110.202 214.767C110.403 214.352 110.682 214.028 111.04 213.795C111.4 213.559 111.82 213.441 112.3 213.441C112.674 213.441 113.011 213.511 113.311 213.649C113.611 213.788 113.857 213.982 114.049 214.231C114.24 214.48 114.359 214.771 114.405 215.103H113.588C113.526 214.861 113.387 214.646 113.173 214.459C112.96 214.27 112.674 214.175 112.314 214.175C111.996 214.175 111.716 214.259 111.476 214.425C111.238 214.589 111.053 214.821 110.919 215.121C110.787 215.418 110.721 215.768 110.721 216.17C110.721 216.581 110.786 216.938 110.915 217.243C111.047 217.548 111.232 217.784 111.469 217.953C111.709 218.121 111.991 218.206 112.314 218.206C112.526 218.206 112.719 218.169 112.892 218.095C113.065 218.021 113.212 217.915 113.332 217.776C113.452 217.638 113.537 217.472 113.588 217.278H114.405C114.359 217.592 114.245 217.874 114.063 218.126C113.883 218.375 113.644 218.574 113.346 218.722C113.05 218.867 112.706 218.94 112.314 218.94Z" fill="#565656"/>
<path d="M106.688 218.827V213.509H107.477V214.312H107.532C107.629 214.049 107.805 213.835 108.059 213.672C108.313 213.508 108.599 213.426 108.917 213.426C108.977 213.426 109.052 213.427 109.142 213.429C109.232 213.432 109.301 213.435 109.347 213.44V214.271C109.319 214.264 109.256 214.253 109.156 214.239C109.059 214.223 108.957 214.215 108.848 214.215C108.59 214.215 108.359 214.269 108.156 214.378C107.955 214.484 107.796 214.632 107.678 214.821C107.562 215.008 107.505 215.222 107.505 215.462V218.827H106.688Z" fill="#565656"/>
<path d="M102.759 218.953C102.422 218.953 102.116 218.89 101.841 218.763C101.567 218.634 101.349 218.448 101.187 218.206C101.025 217.961 100.945 217.665 100.945 217.319C100.945 217.015 101.005 216.768 101.125 216.578C101.245 216.387 101.405 216.237 101.606 216.128C101.807 216.02 102.028 215.939 102.271 215.886C102.515 215.83 102.761 215.787 103.008 215.754C103.331 215.713 103.593 215.682 103.794 215.661C103.997 215.638 104.145 215.6 104.237 215.547C104.332 215.493 104.379 215.401 104.379 215.27V215.242C104.379 214.9 104.286 214.635 104.099 214.445C103.914 214.256 103.634 214.162 103.257 214.162C102.867 214.162 102.562 214.247 102.34 214.418C102.118 214.589 101.963 214.771 101.872 214.965L101.097 214.688C101.235 214.365 101.42 214.113 101.651 213.933C101.884 213.751 102.138 213.624 102.413 213.552C102.69 213.478 102.962 213.441 103.23 213.441C103.401 213.441 103.597 213.462 103.818 213.504C104.042 213.543 104.258 213.625 104.466 213.75C104.676 213.874 104.85 214.062 104.989 214.314C105.127 214.566 105.196 214.903 105.196 215.325V218.829H104.379V218.109H104.338C104.282 218.224 104.19 218.348 104.061 218.479C103.931 218.611 103.759 218.723 103.545 218.815C103.33 218.907 103.068 218.953 102.759 218.953ZM102.884 218.219C103.207 218.219 103.479 218.156 103.701 218.029C103.925 217.902 104.093 217.738 104.206 217.537C104.322 217.337 104.379 217.125 104.379 216.904V216.156C104.345 216.197 104.268 216.236 104.151 216.27C104.035 216.302 103.901 216.331 103.749 216.357C103.599 216.38 103.452 216.401 103.309 216.419C103.169 216.435 103.054 216.449 102.967 216.461C102.754 216.488 102.556 216.533 102.371 216.596C102.189 216.656 102.041 216.747 101.928 216.869C101.817 216.989 101.762 217.153 101.762 217.361C101.762 217.645 101.867 217.859 102.077 218.005C102.289 218.148 102.558 218.219 102.884 218.219Z" fill="#565656"/>
<path d="M99.1041 218.883C98.9333 218.883 98.7867 218.822 98.6643 218.7C98.542 218.577 98.4808 218.431 98.4808 218.26C98.4808 218.089 98.542 217.943 98.6643 217.82C98.7867 217.698 98.9333 217.637 99.1041 217.637C99.2749 217.637 99.4214 217.698 99.5438 217.82C99.6661 217.943 99.7273 218.089 99.7273 218.26C99.7273 218.373 99.6984 218.477 99.6407 218.572C99.5853 218.666 99.5103 218.742 99.4157 218.8C99.3233 218.855 99.2195 218.883 99.1041 218.883Z" fill="#565656"/>
<path d="M92.5154 218.828L90.895 213.51H91.7537L92.9032 217.581H92.9586L94.0942 213.51H94.9668L96.0886 217.568H96.144L97.2935 213.51H98.1521L96.5317 218.828H95.7285L94.5651 214.742H94.482L93.3187 218.828H92.5154Z" fill="#565656"/>
<path d="M84.5935 218.828L82.9731 213.51H83.8318L84.9813 217.581H85.0367L86.1724 213.51H87.0449L88.1667 217.568H88.2221L89.3716 213.51H90.2302L88.6099 218.828H87.8066L86.6432 214.742H86.5601L85.3968 218.828H84.5935Z" fill="#565656"/>
<path d="M76.6717 218.828L75.0513 213.51H75.9099L77.0594 217.581H77.1148L78.2505 213.51H79.123L80.2448 217.568H80.3002L81.4497 213.51H82.3084L80.688 218.828H79.8847L78.7214 214.742H78.6383L77.4749 218.828H76.6717Z" fill="#565656"/>
<g filter="url(#filter5_d_431_2135)">
<rect x="149" y="32.7656" width="92.6316" height="97.7778" rx="10" fill="white"/>
</g>
<path d="M196.685 94.755C194.588 96.8523 192.485 98.9556 190.387 101.053C189.851 101.589 189.314 102.114 188.71 102.583C188.876 102.453 189.043 102.323 189.209 102.194C188.352 102.854 187.421 103.403 186.427 103.829C186.625 103.748 186.822 103.662 187.02 103.582C185.965 104.026 184.867 104.328 183.732 104.482C183.948 104.452 184.17 104.421 184.386 104.396C183.263 104.544 182.128 104.544 181.006 104.396C181.221 104.427 181.443 104.458 181.659 104.482C180.531 104.328 179.426 104.026 178.372 103.582C178.569 103.662 178.766 103.748 178.964 103.829C177.971 103.403 177.039 102.854 176.182 102.194C176.349 102.323 176.515 102.453 176.682 102.583C175.824 101.916 175.059 101.145 174.393 100.294C174.523 100.461 174.652 100.627 174.782 100.794C174.122 99.9364 173.573 99.005 173.147 98.0119C173.227 98.2093 173.314 98.4066 173.394 98.604C172.95 97.5493 172.648 96.4513 172.493 95.3164C172.524 95.5322 172.555 95.7543 172.58 95.9702C172.432 94.8476 172.432 93.7126 172.58 92.59C172.549 92.8059 172.518 93.0279 172.493 93.2438C172.648 92.115 172.95 91.0109 173.394 89.9561C173.314 90.1535 173.227 90.3509 173.147 90.5483C173.573 89.5552 174.122 88.6238 174.782 87.7664C174.652 87.933 174.523 88.0995 174.393 88.266C175.337 87.0571 176.509 86.0085 177.588 84.929C178.945 83.572 180.309 82.2088 181.666 80.8518C182.233 80.2843 182.801 79.723 183.436 79.2234C183.269 79.3529 183.103 79.4824 182.936 79.612C183.794 78.952 184.725 78.403 185.718 77.9774C185.521 78.0576 185.323 78.1439 185.126 78.2241C186.181 77.78 187.279 77.4778 188.414 77.3236C188.198 77.3544 187.976 77.3852 187.76 77.4099C188.882 77.2619 190.017 77.2619 191.14 77.4099C190.924 77.3791 190.702 77.3482 190.486 77.3236C191.615 77.4778 192.719 77.78 193.774 78.2241C193.576 78.1439 193.379 78.0576 193.182 77.9774C194.175 78.403 195.106 78.952 195.964 79.612C195.797 79.4824 195.63 79.3529 195.464 79.2234C195.89 79.5565 196.297 79.9142 196.679 80.2967C197.592 81.2096 199.27 81.2774 200.17 80.2967C201.077 79.3097 201.145 77.78 200.17 76.8054C197.425 74.0606 193.663 72.4691 189.783 72.3705C185.891 72.2656 182.097 73.746 179.217 76.3366C178.002 77.4284 176.885 78.6374 175.738 79.7909C174.498 81.0307 173.252 82.2705 172.012 83.5165C170.908 84.6268 169.927 85.9159 169.224 87.3161C168.299 89.1481 167.775 91.0603 167.583 93.0958C167.417 94.8907 167.62 96.7721 168.126 98.4992C168.706 100.479 169.681 102.243 170.951 103.853C173.209 106.715 176.694 108.732 180.302 109.238C181.295 109.38 182.282 109.479 183.288 109.429C184.293 109.38 185.311 109.244 186.298 109.01C188.074 108.59 189.826 107.813 191.313 106.752C192.929 105.599 194.267 104.155 195.667 102.755C197.08 101.343 198.493 99.9302 199.905 98.5177C199.998 98.4252 200.084 98.3388 200.176 98.2463C201.089 97.3334 201.157 95.6556 200.176 94.755C199.19 93.8483 197.66 93.7743 196.685 94.755Z" fill="#2F2F2F"/>
<path d="M193.947 68.5504C196.044 66.4532 198.147 64.3498 200.244 62.2526C200.781 61.716 201.318 61.1917 201.922 60.7229C201.756 60.8524 201.589 60.982 201.423 61.1115C202.28 60.4515 203.211 59.9025 204.204 59.4769C204.007 59.5571 203.81 59.6435 203.612 59.7237C204.667 59.2795 205.765 58.9773 206.9 58.8231C206.684 58.8539 206.462 58.8848 206.246 58.9094C207.369 58.7614 208.504 58.7614 209.626 58.9094C209.411 58.8786 209.188 58.8478 208.973 58.8231C210.101 58.9773 211.205 59.2795 212.26 59.7237C212.063 59.6435 211.865 59.5571 211.668 59.4769C212.661 59.9025 213.593 60.4515 214.45 61.1115C214.283 60.982 214.117 60.8524 213.95 60.7229C214.808 61.3891 215.573 62.1601 216.239 63.0113C216.109 62.8448 215.98 62.6782 215.85 62.5117C216.51 63.3691 217.059 64.3005 217.485 65.2936C217.405 65.0962 217.318 64.8988 217.238 64.7014C217.682 65.7562 217.984 66.8542 218.139 67.9891C218.108 67.7732 218.077 67.5512 218.052 67.3353C218.2 68.4579 218.2 69.5929 218.052 70.7155C218.083 70.4996 218.114 70.2775 218.139 70.0616C217.984 71.1904 217.682 72.2946 217.238 73.3493C217.318 73.1519 217.405 72.9546 217.485 72.7572C217.059 73.7503 216.51 74.6817 215.85 75.5391C215.98 75.3725 216.109 75.206 216.239 75.0394C215.295 76.2484 214.123 77.297 213.044 78.3765C211.687 79.7335 210.323 81.0967 208.966 82.4537C208.399 83.0211 207.831 83.5825 207.196 84.0821C207.363 83.9526 207.529 83.823 207.696 83.6935C206.838 84.3535 205.907 84.9025 204.914 85.3281C205.111 85.2479 205.309 85.1615 205.506 85.0813C204.451 85.5255 203.353 85.8277 202.218 85.9819C202.434 85.9511 202.656 85.9202 202.872 85.8956C201.75 86.0436 200.615 86.0436 199.492 85.8956C199.708 85.9264 199.93 85.9572 200.146 85.9819C199.017 85.8277 197.913 85.5255 196.858 85.0813C197.055 85.1615 197.253 85.2479 197.45 85.3281C196.457 84.9025 195.526 84.3535 194.668 83.6935C194.835 83.823 195.001 83.9526 195.168 84.0821C194.742 83.749 194.335 83.3912 193.953 83.0088C193.04 82.0959 191.362 82.0281 190.462 83.0088C189.555 83.9957 189.487 85.5255 190.462 86.5C193.207 89.2449 196.969 90.8363 200.849 90.935C204.741 91.0399 208.535 89.5595 211.415 86.9688C212.63 85.877 213.747 84.6681 214.894 83.5146C216.134 82.2748 217.38 81.035 218.62 79.789C219.724 78.6787 220.705 77.3895 221.408 75.9893C222.333 74.1574 222.857 72.2452 223.049 70.2097C223.215 68.4147 223.011 66.5334 222.506 64.8063C221.926 62.8263 220.951 61.0622 219.681 59.4523C217.423 56.5902 213.938 54.5732 210.33 54.0674C209.336 53.9255 208.35 53.8268 207.344 53.8762C206.339 53.9255 205.321 54.0612 204.334 54.2956C202.558 54.715 200.806 55.4922 199.319 56.5532C197.703 57.7066 196.365 59.15 194.964 60.5502C193.552 61.9627 192.139 63.3753 190.727 64.7878C190.634 64.8803 190.548 64.9667 190.455 65.0592C189.543 65.9721 189.475 67.6499 190.455 68.5504C191.442 69.4572 192.972 69.5312 193.947 68.5504Z" fill="#2F2F2F"/>
<path fill-rule="evenodd" clip-rule="evenodd" d="M178.469 61.2052C178.82 60.8535 179.391 60.8535 179.742 61.2052L184.889 66.3514C185.24 66.7031 185.24 67.2733 184.889 67.625C184.537 67.9767 183.967 67.9767 183.615 67.625L178.469 62.4788C178.117 62.1271 178.117 61.5569 178.469 61.2052Z" fill="#2F2F2F"/>
<path fill-rule="evenodd" clip-rule="evenodd" d="M186.825 59.6543C187.322 59.6543 187.725 60.0575 187.725 60.5549L187.725 64.6718C187.725 65.1692 187.322 65.5724 186.825 65.5724C186.327 65.5724 185.924 65.1692 185.924 64.6718L185.924 60.5549C185.924 60.0575 186.327 59.6543 186.825 59.6543Z" fill="#2F2F2F"/>
<path fill-rule="evenodd" clip-rule="evenodd" d="M176.147 69.5607C176.147 69.0634 176.55 68.6602 177.047 68.6602L181.164 68.6602C181.662 68.6602 182.065 69.0634 182.065 69.5607C182.065 70.0581 181.662 70.4613 181.164 70.4613L177.047 70.4613C176.55 70.4613 176.147 70.0581 176.147 69.5607Z" fill="#2F2F2F"/>
<path fill-rule="evenodd" clip-rule="evenodd" d="M213.965 102.103C213.613 102.455 213.043 102.455 212.691 102.103L207.545 96.9572C207.193 96.6055 207.193 96.0353 207.545 95.6836C207.897 95.3319 208.467 95.3319 208.818 95.6836L213.965 100.83C214.316 101.182 214.316 101.752 213.965 102.103Z" fill="#2F2F2F"/>
<path fill-rule="evenodd" clip-rule="evenodd" d="M205.608 103.654C205.111 103.654 204.708 103.251 204.708 102.754L204.708 98.6368C204.708 98.1394 205.111 97.7362 205.608 97.7362C206.106 97.7362 206.509 98.1394 206.509 98.6368L206.509 102.754C206.509 103.251 206.106 103.654 205.608 103.654Z" fill="#2F2F2F"/>
<path fill-rule="evenodd" clip-rule="evenodd" d="M216.287 93.7479C216.287 94.2452 215.884 94.6484 215.386 94.6484L211.269 94.6484C210.772 94.6484 210.369 94.2452 210.369 93.7479C210.369 93.2505 210.772 92.8473 211.269 92.8473L215.386 92.8473C215.884 92.8473 216.287 93.2505 216.287 93.7479Z" fill="#2F2F2F"/>
<g filter="url(#filter6_d_431_2135)">
<rect x="40" y="155.766" width="52.1071" height="55.002" rx="10" fill="white"/>
</g>
<path d="M50.631 169.963L50.266 169.621L50.631 169.963L52.928 167.51L52.928 181.042C52.928 181.687 53.4252 182.268 54.1069 182.268C54.7886 182.268 55.2859 181.687 55.2859 181.042L55.2859 167.51L57.5828 169.963L57.9478 169.621L57.5828 169.963C58.0456 170.457 58.8103 170.457 59.2731 169.963L58.9081 169.621L59.2731 169.963C59.7182 169.488 59.7182 168.729 59.2731 168.254L54.9521 163.638C54.4893 163.144 53.7245 163.144 53.2618 163.638L48.9408 168.254C48.4956 168.729 48.4956 169.488 48.9408 169.963C49.4035 170.457 50.1683 170.457 50.631 169.963Z" fill="#DD944C" stroke="#DD944C"/>
<path d="M62.1705 178.683L63.1995 177.564L63.1995 185.324C63.1995 185.805 63.5669 186.268 64.1069 186.268C64.6469 186.268 65.0143 185.805 65.0143 185.324L65.0143 177.564L66.0434 178.683C66.4005 179.072 66.9985 179.072 67.3557 178.683C67.6907 178.319 67.6907 177.744 67.3557 177.38L64.7631 174.559C64.4059 174.17 63.8079 174.17 63.4507 174.559L60.8581 177.38L61.2123 177.705L60.8581 177.38C60.5232 177.744 60.5232 178.319 60.8581 178.683L61.2233 178.348L60.8581 178.683C61.2153 179.072 61.8133 179.072 62.1705 178.683Z" fill="#DD944C" stroke="#DD944C"/>
<path d="M53.1069 200.768L75.6069 191.268L80.1069 169.268" stroke="#2F2F2F" stroke-width="2"/>
<circle cx="53.1069" cy="199.768" r="3" fill="white" stroke="#2F2F2F" stroke-width="2"/>
<circle cx="76.1069" cy="190.768" r="3" fill="white" stroke="#2F2F2F" stroke-width="2"/>
<circle cx="80.1069" cy="168.768" r="3" fill="white" stroke="#2F2F2F" stroke-width="2"/>
<defs>
<filter id="filter0_d_431_2135" x="26" y="39.7656" width="225" height="106" filterUnits="userSpaceOnUse" color-interpolation-filters="sRGB">
<feFlood flood-opacity="0" result="BackgroundImageFix"/>
<feColorMatrix in="SourceAlpha" type="matrix" values="0 0 0 0 0 0 0 0 0 0 0 0 0 0 0 0 0 0 127 0" result="hardAlpha"/>
<feOffset dy="8"/>
<feGaussianBlur stdDeviation="20"/>
<feComposite in2="hardAlpha" operator="out"/>
<feColorMatrix type="matrix" values="0 0 0 0 0 0 0 0 0 0 0 0 0 0 0 0 0 0 0.24 0"/>
<feBlend mode="normal" in2="BackgroundImageFix" result="effect1_dropShadow_431_2135"/>
<feBlend mode="normal" in="SourceGraphic" in2="effect1_dropShadow_431_2135" result="shape"/>
</filter>
<filter id="filter1_d_431_2135" x="26" y="72.7656" width="225" height="106" filterUnits="userSpaceOnUse" color-interpolation-filters="sRGB">
<feFlood flood-opacity="0" result="BackgroundImageFix"/>
<feColorMatrix in="SourceAlpha" type="matrix" values="0 0 0 0 0 0 0 0 0 0 0 0 0 0 0 0 0 0 127 0" result="hardAlpha"/>
<feOffset dy="8"/>
<feGaussianBlur stdDeviation="20"/>
<feComposite in2="hardAlpha" operator="out"/>
<feColorMatrix type="matrix" values="0 0 0 0 0 0 0 0 0 0 0 0 0 0 0 0 0 0 0.24 0"/>
<feBlend mode="normal" in2="BackgroundImageFix" result="effect1_dropShadow_431_2135"/>
<feBlend mode="normal" in="SourceGraphic" in2="effect1_dropShadow_431_2135" result="shape"/>
</filter>
<filter id="filter2_d_431_2135" x="26" y="104.766" width="225" height="106" filterUnits="userSpaceOnUse" color-interpolation-filters="sRGB">
<feFlood flood-opacity="0" result="BackgroundImageFix"/>
<feColorMatrix in="SourceAlpha" type="matrix" values="0 0 0 0 0 0 0 0 0 0 0 0 0 0 0 0 0 0 127 0" result="hardAlpha"/>
<feOffset dy="8"/>
<feGaussianBlur stdDeviation="20"/>
<feComposite in2="hardAlpha" operator="out"/>
<feColorMatrix type="matrix" values="0 0 0 0 0 0 0 0 0 0 0 0 0 0 0 0 0 0 0.24 0"/>
<feBlend mode="normal" in2="BackgroundImageFix" result="effect1_dropShadow_431_2135"/>
<feBlend mode="normal" in="SourceGraphic" in2="effect1_dropShadow_431_2135" result="shape"/>
</filter>
<filter id="filter3_d_431_2135" x="26" y="137.766" width="225" height="106" filterUnits="userSpaceOnUse" color-interpolation-filters="sRGB">
<feFlood flood-opacity="0" result="BackgroundImageFix"/>
<feColorMatrix in="SourceAlpha" type="matrix" values="0 0 0 0 0 0 0 0 0 0 0 0 0 0 0 0 0 0 127 0" result="hardAlpha"/>
<feOffset dy="8"/>
<feGaussianBlur stdDeviation="20"/>
<feComposite in2="hardAlpha" operator="out"/>
<feColorMatrix type="matrix" values="0 0 0 0 0 0 0 0 0 0 0 0 0 0 0 0 0 0 0.24 0"/>
<feBlend mode="normal" in2="BackgroundImageFix" result="effect1_dropShadow_431_2135"/>
<feBlend mode="normal" in="SourceGraphic" in2="effect1_dropShadow_431_2135" result="shape"/>
</filter>
<filter id="filter4_d_431_2135" x="26" y="169.766" width="225" height="106" filterUnits="userSpaceOnUse" color-interpolation-filters="sRGB">
<feFlood flood-opacity="0" result="BackgroundImageFix"/>
<feColorMatrix in="SourceAlpha" type="matrix" values="0 0 0 0 0 0 0 0 0 0 0 0 0 0 0 0 0 0 127 0" result="hardAlpha"/>
<feOffset dy="8"/>
<feGaussianBlur stdDeviation="20"/>
<feComposite in2="hardAlpha" operator="out"/>
<feColorMatrix type="matrix" values="0 0 0 0 0 0 0 0 0 0 0 0 0 0 0 0 0 0 0.24 0"/>
<feBlend mode="normal" in2="BackgroundImageFix" result="effect1_dropShadow_431_2135"/>
<feBlend mode="normal" in="SourceGraphic" in2="effect1_dropShadow_431_2135" result="shape"/>
</filter>
<filter id="filter5_d_431_2135" x="109" y="0.765625" width="172.632" height="177.777" filterUnits="userSpaceOnUse" color-interpolation-filters="sRGB">
<feFlood flood-opacity="0" result="BackgroundImageFix"/>
<feColorMatrix in="SourceAlpha" type="matrix" values="0 0 0 0 0 0 0 0 0 0 0 0 0 0 0 0 0 0 127 0" result="hardAlpha"/>
<feOffset dy="8"/>
<feGaussianBlur stdDeviation="20"/>
<feComposite in2="hardAlpha" operator="out"/>
<feColorMatrix type="matrix" values="0 0 0 0 0 0 0 0 0 0 0 0 0 0 0 0 0 0 0.24 0"/>
<feBlend mode="normal" in2="BackgroundImageFix" result="effect1_dropShadow_431_2135"/>
<feBlend mode="normal" in="SourceGraphic" in2="effect1_dropShadow_431_2135" result="shape"/>
</filter>
<filter id="filter6_d_431_2135" x="0" y="123.766" width="132.107" height="135.002" filterUnits="userSpaceOnUse" color-interpolation-filters="sRGB">
<feFlood flood-opacity="0" result="BackgroundImageFix"/>
<feColorMatrix in="SourceAlpha" type="matrix" values="0 0 0 0 0 0 0 0 0 0 0 0 0 0 0 0 0 0 127 0" result="hardAlpha"/>
<feOffset dy="8"/>
<feGaussianBlur stdDeviation="20"/>
<feComposite in2="hardAlpha" operator="out"/>
<feColorMatrix type="matrix" values="0 0 0 0 0 0 0 0 0 0 0 0 0 0 0 0 0 0 0.24 0"/>
<feBlend mode="normal" in2="BackgroundImageFix" result="effect1_dropShadow_431_2135"/>
<feBlend mode="normal" in="SourceGraphic" in2="effect1_dropShadow_431_2135" result="shape"/>
</filter>
</defs>
</svg>
