<svg width="134" height="24" viewBox="0 0 134 24" fill="none" xmlns="http://www.w3.org/2000/svg">
<g clip-path="url(#clip0_323_243)">
<path d="M124.816 11.6744C125.669 11.4799 126.561 11.5396 127.38 11.8459C128.2 12.1522 128.91 12.6917 129.424 13.3971L121.448 15.1924C121.723 13.5124 123.011 12.0804 124.816 11.6744ZM129.469 18.2811C128.838 19.1896 127.886 19.8275 126.802 20.0671C124.986 20.4764 123.173 19.7271 122.175 18.3164L130.175 16.5151L131.478 16.2218L133.971 15.6611C133.956 15.1283 133.886 14.5985 133.763 14.0798C132.749 9.79577 128.365 7.1251 123.973 8.11377C119.58 9.1031 116.841 13.3778 117.856 17.6611C118.869 21.9451 123.253 24.6164 127.645 23.6278C130.233 23.0444 132.247 21.3211 133.257 19.1271L129.469 18.2811ZM110.641 23.4111V12.0538H108.177V8.18443H110.641V2.85843H114.824V8.18443H117.966V12.0538H114.824V23.4111H110.641ZM102.649 23.4111H106.689V8.18443H102.649V23.4111ZM102.123 2.84243C102.123 1.4331 103.24 0.375766 104.686 0.375766C106.131 0.375766 107.215 1.4331 107.215 2.84243C107.215 4.25243 106.131 5.3411 104.686 5.3411C103.24 5.3411 102.123 4.25243 102.123 2.84243ZM101.242 8.2271C99.1768 8.33377 97.9588 8.6491 96.7199 9.54243V8.18443H92.6818V23.4111H96.7193V15.9444C96.7193 13.5951 97.2955 12.2584 101.242 12.1271V8.2271ZM78.7298 16.0371C78.8303 18.2591 80.7739 20.1224 83.1531 20.1224C85.5664 20.1224 87.5436 18.1611 87.5436 15.8411C87.5436 13.5531 85.5664 11.5924 83.1531 11.5924C80.7746 11.5924 78.8303 13.4878 78.7298 15.6778V16.0371ZM74.7902 23.4111V0.919099L78.8303 0.00976562V9.31777C80.0785 8.32443 81.5572 7.90777 83.1665 7.90777C87.7654 7.90777 91.4443 11.4318 91.4443 15.8531C91.4443 20.2418 87.766 23.8298 83.1665 23.8298C81.5572 23.8298 80.0785 23.4138 78.8303 22.4204V23.4118L74.7902 23.4111ZM66.1907 23.4111V11.9758H63.7271V8.18443H66.1907V2.85443L70.3742 1.91243V8.18443H73.5165V11.9758H70.3742V23.4111H66.1907ZM58.7872 23.4111V15.2758C58.7872 12.3284 57.1772 11.6878 55.5672 11.6878C53.9578 11.6878 52.3485 12.2964 52.3485 15.2118V23.4111H48.3084V8.18443H52.3485V9.3171C53.2349 8.67643 54.319 7.9071 56.4549 7.9071C59.8706 7.9071 62.8273 9.86177 62.8273 14.6351V23.4111H58.7872ZM38.0768 11.6744C39.8818 11.2678 41.6828 12.0044 42.6851 13.3971L34.7094 15.1924C34.9841 13.5124 36.2725 12.0804 38.0768 11.6744ZM42.73 18.2811C42.0992 19.1896 41.1467 19.8275 40.0634 20.0671C39.2045 20.2628 38.3066 20.201 37.483 19.8894C36.6593 19.5779 35.9469 19.0305 35.4357 18.3164L43.4368 16.5151L44.74 16.2218L47.2317 15.6611C47.2166 15.1283 47.147 14.5985 47.024 14.0798C46.0096 9.79577 41.6265 7.1251 37.234 8.11377C32.8415 9.1031 30.1025 13.3778 31.1169 17.6611C32.1313 21.9451 36.5137 24.6164 40.9069 23.6278C43.4951 23.0444 45.5085 21.3211 46.5182 19.1271L42.73 18.2811ZM21.5995 23.4111L15.325 8.18443H19.7269L23.702 18.5111L27.7093 8.18443H32.1112L25.8373 23.4111H21.5995ZM7.40356 11.6704C8.25692 11.4759 9.14894 11.5355 9.9685 11.8418C10.7881 12.1481 11.4989 12.6876 12.0125 13.3931L4.03614 15.1891C4.31084 13.5091 5.59925 12.0771 7.40356 11.6704ZM12.0567 18.2771C11.426 19.1859 10.4736 19.824 9.39011 20.0638C7.57441 20.4724 5.76139 19.7238 4.76242 18.3131L12.7636 16.5118L14.0667 16.2184L16.5584 15.6571C16.5433 15.1246 16.4737 14.5949 16.3507 14.0764C15.3364 9.79243 10.9539 7.1211 6.5607 8.10977C2.16818 9.0991 -0.569438 13.3744 0.443602 17.6584C1.45798 21.9424 5.84112 24.6131 10.2336 23.6244C12.8219 23.0418 14.8352 21.3178 15.8456 19.1244L12.0567 18.2771Z" fill="#9F9F9F"/>
</g>
<defs>
<clipPath id="clip0_323_243">
<rect width="134" height="24" fill="white"/>
</clipPath>
</defs>
</svg>
