<svg width="183" height="32" viewBox="0 0 183 32" fill="none" xmlns="http://www.w3.org/2000/svg">
<path fill-rule="evenodd" clip-rule="evenodd" d="M32.5196 6.25326L16.6697 22.3764L0.8198 6.25326L5.96646 0.605591H27.3729L32.5196 6.25326ZM15.1064 19.2269L2.89854 6.80858L11.2125 6.84366L15.1064 19.2269ZM16.6697 20.5544L12.3589 6.84535H20.861L20.9806 6.84488L16.6697 20.5544ZM18.233 19.2269L22.1279 6.8404L30.4415 6.80793L18.233 19.2269ZM23.0458 5.74371L30.5497 5.7144L26.9707 1.7871L23.0458 5.74371ZM17.3887 1.69869H25.5187L21.7023 5.54594L17.3887 1.69869ZM16.6697 2.52213L20.2914 5.75226H13.048L16.6697 2.52213ZM6.36867 1.7871L10.2966 5.74669L2.78919 5.71501L6.36867 1.7871ZM11.6371 5.54594L7.82067 1.69869H15.9507L11.6371 5.54594Z" fill="#A94449"/>
<path d="M31.3279 13.2673C31.1019 17.4126 27.4906 19.2093 23.9741 20.9588C22.0163 21.9328 20.0879 22.8923 18.7895 24.2342C17.0943 25.9926 16.9024 28.8023 17.0943 31.3945C17.7489 29.1609 20.1449 29.2636 22.7676 29.376C26.2964 29.5273 30.2355 29.6961 30.8961 24.2161C29.3932 26.2637 26.9789 26.2125 24.5645 26.1613C21.8917 26.1047 19.2188 26.048 17.782 28.8385C17.782 28.8385 17.862 26.7358 20.2609 25.5394C21.7248 24.8078 23.3688 24.7321 25.0325 24.6554C27.3674 24.5479 29.7413 24.4386 31.7117 22.5122C34.0946 20.2644 33.5029 15.2975 31.3279 13.2673Z" fill="#A94449"/>
<path d="M1.91656 13.2673C2.14261 17.4104 5.7527 19.2074 9.26558 20.956C11.2244 21.931 13.1529 22.891 14.4477 24.2342C16.1602 25.9926 16.3362 28.8023 16.1602 31.3945C15.4983 29.1608 13.0994 29.2636 10.4758 29.376C6.94613 29.5273 3.00965 29.696 2.34867 24.2161C3.85261 26.2637 6.2686 26.2125 8.68471 26.1614C11.3594 26.1047 14.0342 26.048 15.472 28.8386C15.472 28.8386 15.392 26.7358 12.9914 25.5394C11.5264 24.8078 9.88129 24.7321 8.21635 24.6554C5.87985 24.5479 3.50426 24.4386 1.53246 22.5122C-0.852142 20.2644 -0.243987 15.2975 1.91656 13.2673Z" fill="#A94449"/>
<g clip-path="url(#clip0)">
<path fill-rule="evenodd" clip-rule="evenodd" d="M156.63 6.40647C158.262 6.40201 159.863 6.84425 161.258 7.68477C162.681 8.52155 163.863 9.71003 164.688 11.135C165.521 12.5549 165.96 14.1696 165.96 15.8139C165.96 17.4581 165.521 19.0728 164.688 20.4927C163.863 21.9177 162.681 23.1062 161.258 23.9429C159.858 24.7793 158.257 25.2212 156.624 25.2212C154.992 25.2212 153.39 24.7793 151.99 23.9429C150.575 23.1052 149.401 21.9164 148.585 20.4927C147.76 19.0701 147.325 17.4565 147.325 15.8139C147.325 14.1713 147.76 12.5576 148.585 11.135C149.401 9.7113 150.575 8.52255 151.99 7.68477C153.389 6.84115 154.995 6.39876 156.63 6.40647ZM155.233 8.11915C153.786 8.36737 152.622 9.10373 151.741 10.3283C151.121 11.2233 150.712 12.2455 150.543 13.3193C150.344 14.5157 150.353 15.7373 150.568 16.9308C150.968 19.1317 151.866 20.8526 153.263 22.0937C154.66 23.3348 156.24 23.8064 158.002 23.5086C159.467 23.2603 160.648 22.5074 161.545 21.2498C162.178 20.3294 162.603 19.2837 162.792 18.1843C163.008 16.9809 163 15.7483 162.767 14.5479C162.418 12.5953 161.64 11.0233 160.435 9.83184C159.229 8.6404 157.828 8.04469 156.231 8.04469C155.897 8.0448 155.564 8.06968 155.233 8.11915Z" fill="#A94449"/>
<path fill-rule="evenodd" clip-rule="evenodd" d="M88.5526 15.4416C89.5968 15.8031 90.5292 16.4273 91.2593 17.2535C92.016 18.0975 92.3944 19.0241 92.3944 20.0336C92.3944 21.3574 91.8247 22.5116 90.6855 23.4962C89.5902 24.4642 88.1714 24.9908 86.7065 24.973H76.8527V6.67952H84.5861C85.3544 6.67999 86.1158 6.8231 86.8313 7.10149C87.5295 7.36282 88.1756 7.74519 88.7397 8.23087C89.2756 8.69704 89.716 9.26169 90.0369 9.89391C90.3546 10.5038 90.5214 11.1803 90.5234 11.8672C90.5234 12.9925 89.8664 14.1839 88.5526 15.4416ZM84.5861 15.2182C85.1653 15.2362 85.7319 15.0469 86.1827 14.6845C86.602 14.3479 86.9175 13.9006 87.0932 13.3938C87.2722 12.8619 87.3607 12.304 87.3552 11.7431C87.3552 10.7842 87.1265 9.96507 86.6691 9.28579C86.2118 8.6065 85.5174 8.26728 84.5861 8.26811H80.0957V15.2182H84.5861ZM80.0957 16.6826V23.5086H85.9332C86.8155 23.5086 87.5805 23.1693 88.2283 22.4909C88.8523 21.8481 89.2011 20.9893 89.2011 20.0956C89.2011 19.2019 88.8523 18.3431 88.2283 17.7003C87.5797 17.021 86.8147 16.6818 85.9332 16.6826H80.0957Z" fill="#A94449"/>
<path d="M71.4904 21.6718L71.69 21.5228L72.5132 22.8384L72.3386 22.9873C71.4947 23.6365 70.5624 24.163 69.5695 24.5511C68.254 25.0576 66.863 25.3428 65.4534 25.395H64.8547C63.7443 25.3985 62.6353 25.3197 61.5368 25.1592C60.6214 25.031 59.7167 24.836 58.8301 24.5759C58.0628 24.3397 57.3228 24.0235 56.6223 23.6327C56.03 23.312 55.4554 22.9598 54.901 22.5778C54.4098 22.221 53.9507 21.8223 53.5289 21.3863C53.0458 20.899 52.7007 20.5266 52.4937 20.2693C52.2866 20.012 52.0164 19.6686 51.6829 19.2392C51.1507 18.5608 50.4772 17.51 49.6622 16.0869L49.5874 15.938L47.2923 18.3953V25.0475H44.0742V6.80361H47.2674L47.2923 15.4664L55.375 6.82844L57.4206 6.80361H58.0692L51.7079 13.6792C52.6059 15.3174 53.4208 16.6992 54.1526 17.8244C54.6652 18.6117 55.2588 19.3437 55.9238 20.0087C57.1069 21.215 58.5242 22.1693 60.0895 22.8136C61.6548 23.4579 63.3355 23.7788 65.0293 23.7568C65.1627 23.7576 65.2961 23.7493 65.4284 23.7319C67.706 23.6657 69.7267 22.979 71.4904 21.6718Z" fill="#A94449"/>
<path d="M71.8397 6.72915H73.4113V14.672C73.4113 16.2937 72.796 17.6796 71.5653 18.8297C70.38 19.9621 68.7927 20.5823 67.1497 20.5548H66.4263C64.679 20.573 62.9882 19.9399 61.6865 18.78C60.3219 17.5969 59.64 16.2275 59.6408 14.672V6.72915H62.8589V14.672C62.8361 15.6806 63.1619 16.6663 63.782 17.4645C64.3973 18.2497 65.2787 18.6427 66.4263 18.6435H67.6487C68.1944 18.6525 68.7365 18.554 69.2438 18.3538C69.7511 18.1536 70.2137 17.8556 70.6048 17.4769C70.9984 17.1229 71.3119 16.6898 71.5248 16.2063C71.7377 15.7228 71.845 15.1999 71.8397 14.672V6.72915Z" fill="#A94449"/>
<path d="M98.5062 23.3348V15.3671H106.988L108.26 13.8033H98.5062V8.36737H107.113L108.659 6.7788H95.363V24.973H107.138L108.36 23.3348H98.5062Z" fill="#A94449"/>
<path fill-rule="evenodd" clip-rule="evenodd" d="M126.446 13.853C126.467 15.0754 126.166 16.282 125.573 17.3528C124.997 18.3728 124.14 19.208 123.103 19.7605L122.854 19.8846L126.222 24.973H122.33L119.96 21.2746C119.857 21.091 119.704 20.94 119.519 20.839C119.334 20.738 119.123 20.6911 118.912 20.7037C118.729 20.7199 118.571 20.7285 118.438 20.7285H114.372V24.973H111.179V6.80363H118.438C119.816 6.7953 121.176 7.11442 122.405 7.73444C123.585 8.31226 124.598 9.17924 125.349 10.2538C126.059 11.2473 126.442 12.4352 126.446 13.6544V13.853ZM123.228 13.6544C123.232 12.9698 123.135 12.2883 122.941 11.6314C122.755 11.0064 122.469 10.4155 122.093 9.88151C121.705 9.34007 121.186 8.90469 120.584 8.6156C119.916 8.29337 119.181 8.13184 118.438 8.144H114.372V19.3634H118.438C119.039 19.369 119.635 19.2638 120.197 19.0531C120.701 18.8681 121.163 18.5855 121.557 18.2216C121.931 17.8628 122.246 17.4483 122.492 16.9929C122.749 16.5211 122.938 16.0155 123.054 15.4912C123.17 14.9612 123.228 14.4203 123.228 13.8778V13.6544Z" fill="#A94449"/>
<path fill-rule="evenodd" clip-rule="evenodd" d="M144.046 17.2535C143.316 16.4273 142.384 15.8031 141.339 15.4416C142.653 14.1839 143.31 12.9925 143.31 11.8672C143.308 11.1803 143.141 10.5038 142.824 9.89391C142.503 9.26169 142.062 8.69704 141.526 8.23087C140.962 7.7457 140.316 7.36339 139.618 7.10149C138.903 6.8231 138.141 6.67999 137.373 6.67952H129.639V24.973H139.493C140.958 24.9907 142.377 24.4641 143.472 23.4962C144.611 22.5116 145.181 21.3574 145.181 20.0336C145.18 19.0241 144.802 18.0975 144.046 17.2535ZM138.969 14.6845C138.519 15.0467 137.952 15.236 137.373 15.2182H132.882V8.26811H137.373C138.304 8.26728 138.999 8.6065 139.456 9.28579C139.913 9.96507 140.142 10.7842 140.142 11.7431C140.147 12.304 140.059 12.8619 139.88 13.3938C139.704 13.9002 139.388 14.3474 138.969 14.6845ZM132.882 23.5086V16.6826H138.72C139.601 16.6818 140.366 17.021 141.015 17.7003C141.639 18.3431 141.988 19.2019 141.988 20.0956C141.988 20.9893 141.639 21.8481 141.015 22.4909C140.366 23.1693 139.601 23.5086 138.72 23.5086H132.882Z" fill="#A94449"/>
<path d="M182.924 24.9731L175.989 15.3174L183 6.72917H180.953L175.041 14.0019L169.827 6.72917H165.91L172.97 16.5585L166.135 24.9731H168.156L173.918 17.8741L179.007 24.9731H182.924Z" fill="#A94449"/>
</g>
<defs>
<clipPath id="clip0">
<rect width="138.926" height="19.2431" fill="white" transform="translate(44.0742 6.37842)"/>
</clipPath>
</defs>
</svg>
