<svg width="83" height="26" viewBox="0 0 83 26" fill="none" xmlns="http://www.w3.org/2000/svg">
<g clip-path="url(#clip0_323_225)">
<path d="M69.2634 8.02952C70.973 8.02952 72.3589 6.66009 72.3589 4.97081C72.3589 3.28154 70.973 1.91211 69.2634 1.91211C67.5538 1.91211 66.168 3.28154 66.168 4.97081C66.168 6.66009 67.5538 8.02952 69.2634 8.02952Z" fill="#9F9F9F"/>
<path d="M25.2407 17.972C26.7475 17.972 27.6247 16.8585 27.5596 15.7628C27.5432 15.3482 27.4912 14.9357 27.4043 14.5297C26.4804 10.5733 23.2236 7.64844 19.3472 7.64844C14.7536 7.64844 11.0278 11.7566 11.0278 16.8248C11.0278 21.8931 14.7527 26.0004 19.3472 26.0004C22.2255 26.0004 24.281 24.9647 25.7771 23.3413C25.9491 23.1557 26.0791 22.9359 26.1583 22.6966C26.2374 22.4573 26.264 22.2041 26.2361 21.9539C26.2083 21.7037 26.1266 21.4622 25.9967 21.2457C25.8668 21.0292 25.6916 20.8425 25.4829 20.6983C24.7604 20.2021 23.8457 20.3693 23.1735 20.9301C22.5319 21.4653 21.3062 22.5607 19.3472 22.5607C17.0074 22.5607 15.0557 20.5903 14.6082 17.9725L25.2407 17.972ZM19.3472 11.0904C21.453 11.0904 23.243 12.6865 23.9079 14.9138H14.7867C15.4508 12.6857 17.2405 11.0904 19.3472 11.0904Z" fill="#9F9F9F"/>
<path d="M11.2225 9.42665C11.2222 9.01988 11.076 8.62638 10.8099 8.31606C10.5437 8.00574 10.1749 7.79868 9.76886 7.73168C7.23337 7.3539 4.8633 8.2893 3.48464 9.98283V9.753C3.48477 9.52693 3.43984 9.30304 3.35241 9.09412C3.26498 8.8852 3.13676 8.69535 2.97507 8.53539C2.81339 8.37544 2.6214 8.24852 2.41008 8.16188C2.19875 8.07525 1.97222 8.03059 1.74343 8.03045C1.51464 8.03032 1.28806 8.07472 1.07663 8.16111C0.865207 8.24751 0.67307 8.37421 0.511195 8.53397C0.34932 8.69374 0.220877 8.88345 0.133198 9.09226C0.0455196 9.30108 0.000323322 9.52492 0.000189696 9.75099V23.8307C-0.00639158 24.2772 0.158487 24.7096 0.461616 25.0407C0.764745 25.3718 1.1836 25.5772 1.63383 25.6154C1.8711 25.6299 2.10887 25.5962 2.33248 25.5165C2.5561 25.4367 2.76082 25.3126 2.93403 25.1517C3.10723 24.9908 3.24527 24.7965 3.33961 24.5809C3.43396 24.3653 3.48262 24.1329 3.48261 23.898V16.6346C3.48261 13.4205 5.92884 10.7815 9.28566 11.14C9.39996 11.1525 9.5153 11.1525 9.6296 11.14C10.064 11.1035 10.4688 10.9071 10.7637 10.5899C11.0587 10.2726 11.2224 9.85748 11.2225 9.42665Z" fill="#9F9F9F"/>
<path d="M71.0044 11.2791C71.0044 10.8228 70.8209 10.3852 70.4944 10.0625C70.1679 9.73986 69.725 9.55859 69.2632 9.55859C68.8014 9.55859 68.3585 9.73986 68.032 10.0625C67.7054 10.3852 67.522 10.8228 67.522 11.2791V23.8969C67.522 24.3532 67.7054 24.7908 68.032 25.1135C68.3585 25.4362 68.8014 25.6174 69.2632 25.6174C69.725 25.6174 70.1679 25.4362 70.4944 25.1135C70.8209 24.7908 71.0044 24.3532 71.0044 23.8969V11.2791Z" fill="#9F9F9F"/>
<path d="M45.0794 1.72054C45.0794 1.26422 44.8959 0.826598 44.5694 0.503934C44.2429 0.181271 43.8 0 43.3382 0C42.8764 0 42.4335 0.181271 42.107 0.503934C41.7804 0.826598 41.597 1.26422 41.597 1.72054V9.40422C41.0146 8.82847 40.3198 8.37579 39.5548 8.07374C38.7898 7.77169 37.9706 7.62656 37.147 7.64719C32.5534 7.64719 28.8276 11.7553 28.8276 16.8236C28.8276 21.8918 32.5522 25.9991 37.147 25.9991C37.9769 26.0168 38.8018 25.8682 39.572 25.5625C40.3422 25.2567 41.0418 24.8 41.6287 24.22C41.7102 24.6404 41.9475 25.0157 42.2941 25.2726C42.6407 25.5294 43.0717 25.6493 43.503 25.6088C43.9343 25.5683 44.3349 25.3704 44.6264 25.0537C44.9179 24.737 45.0794 24.3243 45.0794 23.8962V1.72054ZM37.147 22.5589C34.4757 22.5589 32.3101 19.9909 32.3101 16.8236C32.3101 13.6563 34.4757 11.0891 37.147 11.0891C39.8183 11.0891 41.9837 13.6569 41.9837 16.8245C41.9837 19.992 39.8183 22.5589 37.147 22.5589Z" fill="#9F9F9F"/>
<path d="M63.2656 1.72054C63.2656 1.26422 63.0822 0.826598 62.7556 0.503934C62.4291 0.181271 61.9862 0 61.5244 0C61.0626 0 60.6197 0.181271 60.2932 0.503934C59.9667 0.826598 59.7832 1.26422 59.7832 1.72054V9.40422C59.2009 8.82842 58.506 8.37573 57.741 8.07367C56.976 7.77161 56.1568 7.62651 55.3332 7.64719C50.7396 7.64719 47.0142 11.7553 47.0142 16.8236C47.0142 21.8918 50.7388 25.9991 55.3332 25.9991C56.1631 26.0168 56.9881 25.8682 57.7583 25.5625C58.5286 25.2567 59.2283 24.8001 59.8152 24.22C59.8964 24.6407 60.1335 25.0163 60.4802 25.2734C60.8268 25.5305 61.2581 25.6505 61.6896 25.61C62.121 25.5696 62.5217 25.3714 62.8132 25.0545C63.1047 24.7375 63.266 24.3245 63.2656 23.8962V1.72054ZM55.3332 22.5589C52.662 22.5589 50.4966 19.9909 50.4966 16.8236C50.4966 13.6563 52.662 11.0891 55.3332 11.0891C58.0045 11.0891 60.1702 13.6569 60.1702 16.8245C60.1702 19.992 58.0048 22.5589 55.3332 22.5589Z" fill="#9F9F9F"/>
<path d="M79.8513 23.8971V11.0892H81.3992C81.7986 11.0942 82.1852 10.9499 82.4814 10.6852C82.7776 10.4204 82.9616 10.0548 82.9965 9.66165C83.0106 9.45269 82.9811 9.24309 82.9099 9.04584C82.8387 8.84859 82.7272 8.66789 82.5824 8.51494C82.4376 8.36199 82.2626 8.24004 82.0682 8.15666C81.8738 8.07327 81.6641 8.03022 81.4521 8.03017H79.8513V5.60205C79.8572 5.15798 79.6929 4.72816 79.3914 4.39878C79.0899 4.0694 78.6736 3.86482 78.2259 3.82607C77.988 3.81041 77.7494 3.8432 77.5248 3.92239C77.3003 4.00158 77.0946 4.12549 76.9205 4.28645C76.7464 4.4474 76.6076 4.64197 76.5128 4.85809C76.4179 5.07422 76.3689 5.30729 76.3689 5.54287V8.02816H74.9272C74.5277 8.02304 74.141 8.16735 73.8447 8.43216C73.5484 8.69697 73.3644 9.06269 73.3296 9.45596C73.3155 9.66492 73.345 9.8745 73.4162 10.0717C73.4875 10.269 73.5989 10.4497 73.7437 10.6026C73.8885 10.7555 74.0635 10.8774 74.258 10.9608C74.4524 11.0441 74.662 11.0871 74.874 11.0872H76.3689V23.8971C76.3689 24.3534 76.5524 24.7911 76.8789 25.1137C77.2055 25.4364 77.6483 25.6177 78.1101 25.6177C78.5719 25.6177 79.0148 25.4364 79.3414 25.1137C79.6679 24.7911 79.8513 24.3534 79.8513 23.8971Z" fill="#9F9F9F"/>
</g>
<defs>
<clipPath id="clip0_323_225">
<rect width="83" height="26" fill="white"/>
</clipPath>
</defs>
</svg>
