<svg width="102" height="29" viewBox="0 0 102 29" fill="none" xmlns="http://www.w3.org/2000/svg">
<path fill-rule="evenodd" clip-rule="evenodd" d="M18.1735 4.11328H2.61526C1.27682 4.11328 0.191296 5.19203 0.189473 6.52391V21.9831C0.186884 22.625 0.441304 23.2415 0.896507 23.6963C1.35171 24.1511 1.9702 24.4068 2.61526 24.4068H18.1735C18.818 24.4059 19.4357 24.1499 19.8902 23.6952C20.3447 23.2405 20.5986 22.6245 20.596 21.9831V6.52391C20.5942 5.1933 19.5107 4.11507 18.1735 4.11328ZM8.99026 18.7299C8.9894 18.9445 8.9027 19.1498 8.74933 19.3006C8.59596 19.4514 8.38855 19.5352 8.17295 19.5335H4.77295C4.32826 19.5317 3.96872 19.1724 3.96872 18.7299V8.66126C3.96872 8.21875 4.32826 7.85951 4.77295 7.85772H8.17295C8.61818 7.8595 8.97866 8.21822 8.98045 8.66126L8.99026 18.7299ZM16.8364 14.1071C16.8364 14.3219 16.75 14.5278 16.5964 14.6788C16.4429 14.8298 16.235 14.9133 16.0191 14.9107H12.6191C12.1739 14.9089 11.8134 14.5502 11.8116 14.1071V8.66126C11.8134 8.21822 12.1739 7.8595 12.6191 7.85772H16.0191C16.4638 7.85951 16.8233 8.21875 16.8233 8.66126L16.8364 14.1071Z" fill="#9F9F9F"/>
<path d="M42.4739 5.59961V9.52297H37.8022V24.4064H33.2972V9.52297H28.6255V5.59961H42.4739Z" fill="#9F9F9F"/>
<path d="M48.208 24.4076H44.043V9.76813H48.208V12.5724C48.9991 10.5977 50.2643 9.42329 52.5168 9.56644V13.903C49.5745 13.6752 48.208 14.3909 48.208 16.7365V24.4076Z" fill="#9F9F9F"/>
<path d="M75.2709 24.5206C72.5411 24.5206 70.8247 23.2194 70.8247 20.1418V4.11328H75.0191V19.5693C75.0191 20.4574 75.6076 20.7729 76.3268 20.7729C76.5343 20.7771 76.7418 20.7673 76.948 20.7437V24.3515C76.3994 24.4844 75.8351 24.5414 75.2709 24.5206Z" fill="#9F9F9F"/>
<path d="M84.0192 24.5206C81.2894 24.5206 79.5698 23.2194 79.5698 20.1418V4.11328H83.7642V19.5693C83.7642 20.4574 84.356 20.7729 85.0883 20.7729C85.2947 20.7772 85.5011 20.7674 85.7062 20.7437V24.3515C85.1545 24.4857 84.5867 24.5427 84.0192 24.5206Z" fill="#9F9F9F"/>
<path d="M87.7168 17.0806C87.7168 12.5586 90.3322 9.46484 94.8372 9.46484C99.3422 9.46484 101.902 12.5489 101.902 17.0806C101.902 21.6123 99.3128 24.7517 94.8372 24.7517C90.3616 24.7517 87.7168 21.5733 87.7168 17.0806ZM91.8001 17.0806C91.8001 19.283 92.7285 21.03 94.8372 21.03C96.9458 21.03 97.822 19.283 97.822 17.0806C97.822 14.8782 96.9229 13.1768 94.8372 13.1768C92.7514 13.1768 91.8001 14.8749 91.8001 17.0806Z" fill="#9F9F9F"/>
<path d="M58.1403 18.4033C59.3064 18.5308 60.4783 18.5993 61.6515 18.6083C64.8422 18.6083 67.5361 17.756 67.5361 14.6817C67.5361 11.6985 64.767 9.45703 61.4357 9.45703C56.9503 9.45703 54.0767 12.694 54.0767 17.2159C54.0767 21.9103 56.5547 24.6983 62.1549 24.6983C63.8163 24.7118 65.4658 24.4183 67.0195 23.8329V20.326C65.5811 20.7847 63.9628 21.2401 62.302 21.2401C60.0724 21.2401 58.5195 20.5114 58.1403 18.4033ZM61.3507 12.6517C62.5309 12.6517 63.479 13.4487 63.479 14.5385C63.479 15.9407 61.9915 16.3799 60.2784 16.3799C59.5493 16.3765 58.8215 16.3189 58.1011 16.2074C58.1555 15.5238 58.3526 14.859 58.6797 14.2555C59.2142 13.2815 60.2356 12.6707 61.3507 12.6582V12.6517Z" fill="#9F9F9F"/>
</svg>
