<svg width="574" height="334" viewBox="0 0 574 334" fill="none" xmlns="http://www.w3.org/2000/svg">
<g filter="url(#filter0_d_749_1802)">
<rect x="40" y="36" width="494" height="254" rx="20" fill="white"/>
</g>
<rect x="406" y="171" width="83" height="38" rx="10" fill="#F1F4FB"/>
<rect x="368" y="71" width="121" height="38" rx="10" fill="#F1F4FB"/>
<rect x="467" y="121" width="22" height="38" rx="10" fill="#F1F4FB"/>
<rect x="364" y="221" width="125" height="38" rx="10" fill="#F1F4FB"/>
<g filter="url(#filter1_d_749_1802)">
<rect x="92" y="71" width="263" height="38" rx="10" fill="white"/>
<rect x="92.25" y="71.25" width="262.5" height="37.5" rx="9.75" stroke="#D4D4D4" stroke-width="0.5"/>
</g>
<path d="M137.822 94L134.518 84.2H135.582L138.676 93.426H138.144L141.336 84.2H142.288L145.438 93.426H144.934L148.056 84.2H149.05L145.746 94H144.654L141.644 85.25H141.924L138.9 94H137.822ZM153.301 94.07C152.536 94.07 151.864 93.9113 151.285 93.594C150.706 93.2673 150.254 92.824 149.927 92.264C149.6 91.6947 149.437 91.046 149.437 90.318C149.437 89.59 149.591 88.946 149.899 88.386C150.216 87.826 150.646 87.3873 151.187 87.07C151.738 86.7433 152.354 86.58 153.035 86.58C153.726 86.58 154.337 86.7387 154.869 87.056C155.41 87.364 155.835 87.8027 156.143 88.372C156.451 88.932 156.605 89.5807 156.605 90.318C156.605 90.3647 156.6 90.416 156.591 90.472C156.591 90.5187 156.591 90.57 156.591 90.626H150.193V89.884H156.059L155.667 90.178C155.667 89.646 155.55 89.1747 155.317 88.764C155.093 88.344 154.785 88.0173 154.393 87.784C154.001 87.5507 153.548 87.434 153.035 87.434C152.531 87.434 152.078 87.5507 151.677 87.784C151.276 88.0173 150.963 88.344 150.739 88.764C150.515 89.184 150.403 89.6647 150.403 90.206V90.36C150.403 90.92 150.524 91.4147 150.767 91.844C151.019 92.264 151.364 92.5953 151.803 92.838C152.251 93.0713 152.76 93.188 153.329 93.188C153.777 93.188 154.192 93.1087 154.575 92.95C154.967 92.7913 155.303 92.5487 155.583 92.222L156.143 92.866C155.816 93.258 155.406 93.5567 154.911 93.762C154.426 93.9673 153.889 94.07 153.301 94.07ZM162.422 94.07C161.778 94.07 161.2 93.9253 160.686 93.636C160.173 93.3373 159.767 92.908 159.468 92.348C159.17 91.788 159.02 91.1113 159.02 90.318C159.02 89.5153 159.17 88.8387 159.468 88.288C159.776 87.728 160.187 87.3033 160.7 87.014C161.214 86.7247 161.788 86.58 162.422 86.58C163.122 86.58 163.748 86.7387 164.298 87.056C164.858 87.364 165.297 87.798 165.614 88.358C165.932 88.918 166.09 89.5713 166.09 90.318C166.09 91.0553 165.932 91.7087 165.614 92.278C165.297 92.838 164.858 93.2767 164.298 93.594C163.748 93.9113 163.122 94.07 162.422 94.07ZM158.628 94V83.612H159.622V88.82L159.482 90.304L159.58 91.788V94H158.628ZM162.352 93.188C162.875 93.188 163.342 93.0713 163.752 92.838C164.163 92.5953 164.49 92.2593 164.732 91.83C164.975 91.3913 165.096 90.8873 165.096 90.318C165.096 89.7393 164.975 89.2353 164.732 88.806C164.49 88.3767 164.163 88.0453 163.752 87.812C163.342 87.5693 162.875 87.448 162.352 87.448C161.83 87.448 161.358 87.5693 160.938 87.812C160.528 88.0453 160.201 88.3767 159.958 88.806C159.725 89.2353 159.608 89.7393 159.608 90.318C159.608 90.8873 159.725 91.3913 159.958 91.83C160.201 92.2593 160.528 92.5953 160.938 92.838C161.358 93.0713 161.83 93.188 162.352 93.188ZM170.09 94.07C169.484 94.07 168.91 93.986 168.368 93.818C167.827 93.6407 167.402 93.4213 167.094 93.16L167.542 92.376C167.841 92.6 168.224 92.796 168.69 92.964C169.157 93.1227 169.647 93.202 170.16 93.202C170.86 93.202 171.364 93.0947 171.672 92.88C171.98 92.656 172.134 92.362 172.134 91.998C172.134 91.7273 172.046 91.5173 171.868 91.368C171.7 91.2093 171.476 91.0927 171.196 91.018C170.916 90.934 170.604 90.864 170.258 90.808C169.913 90.752 169.568 90.6867 169.222 90.612C168.886 90.5373 168.578 90.43 168.298 90.29C168.018 90.1407 167.79 89.94 167.612 89.688C167.444 89.436 167.36 89.1 167.36 88.68C167.36 88.2787 167.472 87.9193 167.696 87.602C167.92 87.2847 168.247 87.0373 168.676 86.86C169.115 86.6733 169.647 86.58 170.272 86.58C170.748 86.58 171.224 86.6453 171.7 86.776C172.176 86.8973 172.568 87.0607 172.876 87.266L172.442 88.064C172.116 87.84 171.766 87.6813 171.392 87.588C171.019 87.4853 170.646 87.434 170.272 87.434C169.61 87.434 169.12 87.5507 168.802 87.784C168.494 88.008 168.34 88.2973 168.34 88.652C168.34 88.932 168.424 89.1513 168.592 89.31C168.77 89.4687 168.998 89.5947 169.278 89.688C169.568 89.772 169.88 89.842 170.216 89.898C170.562 89.954 170.902 90.024 171.238 90.108C171.584 90.1827 171.896 90.29 172.176 90.43C172.466 90.5607 172.694 90.752 172.862 91.004C173.04 91.2467 173.128 91.5687 173.128 91.97C173.128 92.3993 173.007 92.7727 172.764 93.09C172.531 93.398 172.186 93.6407 171.728 93.818C171.28 93.986 170.734 94.07 170.09 94.07ZM174.952 94V86.65H175.946V94H174.952ZM175.456 85.026C175.251 85.026 175.078 84.956 174.938 84.816C174.798 84.676 174.728 84.508 174.728 84.312C174.728 84.116 174.798 83.9527 174.938 83.822C175.078 83.682 175.251 83.612 175.456 83.612C175.662 83.612 175.834 83.6773 175.974 83.808C176.114 83.9387 176.184 84.102 176.184 84.298C176.184 84.5033 176.114 84.676 175.974 84.816C175.844 84.956 175.671 85.026 175.456 85.026ZM181.036 94.07C180.346 94.07 179.814 93.8833 179.44 93.51C179.067 93.1367 178.88 92.6093 178.88 91.928V85.026H179.874V91.872C179.874 92.3013 179.982 92.6327 180.196 92.866C180.42 93.0993 180.738 93.216 181.148 93.216C181.587 93.216 181.951 93.09 182.24 92.838L182.59 93.552C182.394 93.7293 182.156 93.86 181.876 93.944C181.606 94.028 181.326 94.07 181.036 94.07ZM177.564 87.476V86.65H182.114V87.476H177.564ZM187.262 94.07C186.497 94.07 185.825 93.9113 185.246 93.594C184.667 93.2673 184.215 92.824 183.888 92.264C183.561 91.6947 183.398 91.046 183.398 90.318C183.398 89.59 183.552 88.946 183.86 88.386C184.177 87.826 184.607 87.3873 185.148 87.07C185.699 86.7433 186.315 86.58 186.996 86.58C187.687 86.58 188.298 86.7387 188.83 87.056C189.371 87.364 189.796 87.8027 190.104 88.372C190.412 88.932 190.566 89.5807 190.566 90.318C190.566 90.3647 190.561 90.416 190.552 90.472C190.552 90.5187 190.552 90.57 190.552 90.626H184.154V89.884H190.02L189.628 90.178C189.628 89.646 189.511 89.1747 189.278 88.764C189.054 88.344 188.746 88.0173 188.354 87.784C187.962 87.5507 187.509 87.434 186.996 87.434C186.492 87.434 186.039 87.5507 185.638 87.784C185.237 88.0173 184.924 88.344 184.7 88.764C184.476 89.184 184.364 89.6647 184.364 90.206V90.36C184.364 90.92 184.485 91.4147 184.728 91.844C184.98 92.264 185.325 92.5953 185.764 92.838C186.212 93.0713 186.721 93.188 187.29 93.188C187.738 93.188 188.153 93.1087 188.536 92.95C188.928 92.7913 189.264 92.5487 189.544 92.222L190.104 92.866C189.777 93.258 189.367 93.5567 188.872 93.762C188.387 93.9673 187.85 94.07 187.262 94.07ZM200.411 94.084C199.161 94.084 198.176 93.7247 197.457 93.006C196.739 92.2873 196.379 91.2233 196.379 89.814V84.2H197.415V89.772C197.415 90.9293 197.677 91.7833 198.199 92.334C198.722 92.8847 199.459 93.16 200.411 93.16C201.373 93.16 202.115 92.8847 202.637 92.334C203.16 91.7833 203.421 90.9293 203.421 89.772V84.2H204.429V89.814C204.429 91.2233 204.07 92.2873 203.351 93.006C202.642 93.7247 201.662 94.084 200.411 94.084ZM207.551 94V84.2H211.219C212.05 84.2 212.764 84.3353 213.361 84.606C213.958 84.8673 214.416 85.25 214.733 85.754C215.06 86.2487 215.223 86.8507 215.223 87.56C215.223 88.2507 215.06 88.848 214.733 89.352C214.416 89.8467 213.958 90.2293 213.361 90.5C212.764 90.7613 212.05 90.892 211.219 90.892H208.125L208.587 90.416V94H207.551ZM214.243 94L211.723 90.444H212.843L215.377 94H214.243ZM208.587 90.5L208.125 90.01H211.191C212.171 90.01 212.913 89.7953 213.417 89.366C213.93 88.9367 214.187 88.3347 214.187 87.56C214.187 86.776 213.93 86.1693 213.417 85.74C212.913 85.3107 212.171 85.096 211.191 85.096H208.125L208.587 84.606V90.5ZM217.668 94V84.2H218.704V93.104H224.192V94H217.668Z" fill="#0442BF"/>
<path d="M112 100C117.523 100 122 95.5228 122 90C122 84.4772 117.523 80 112 80C106.477 80 102 84.4772 102 90C102 95.5228 106.477 100 112 100Z" fill="#CFDBF3" stroke="#0442BF" stroke-linecap="round" stroke-linejoin="round"/>
<path d="M112 80C109.432 82.6962 108 86.2767 108 90C108 93.7233 109.432 97.3038 112 100C114.568 97.3038 116 93.7233 116 90C116 86.2767 114.568 82.6962 112 80ZM102 90H122H102Z" fill="#CFDBF3"/>
<path d="M102 90H122M112 80C109.432 82.6962 108 86.2767 108 90C108 93.7233 109.432 97.3038 112 100C114.568 97.3038 116 93.7233 116 90C116 86.2767 114.568 82.6962 112 80Z" stroke="#0442BF" stroke-linecap="round" stroke-linejoin="round"/>
<g filter="url(#filter2_d_749_1802)">
<rect x="92" y="121" width="170" height="38" rx="10" fill="white"/>
<rect x="92.25" y="121.25" width="169.5" height="37.5" rx="9.75" stroke="#D4D4D4" stroke-width="0.5"/>
</g>
<path d="M135.596 144V134.2H136.632V144H135.596ZM143.363 136.58C143.96 136.58 144.483 136.697 144.931 136.93C145.388 137.154 145.743 137.499 145.995 137.966C146.256 138.433 146.387 139.021 146.387 139.73V144H145.393V139.828C145.393 139.053 145.197 138.47 144.805 138.078C144.422 137.677 143.881 137.476 143.181 137.476C142.658 137.476 142.201 137.583 141.809 137.798C141.426 138.003 141.127 138.307 140.913 138.708C140.707 139.1 140.605 139.576 140.605 140.136V144H139.611V136.65H140.563V138.666L140.409 138.288C140.642 137.756 141.015 137.341 141.529 137.042C142.042 136.734 142.653 136.58 143.363 136.58ZM151.998 144.07C151.298 144.07 150.668 143.911 150.108 143.594C149.557 143.277 149.123 142.838 148.806 142.278C148.488 141.709 148.33 141.055 148.33 140.318C148.33 139.571 148.488 138.918 148.806 138.358C149.123 137.798 149.557 137.364 150.108 137.056C150.668 136.739 151.298 136.58 151.998 136.58C152.642 136.58 153.216 136.725 153.72 137.014C154.233 137.303 154.639 137.728 154.938 138.288C155.246 138.839 155.4 139.515 155.4 140.318C155.4 141.111 155.25 141.788 154.952 142.348C154.653 142.908 154.247 143.337 153.734 143.636C153.23 143.925 152.651 144.07 151.998 144.07ZM152.068 143.188C152.59 143.188 153.057 143.071 153.468 142.838C153.888 142.595 154.214 142.259 154.448 141.83C154.69 141.391 154.812 140.887 154.812 140.318C154.812 139.739 154.69 139.235 154.448 138.806C154.214 138.377 153.888 138.045 153.468 137.812C153.057 137.569 152.59 137.448 152.068 137.448C151.554 137.448 151.092 137.569 150.682 137.812C150.271 138.045 149.944 138.377 149.702 138.806C149.459 139.235 149.338 139.739 149.338 140.318C149.338 140.887 149.459 141.391 149.702 141.83C149.944 142.259 150.271 142.595 150.682 142.838C151.092 143.071 151.554 143.188 152.068 143.188ZM154.84 144V141.788L154.938 140.304L154.798 138.82V133.612H155.792V144H154.84ZM161.598 144.07C160.972 144.07 160.426 143.953 159.96 143.72C159.493 143.487 159.129 143.137 158.868 142.67C158.616 142.203 158.49 141.62 158.49 140.92V136.65H159.484V140.808C159.484 141.592 159.675 142.185 160.058 142.586C160.45 142.978 160.996 143.174 161.696 143.174C162.209 143.174 162.652 143.071 163.026 142.866C163.408 142.651 163.698 142.343 163.894 141.942C164.099 141.541 164.202 141.06 164.202 140.5V136.65H165.196V144H164.244V141.984L164.398 142.348C164.164 142.889 163.8 143.314 163.306 143.622C162.82 143.921 162.251 144.07 161.598 144.07ZM169.94 144.07C169.333 144.07 168.759 143.986 168.218 143.818C167.677 143.641 167.252 143.421 166.944 143.16L167.392 142.376C167.691 142.6 168.073 142.796 168.54 142.964C169.007 143.123 169.497 143.202 170.01 143.202C170.71 143.202 171.214 143.095 171.522 142.88C171.83 142.656 171.984 142.362 171.984 141.998C171.984 141.727 171.895 141.517 171.718 141.368C171.55 141.209 171.326 141.093 171.046 141.018C170.766 140.934 170.453 140.864 170.108 140.808C169.763 140.752 169.417 140.687 169.072 140.612C168.736 140.537 168.428 140.43 168.148 140.29C167.868 140.141 167.639 139.94 167.462 139.688C167.294 139.436 167.21 139.1 167.21 138.68C167.21 138.279 167.322 137.919 167.546 137.602C167.77 137.285 168.097 137.037 168.526 136.86C168.965 136.673 169.497 136.58 170.122 136.58C170.598 136.58 171.074 136.645 171.55 136.776C172.026 136.897 172.418 137.061 172.726 137.266L172.292 138.064C171.965 137.84 171.615 137.681 171.242 137.588C170.869 137.485 170.495 137.434 170.122 137.434C169.459 137.434 168.969 137.551 168.652 137.784C168.344 138.008 168.19 138.297 168.19 138.652C168.19 138.932 168.274 139.151 168.442 139.31C168.619 139.469 168.848 139.595 169.128 139.688C169.417 139.772 169.73 139.842 170.066 139.898C170.411 139.954 170.752 140.024 171.088 140.108C171.433 140.183 171.746 140.29 172.026 140.43C172.315 140.561 172.544 140.752 172.712 141.004C172.889 141.247 172.978 141.569 172.978 141.97C172.978 142.399 172.857 142.773 172.614 143.09C172.381 143.398 172.035 143.641 171.578 143.818C171.13 143.986 170.584 144.07 169.94 144.07ZM177.126 144.07C176.435 144.07 175.903 143.883 175.53 143.51C175.157 143.137 174.97 142.609 174.97 141.928V135.026H175.964V141.872C175.964 142.301 176.071 142.633 176.286 142.866C176.51 143.099 176.827 143.216 177.238 143.216C177.677 143.216 178.041 143.09 178.33 142.838L178.68 143.552C178.484 143.729 178.246 143.86 177.966 143.944C177.695 144.028 177.415 144.07 177.126 144.07ZM173.654 137.476V136.65H178.204V137.476H173.654ZM180.49 144V136.65H181.442V138.652L181.344 138.302C181.549 137.742 181.894 137.317 182.38 137.028C182.865 136.729 183.467 136.58 184.186 136.58V137.546C184.148 137.546 184.111 137.546 184.074 137.546C184.036 137.537 183.999 137.532 183.962 137.532C183.187 137.532 182.58 137.77 182.142 138.246C181.703 138.713 181.484 139.38 181.484 140.248V144H180.49ZM186.37 146.786C186.024 146.786 185.693 146.73 185.376 146.618C185.068 146.506 184.802 146.338 184.578 146.114L185.04 145.372C185.226 145.549 185.427 145.685 185.642 145.778C185.866 145.881 186.113 145.932 186.384 145.932C186.71 145.932 186.99 145.839 187.224 145.652C187.466 145.475 187.695 145.157 187.91 144.7L188.386 143.622L188.498 143.468L191.522 136.65H192.502L188.82 144.882C188.614 145.358 188.386 145.736 188.134 146.016C187.891 146.296 187.625 146.492 187.336 146.604C187.046 146.725 186.724 146.786 186.37 146.786ZM188.33 144.21L184.942 136.65H185.978L188.974 143.398L188.33 144.21Z" fill="#B541BD"/>
<g filter="url(#filter3_d_749_1802)">
<rect x="280" y="121" width="176" height="38" rx="10" fill="white"/>
<rect x="280.25" y="121.25" width="175.5" height="37.5" rx="9.75" stroke="#D4D4D4" stroke-width="0.5"/>
</g>
<path d="M325.5 144V135.096H322.056V134.2H329.98V135.096H326.536V144H325.5ZM335.621 144V142.376L335.579 142.11V139.394C335.579 138.769 335.402 138.288 335.047 137.952C334.702 137.616 334.184 137.448 333.493 137.448C333.017 137.448 332.564 137.527 332.135 137.686C331.706 137.845 331.342 138.055 331.043 138.316L330.595 137.574C330.968 137.257 331.416 137.014 331.939 136.846C332.462 136.669 333.012 136.58 333.591 136.58C334.543 136.58 335.276 136.818 335.789 137.294C336.312 137.761 336.573 138.475 336.573 139.436V144H335.621ZM333.087 144.07C332.536 144.07 332.056 143.981 331.645 143.804C331.244 143.617 330.936 143.365 330.721 143.048C330.506 142.721 330.399 142.348 330.399 141.928C330.399 141.545 330.488 141.2 330.665 140.892C330.852 140.575 331.15 140.323 331.561 140.136C331.981 139.94 332.541 139.842 333.241 139.842H335.775V140.584H333.269C332.56 140.584 332.065 140.71 331.785 140.962C331.514 141.214 331.379 141.527 331.379 141.9C331.379 142.32 331.542 142.656 331.869 142.908C332.196 143.16 332.653 143.286 333.241 143.286C333.801 143.286 334.282 143.16 334.683 142.908C335.094 142.647 335.392 142.273 335.579 141.788L335.803 142.474C335.616 142.959 335.29 143.347 334.823 143.636C334.366 143.925 333.787 144.07 333.087 144.07ZM339.273 144V136.65H340.225V138.652L340.127 138.302C340.332 137.742 340.677 137.317 341.163 137.028C341.648 136.729 342.25 136.58 342.969 136.58V137.546C342.931 137.546 342.894 137.546 342.857 137.546C342.819 137.537 342.782 137.532 342.745 137.532C341.97 137.532 341.363 137.77 340.925 138.246C340.486 138.713 340.267 139.38 340.267 140.248V144H339.273ZM347.85 146.786C347.178 146.786 346.534 146.688 345.918 146.492C345.302 146.296 344.803 146.016 344.42 145.652L344.924 144.896C345.269 145.204 345.694 145.447 346.198 145.624C346.711 145.811 347.253 145.904 347.822 145.904C348.755 145.904 349.441 145.685 349.88 145.246C350.319 144.817 350.538 144.145 350.538 143.23V141.396L350.678 140.136L350.58 138.876V136.65H351.532V143.104C351.532 144.373 351.219 145.302 350.594 145.89C349.978 146.487 349.063 146.786 347.85 146.786ZM347.668 143.72C346.968 143.72 346.338 143.571 345.778 143.272C345.218 142.964 344.775 142.539 344.448 141.998C344.131 141.457 343.972 140.836 343.972 140.136C343.972 139.436 344.131 138.82 344.448 138.288C344.775 137.747 345.218 137.327 345.778 137.028C346.338 136.729 346.968 136.58 347.668 136.58C348.321 136.58 348.909 136.715 349.432 136.986C349.955 137.257 350.37 137.658 350.678 138.19C350.986 138.722 351.14 139.371 351.14 140.136C351.14 140.901 350.986 141.55 350.678 142.082C350.37 142.614 349.955 143.02 349.432 143.3C348.909 143.58 348.321 143.72 347.668 143.72ZM347.766 142.838C348.307 142.838 348.788 142.726 349.208 142.502C349.628 142.269 349.959 141.951 350.202 141.55C350.445 141.139 350.566 140.668 350.566 140.136C350.566 139.604 350.445 139.137 350.202 138.736C349.959 138.335 349.628 138.022 349.208 137.798C348.788 137.565 348.307 137.448 347.766 137.448C347.234 137.448 346.753 137.565 346.324 137.798C345.904 138.022 345.573 138.335 345.33 138.736C345.097 139.137 344.98 139.604 344.98 140.136C344.98 140.668 345.097 141.139 345.33 141.55C345.573 141.951 345.904 142.269 346.324 142.502C346.753 142.726 347.234 142.838 347.766 142.838ZM357.42 144.07C356.655 144.07 355.983 143.911 355.404 143.594C354.825 143.267 354.373 142.824 354.046 142.264C353.719 141.695 353.556 141.046 353.556 140.318C353.556 139.59 353.71 138.946 354.018 138.386C354.335 137.826 354.765 137.387 355.306 137.07C355.857 136.743 356.473 136.58 357.154 136.58C357.845 136.58 358.456 136.739 358.988 137.056C359.529 137.364 359.954 137.803 360.262 138.372C360.57 138.932 360.724 139.581 360.724 140.318C360.724 140.365 360.719 140.416 360.71 140.472C360.71 140.519 360.71 140.57 360.71 140.626H354.312V139.884H360.178L359.786 140.178C359.786 139.646 359.669 139.175 359.436 138.764C359.212 138.344 358.904 138.017 358.512 137.784C358.12 137.551 357.667 137.434 357.154 137.434C356.65 137.434 356.197 137.551 355.796 137.784C355.395 138.017 355.082 138.344 354.858 138.764C354.634 139.184 354.522 139.665 354.522 140.206V140.36C354.522 140.92 354.643 141.415 354.886 141.844C355.138 142.264 355.483 142.595 355.922 142.838C356.37 143.071 356.879 143.188 357.448 143.188C357.896 143.188 358.311 143.109 358.694 142.95C359.086 142.791 359.422 142.549 359.702 142.222L360.262 142.866C359.935 143.258 359.525 143.557 359.03 143.762C358.545 143.967 358.008 144.07 357.42 144.07ZM365.071 144.07C364.381 144.07 363.849 143.883 363.475 143.51C363.102 143.137 362.915 142.609 362.915 141.928V135.026H363.909V141.872C363.909 142.301 364.017 142.633 364.231 142.866C364.455 143.099 364.773 143.216 365.183 143.216C365.622 143.216 365.986 143.09 366.275 142.838L366.625 143.552C366.429 143.729 366.191 143.86 365.911 143.944C365.641 144.028 365.361 144.07 365.071 144.07ZM361.599 137.476V136.65H366.149V137.476H361.599ZM376.565 144.084C375.828 144.084 375.146 143.963 374.521 143.72C373.896 143.468 373.354 143.118 372.897 142.67C372.44 142.222 372.08 141.695 371.819 141.088C371.567 140.481 371.441 139.819 371.441 139.1C371.441 138.381 371.567 137.719 371.819 137.112C372.08 136.505 372.44 135.978 372.897 135.53C373.364 135.082 373.91 134.737 374.535 134.494C375.16 134.242 375.842 134.116 376.579 134.116C377.288 134.116 377.956 134.237 378.581 134.48C379.206 134.713 379.734 135.068 380.163 135.544L379.505 136.202C379.104 135.791 378.66 135.497 378.175 135.32C377.69 135.133 377.167 135.04 376.607 135.04C376.019 135.04 375.473 135.143 374.969 135.348C374.465 135.544 374.026 135.829 373.653 136.202C373.28 136.566 372.986 136.995 372.771 137.49C372.566 137.975 372.463 138.512 372.463 139.1C372.463 139.688 372.566 140.229 372.771 140.724C372.986 141.209 373.28 141.639 373.653 142.012C374.026 142.376 374.465 142.661 374.969 142.866C375.473 143.062 376.019 143.16 376.607 143.16C377.167 143.16 377.69 143.067 378.175 142.88C378.66 142.693 379.104 142.395 379.505 141.984L380.163 142.642C379.734 143.118 379.206 143.477 378.581 143.72C377.956 143.963 377.284 144.084 376.565 144.084ZM382.161 144V136.65H383.155V144H382.161ZM382.665 135.026C382.46 135.026 382.287 134.956 382.147 134.816C382.007 134.676 381.937 134.508 381.937 134.312C381.937 134.116 382.007 133.953 382.147 133.822C382.287 133.682 382.46 133.612 382.665 133.612C382.871 133.612 383.043 133.677 383.183 133.808C383.323 133.939 383.393 134.102 383.393 134.298C383.393 134.503 383.323 134.676 383.183 134.816C383.053 134.956 382.88 135.026 382.665 135.026ZM388.245 144.07C387.554 144.07 387.022 143.883 386.649 143.51C386.276 143.137 386.089 142.609 386.089 141.928V135.026H387.083V141.872C387.083 142.301 387.19 142.633 387.405 142.866C387.629 143.099 387.946 143.216 388.357 143.216C388.796 143.216 389.16 143.09 389.449 142.838L389.799 143.552C389.603 143.729 389.365 143.86 389.085 143.944C388.814 144.028 388.534 144.07 388.245 144.07ZM384.773 137.476V136.65H389.323V137.476H384.773ZM391.528 146.786C391.183 146.786 390.851 146.73 390.534 146.618C390.226 146.506 389.96 146.338 389.736 146.114L390.198 145.372C390.385 145.549 390.585 145.685 390.8 145.778C391.024 145.881 391.271 145.932 391.542 145.932C391.869 145.932 392.149 145.839 392.382 145.652C392.625 145.475 392.853 145.157 393.068 144.7L393.544 143.622L393.656 143.468L396.68 136.65H397.66L393.978 144.882C393.773 145.358 393.544 145.736 393.292 146.016C393.049 146.296 392.783 146.492 392.494 146.604C392.205 146.725 391.883 146.786 391.528 146.786ZM393.488 144.21L390.1 136.65H391.136L394.132 143.398L393.488 144.21Z" fill="#DF5F4E"/>
<path d="M293 139C293 142.2 297.667 147 300 149C303.667 146.5 307.5 142 307 136C303 130.5 300.5 131 298.5 131C296.5 131 293 135 293 139Z" fill="#CC2D18" fill-opacity="0.1"/>
<path fill-rule="evenodd" clip-rule="evenodd" d="M296.5 138C296.5 136.07 298.07 134.5 300 134.5C301.93 134.5 303.5 136.07 303.5 138C303.5 139.93 301.93 141.5 300 141.5C298.07 141.5 296.5 139.93 296.5 138ZM300 135.5C298.621 135.5 297.5 136.621 297.5 138C297.5 139.379 298.621 140.5 300 140.5C301.379 140.5 302.5 139.379 302.5 138C302.5 136.621 301.379 135.5 300 135.5Z" fill="#CC2C17"/>
<path fill-rule="evenodd" clip-rule="evenodd" d="M292.5 137.995C292.5 133.865 295.865 130.5 300 130.5C304.135 130.5 307.5 133.865 307.5 138L307.5 138.002C307.514 141.042 305.828 143.827 304.035 145.916C302.252 147.994 300.426 149.311 300.291 149.406L300.289 149.407C300.205 149.467 300.104 149.5 300 149.5C299.896 149.5 299.795 149.467 299.711 149.407L299.709 149.406C299.574 149.311 297.748 147.994 295.965 145.915C294.172 143.826 292.486 141.04 292.5 137.997H292.5V137.995ZM300 131.5C296.415 131.5 293.501 134.414 293.5 137.999C293.489 140.379 294.661 142.594 295.99 144.345C297.325 146.104 298.864 147.456 299.685 148.123L300 148.379L300.315 148.123C301.137 147.457 302.676 146.105 304.011 144.346C305.339 142.596 306.511 140.383 306.5 138.004C306.499 134.414 303.585 131.5 300 131.5Z" fill="#CC2C17"/>
<g filter="url(#filter4_d_749_1802)">
<rect x="92" y="171" width="302" height="38" rx="10" fill="white"/>
<rect x="92.25" y="171.25" width="301.5" height="37.5" rx="9.75" stroke="#D4D4D4" stroke-width="0.5"/>
</g>
<path d="M137.5 194V185.096H134.056V184.2H141.98V185.096H138.536V194H137.5ZM147.621 194V192.376L147.579 192.11V189.394C147.579 188.769 147.402 188.288 147.047 187.952C146.702 187.616 146.184 187.448 145.493 187.448C145.017 187.448 144.564 187.527 144.135 187.686C143.706 187.845 143.342 188.055 143.043 188.316L142.595 187.574C142.968 187.257 143.416 187.014 143.939 186.846C144.462 186.669 145.012 186.58 145.591 186.58C146.543 186.58 147.276 186.818 147.789 187.294C148.312 187.761 148.573 188.475 148.573 189.436V194H147.621ZM145.087 194.07C144.536 194.07 144.056 193.981 143.645 193.804C143.244 193.617 142.936 193.365 142.721 193.048C142.506 192.721 142.399 192.348 142.399 191.928C142.399 191.545 142.488 191.2 142.665 190.892C142.852 190.575 143.15 190.323 143.561 190.136C143.981 189.94 144.541 189.842 145.241 189.842H147.775V190.584H145.269C144.56 190.584 144.065 190.71 143.785 190.962C143.514 191.214 143.379 191.527 143.379 191.9C143.379 192.32 143.542 192.656 143.869 192.908C144.196 193.16 144.653 193.286 145.241 193.286C145.801 193.286 146.282 193.16 146.683 192.908C147.094 192.647 147.392 192.273 147.579 191.788L147.803 192.474C147.616 192.959 147.29 193.347 146.823 193.636C146.366 193.925 145.787 194.07 145.087 194.07ZM151.273 194V186.65H152.225V188.652L152.127 188.302C152.332 187.742 152.677 187.317 153.163 187.028C153.648 186.729 154.25 186.58 154.969 186.58V187.546C154.931 187.546 154.894 187.546 154.857 187.546C154.819 187.537 154.782 187.532 154.745 187.532C153.97 187.532 153.363 187.77 152.925 188.246C152.486 188.713 152.267 189.38 152.267 190.248V194H151.273ZM159.85 196.786C159.178 196.786 158.534 196.688 157.918 196.492C157.302 196.296 156.803 196.016 156.42 195.652L156.924 194.896C157.269 195.204 157.694 195.447 158.198 195.624C158.711 195.811 159.253 195.904 159.822 195.904C160.755 195.904 161.441 195.685 161.88 195.246C162.319 194.817 162.538 194.145 162.538 193.23V191.396L162.678 190.136L162.58 188.876V186.65H163.532V193.104C163.532 194.373 163.219 195.302 162.594 195.89C161.978 196.487 161.063 196.786 159.85 196.786ZM159.668 193.72C158.968 193.72 158.338 193.571 157.778 193.272C157.218 192.964 156.775 192.539 156.448 191.998C156.131 191.457 155.972 190.836 155.972 190.136C155.972 189.436 156.131 188.82 156.448 188.288C156.775 187.747 157.218 187.327 157.778 187.028C158.338 186.729 158.968 186.58 159.668 186.58C160.321 186.58 160.909 186.715 161.432 186.986C161.955 187.257 162.37 187.658 162.678 188.19C162.986 188.722 163.14 189.371 163.14 190.136C163.14 190.901 162.986 191.55 162.678 192.082C162.37 192.614 161.955 193.02 161.432 193.3C160.909 193.58 160.321 193.72 159.668 193.72ZM159.766 192.838C160.307 192.838 160.788 192.726 161.208 192.502C161.628 192.269 161.959 191.951 162.202 191.55C162.445 191.139 162.566 190.668 162.566 190.136C162.566 189.604 162.445 189.137 162.202 188.736C161.959 188.335 161.628 188.022 161.208 187.798C160.788 187.565 160.307 187.448 159.766 187.448C159.234 187.448 158.753 187.565 158.324 187.798C157.904 188.022 157.573 188.335 157.33 188.736C157.097 189.137 156.98 189.604 156.98 190.136C156.98 190.668 157.097 191.139 157.33 191.55C157.573 191.951 157.904 192.269 158.324 192.502C158.753 192.726 159.234 192.838 159.766 192.838ZM169.42 194.07C168.655 194.07 167.983 193.911 167.404 193.594C166.825 193.267 166.373 192.824 166.046 192.264C165.719 191.695 165.556 191.046 165.556 190.318C165.556 189.59 165.71 188.946 166.018 188.386C166.335 187.826 166.765 187.387 167.306 187.07C167.857 186.743 168.473 186.58 169.154 186.58C169.845 186.58 170.456 186.739 170.988 187.056C171.529 187.364 171.954 187.803 172.262 188.372C172.57 188.932 172.724 189.581 172.724 190.318C172.724 190.365 172.719 190.416 172.71 190.472C172.71 190.519 172.71 190.57 172.71 190.626H166.312V189.884H172.178L171.786 190.178C171.786 189.646 171.669 189.175 171.436 188.764C171.212 188.344 170.904 188.017 170.512 187.784C170.12 187.551 169.667 187.434 169.154 187.434C168.65 187.434 168.197 187.551 167.796 187.784C167.395 188.017 167.082 188.344 166.858 188.764C166.634 189.184 166.522 189.665 166.522 190.206V190.36C166.522 190.92 166.643 191.415 166.886 191.844C167.138 192.264 167.483 192.595 167.922 192.838C168.37 193.071 168.879 193.188 169.448 193.188C169.896 193.188 170.311 193.109 170.694 192.95C171.086 192.791 171.422 192.549 171.702 192.222L172.262 192.866C171.935 193.258 171.525 193.557 171.03 193.762C170.545 193.967 170.008 194.07 169.42 194.07ZM177.071 194.07C176.381 194.07 175.849 193.883 175.475 193.51C175.102 193.137 174.915 192.609 174.915 191.928V185.026H175.909V191.872C175.909 192.301 176.017 192.633 176.231 192.866C176.455 193.099 176.773 193.216 177.183 193.216C177.622 193.216 177.986 193.09 178.275 192.838L178.625 193.552C178.429 193.729 178.191 193.86 177.911 193.944C177.641 194.028 177.361 194.07 177.071 194.07ZM173.599 187.476V186.65H178.149V187.476H173.599ZM187.011 194.084C186.283 194.084 185.583 193.967 184.911 193.734C184.248 193.491 183.735 193.183 183.371 192.81L183.777 192.012C184.122 192.348 184.584 192.633 185.163 192.866C185.751 193.09 186.367 193.202 187.011 193.202C187.627 193.202 188.126 193.127 188.509 192.978C188.901 192.819 189.186 192.609 189.363 192.348C189.55 192.087 189.643 191.797 189.643 191.48C189.643 191.097 189.531 190.789 189.307 190.556C189.092 190.323 188.808 190.141 188.453 190.01C188.098 189.87 187.706 189.749 187.277 189.646C186.848 189.543 186.418 189.436 185.989 189.324C185.56 189.203 185.163 189.044 184.799 188.848C184.444 188.652 184.155 188.395 183.931 188.078C183.716 187.751 183.609 187.327 183.609 186.804C183.609 186.319 183.735 185.875 183.987 185.474C184.248 185.063 184.645 184.737 185.177 184.494C185.709 184.242 186.39 184.116 187.221 184.116C187.772 184.116 188.318 184.195 188.859 184.354C189.4 184.503 189.867 184.713 190.259 184.984L189.909 185.81C189.489 185.53 189.041 185.325 188.565 185.194C188.098 185.063 187.646 184.998 187.207 184.998C186.619 184.998 186.134 185.077 185.751 185.236C185.368 185.395 185.084 185.609 184.897 185.88C184.72 186.141 184.631 186.44 184.631 186.776C184.631 187.159 184.738 187.467 184.953 187.7C185.177 187.933 185.466 188.115 185.821 188.246C186.185 188.377 186.582 188.493 187.011 188.596C187.44 188.699 187.865 188.811 188.285 188.932C188.714 189.053 189.106 189.212 189.461 189.408C189.825 189.595 190.114 189.847 190.329 190.164C190.553 190.481 190.665 190.897 190.665 191.41C190.665 191.886 190.534 192.329 190.273 192.74C190.012 193.141 189.61 193.468 189.069 193.72C188.537 193.963 187.851 194.084 187.011 194.084ZM195.834 194.07C195.069 194.07 194.397 193.911 193.818 193.594C193.24 193.267 192.787 192.824 192.46 192.264C192.134 191.695 191.97 191.046 191.97 190.318C191.97 189.59 192.124 188.946 192.432 188.386C192.75 187.826 193.179 187.387 193.72 187.07C194.271 186.743 194.887 186.58 195.568 186.58C196.259 186.58 196.87 186.739 197.402 187.056C197.944 187.364 198.368 187.803 198.676 188.372C198.984 188.932 199.138 189.581 199.138 190.318C199.138 190.365 199.134 190.416 199.124 190.472C199.124 190.519 199.124 190.57 199.124 190.626H192.726V189.884H198.592L198.2 190.178C198.2 189.646 198.084 189.175 197.85 188.764C197.626 188.344 197.318 188.017 196.926 187.784C196.534 187.551 196.082 187.434 195.568 187.434C195.064 187.434 194.612 187.551 194.21 187.784C193.809 188.017 193.496 188.344 193.272 188.764C193.048 189.184 192.936 189.665 192.936 190.206V190.36C192.936 190.92 193.058 191.415 193.3 191.844C193.552 192.264 193.898 192.595 194.336 192.838C194.784 193.071 195.293 193.188 195.862 193.188C196.31 193.188 196.726 193.109 197.108 192.95C197.5 192.791 197.836 192.549 198.116 192.222L198.676 192.866C198.35 193.258 197.939 193.557 197.444 193.762C196.959 193.967 196.422 194.07 195.834 194.07ZM201.161 194V186.65H202.113V188.652L202.015 188.302C202.221 187.742 202.566 187.317 203.051 187.028C203.537 186.729 204.139 186.58 204.857 186.58V187.546C204.82 187.546 204.783 187.546 204.745 187.546C204.708 187.537 204.671 187.532 204.633 187.532C203.859 187.532 203.252 187.77 202.813 188.246C202.375 188.713 202.155 189.38 202.155 190.248V194H201.161ZM208.876 194L205.614 186.65H206.65L209.646 193.468H209.156L212.194 186.65H213.174L209.898 194H208.876ZM214.574 194V186.65H215.568V194H214.574ZM215.078 185.026C214.872 185.026 214.7 184.956 214.56 184.816C214.42 184.676 214.35 184.508 214.35 184.312C214.35 184.116 214.42 183.953 214.56 183.822C214.7 183.682 214.872 183.612 215.078 183.612C215.283 183.612 215.456 183.677 215.596 183.808C215.736 183.939 215.806 184.102 215.806 184.298C215.806 184.503 215.736 184.676 215.596 184.816C215.465 184.956 215.292 185.026 215.078 185.026ZM221.385 194.07C220.657 194.07 220.004 193.911 219.425 193.594C218.856 193.267 218.408 192.824 218.081 192.264C217.755 191.695 217.591 191.046 217.591 190.318C217.591 189.581 217.755 188.932 218.081 188.372C218.408 187.812 218.856 187.373 219.425 187.056C220.004 186.739 220.657 186.58 221.385 186.58C222.011 186.58 222.575 186.701 223.079 186.944C223.583 187.187 223.98 187.551 224.269 188.036L223.527 188.54C223.275 188.167 222.963 187.891 222.589 187.714C222.216 187.537 221.81 187.448 221.371 187.448C220.849 187.448 220.377 187.569 219.957 187.812C219.537 188.045 219.206 188.377 218.963 188.806C218.721 189.235 218.599 189.739 218.599 190.318C218.599 190.897 218.721 191.401 218.963 191.83C219.206 192.259 219.537 192.595 219.957 192.838C220.377 193.071 220.849 193.188 221.371 193.188C221.81 193.188 222.216 193.099 222.589 192.922C222.963 192.745 223.275 192.474 223.527 192.11L224.269 192.614C223.98 193.09 223.583 193.454 223.079 193.706C222.575 193.949 222.011 194.07 221.385 194.07ZM229.221 194.07C228.456 194.07 227.784 193.911 227.205 193.594C226.626 193.267 226.174 192.824 225.847 192.264C225.52 191.695 225.357 191.046 225.357 190.318C225.357 189.59 225.511 188.946 225.819 188.386C226.136 187.826 226.566 187.387 227.107 187.07C227.658 186.743 228.274 186.58 228.955 186.58C229.646 186.58 230.257 186.739 230.789 187.056C231.33 187.364 231.755 187.803 232.063 188.372C232.371 188.932 232.525 189.581 232.525 190.318C232.525 190.365 232.52 190.416 232.511 190.472C232.511 190.519 232.511 190.57 232.511 190.626H226.113V189.884H231.979L231.587 190.178C231.587 189.646 231.47 189.175 231.237 188.764C231.013 188.344 230.705 188.017 230.313 187.784C229.921 187.551 229.468 187.434 228.955 187.434C228.451 187.434 227.998 187.551 227.597 187.784C227.196 188.017 226.883 188.344 226.659 188.764C226.435 189.184 226.323 189.665 226.323 190.206V190.36C226.323 190.92 226.444 191.415 226.687 191.844C226.939 192.264 227.284 192.595 227.723 192.838C228.171 193.071 228.68 193.188 229.249 193.188C229.697 193.188 230.112 193.109 230.495 192.95C230.887 192.791 231.223 192.549 231.503 192.222L232.063 192.866C231.736 193.258 231.326 193.557 230.831 193.762C230.346 193.967 229.809 194.07 229.221 194.07ZM236.522 194.07C235.915 194.07 235.341 193.986 234.8 193.818C234.259 193.641 233.834 193.421 233.526 193.16L233.974 192.376C234.273 192.6 234.655 192.796 235.122 192.964C235.589 193.123 236.079 193.202 236.592 193.202C237.292 193.202 237.796 193.095 238.104 192.88C238.412 192.656 238.566 192.362 238.566 191.998C238.566 191.727 238.477 191.517 238.3 191.368C238.132 191.209 237.908 191.093 237.628 191.018C237.348 190.934 237.035 190.864 236.69 190.808C236.345 190.752 235.999 190.687 235.654 190.612C235.318 190.537 235.01 190.43 234.73 190.29C234.45 190.141 234.221 189.94 234.044 189.688C233.876 189.436 233.792 189.1 233.792 188.68C233.792 188.279 233.904 187.919 234.128 187.602C234.352 187.285 234.679 187.037 235.108 186.86C235.547 186.673 236.079 186.58 236.704 186.58C237.18 186.58 237.656 186.645 238.132 186.776C238.608 186.897 239 187.061 239.308 187.266L238.874 188.064C238.547 187.84 238.197 187.681 237.824 187.588C237.451 187.485 237.077 187.434 236.704 187.434C236.041 187.434 235.551 187.551 235.234 187.784C234.926 188.008 234.772 188.297 234.772 188.652C234.772 188.932 234.856 189.151 235.024 189.31C235.201 189.469 235.43 189.595 235.71 189.688C235.999 189.772 236.312 189.842 236.648 189.898C236.993 189.954 237.334 190.024 237.67 190.108C238.015 190.183 238.328 190.29 238.608 190.43C238.897 190.561 239.126 190.752 239.294 191.004C239.471 191.247 239.56 191.569 239.56 191.97C239.56 192.399 239.439 192.773 239.196 193.09C238.963 193.398 238.617 193.641 238.16 193.818C237.712 193.986 237.166 194.07 236.522 194.07Z" fill="#E8A610"/>
<g filter="url(#filter5_d_749_1802)">
<rect x="92" y="221" width="263" height="38" rx="10" fill="white"/>
<rect x="92.25" y="221.25" width="262.5" height="37.5" rx="9.75" stroke="#D4D4D4" stroke-width="0.5"/>
</g>
<rect x="239" y="232" width="96" height="6" rx="2" fill="#F7F2E9"/>
<rect x="239" y="242" width="65" height="6" rx="2" fill="#F4F4F4"/>
<rect x="266" y="187" width="47" height="6" rx="2" fill="#F4F4F4"/>
<rect x="329" y="187" width="47" height="6" rx="2" fill="#F7F2E9"/>
<path d="M139.852 244.084C139.115 244.084 138.433 243.963 137.808 243.72C137.183 243.468 136.641 243.118 136.184 242.67C135.727 242.222 135.367 241.695 135.106 241.088C134.854 240.481 134.728 239.819 134.728 239.1C134.728 238.381 134.854 237.719 135.106 237.112C135.367 236.505 135.727 235.978 136.184 235.53C136.651 235.082 137.197 234.737 137.822 234.494C138.447 234.242 139.129 234.116 139.866 234.116C140.575 234.116 141.243 234.237 141.868 234.48C142.493 234.713 143.021 235.068 143.45 235.544L142.792 236.202C142.391 235.791 141.947 235.497 141.462 235.32C140.977 235.133 140.454 235.04 139.894 235.04C139.306 235.04 138.76 235.143 138.256 235.348C137.752 235.544 137.313 235.829 136.94 236.202C136.567 236.566 136.273 236.995 136.058 237.49C135.853 237.975 135.75 238.512 135.75 239.1C135.75 239.688 135.853 240.229 136.058 240.724C136.273 241.209 136.567 241.639 136.94 242.012C137.313 242.376 137.752 242.661 138.256 242.866C138.76 243.062 139.306 243.16 139.894 243.16C140.454 243.16 140.977 243.067 141.462 242.88C141.947 242.693 142.391 242.395 142.792 241.984L143.45 242.642C143.021 243.118 142.493 243.477 141.868 243.72C141.243 243.963 140.571 244.084 139.852 244.084ZM148.116 244.07C147.407 244.07 146.768 243.911 146.198 243.594C145.638 243.267 145.195 242.824 144.868 242.264C144.542 241.695 144.378 241.046 144.378 240.318C144.378 239.581 144.542 238.932 144.868 238.372C145.195 237.812 145.638 237.373 146.198 237.056C146.758 236.739 147.398 236.58 148.116 236.58C148.844 236.58 149.488 236.739 150.048 237.056C150.618 237.373 151.061 237.812 151.378 238.372C151.705 238.932 151.868 239.581 151.868 240.318C151.868 241.046 151.705 241.695 151.378 242.264C151.061 242.824 150.618 243.267 150.048 243.594C149.479 243.911 148.835 244.07 148.116 244.07ZM148.116 243.188C148.648 243.188 149.12 243.071 149.53 242.838C149.941 242.595 150.263 242.259 150.496 241.83C150.739 241.391 150.86 240.887 150.86 240.318C150.86 239.739 150.739 239.235 150.496 238.806C150.263 238.377 149.941 238.045 149.53 237.812C149.12 237.569 148.653 237.448 148.13 237.448C147.608 237.448 147.141 237.569 146.73 237.812C146.32 238.045 145.993 238.377 145.75 238.806C145.508 239.235 145.386 239.739 145.386 240.318C145.386 240.887 145.508 241.391 145.75 241.83C145.993 242.259 146.32 242.595 146.73 242.838C147.141 243.071 147.603 243.188 148.116 243.188ZM163.082 236.58C163.679 236.58 164.197 236.697 164.636 236.93C165.084 237.154 165.429 237.499 165.672 237.966C165.924 238.433 166.05 239.021 166.05 239.73V244H165.056V239.828C165.056 239.053 164.869 238.47 164.496 238.078C164.132 237.677 163.614 237.476 162.942 237.476C162.438 237.476 161.999 237.583 161.626 237.798C161.262 238.003 160.977 238.307 160.772 238.708C160.576 239.1 160.478 239.576 160.478 240.136V244H159.484V239.828C159.484 239.053 159.297 238.47 158.924 238.078C158.55 237.677 158.028 237.476 157.356 237.476C156.861 237.476 156.427 237.583 156.054 237.798C155.68 238.003 155.391 238.307 155.186 238.708C154.99 239.1 154.892 239.576 154.892 240.136V244H153.898V236.65H154.85V238.638L154.696 238.288C154.92 237.756 155.279 237.341 155.774 237.042C156.278 236.734 156.87 236.58 157.552 236.58C158.27 236.58 158.882 236.762 159.386 237.126C159.89 237.481 160.216 238.017 160.366 238.736L159.974 238.582C160.188 237.985 160.566 237.504 161.108 237.14C161.658 236.767 162.316 236.58 163.082 236.58ZM172.539 244.07C171.905 244.07 171.331 243.925 170.817 243.636C170.304 243.337 169.893 242.913 169.585 242.362C169.287 241.802 169.137 241.121 169.137 240.318C169.137 239.515 169.287 238.839 169.585 238.288C169.884 237.728 170.29 237.303 170.803 237.014C171.317 236.725 171.895 236.58 172.539 236.58C173.239 236.58 173.865 236.739 174.415 237.056C174.975 237.364 175.414 237.803 175.731 238.372C176.049 238.932 176.207 239.581 176.207 240.318C176.207 241.065 176.049 241.718 175.731 242.278C175.414 242.838 174.975 243.277 174.415 243.594C173.865 243.911 173.239 244.07 172.539 244.07ZM168.745 246.716V236.65H169.697V238.862L169.599 240.332L169.739 241.816V246.716H168.745ZM172.469 243.188C172.992 243.188 173.459 243.071 173.869 242.838C174.28 242.595 174.607 242.259 174.849 241.83C175.092 241.391 175.213 240.887 175.213 240.318C175.213 239.749 175.092 239.249 174.849 238.82C174.607 238.391 174.28 238.055 173.869 237.812C173.459 237.569 172.992 237.448 172.469 237.448C171.947 237.448 171.475 237.569 171.055 237.812C170.645 238.055 170.318 238.391 170.075 238.82C169.842 239.249 169.725 239.749 169.725 240.318C169.725 240.887 169.842 241.391 170.075 241.83C170.318 242.259 170.645 242.595 171.055 242.838C171.475 243.071 171.947 243.188 172.469 243.188ZM181.356 244.07C180.59 244.07 179.918 243.911 179.34 243.594C178.761 243.267 178.308 242.824 177.982 242.264C177.655 241.695 177.492 241.046 177.492 240.318C177.492 239.59 177.646 238.946 177.954 238.386C178.271 237.826 178.7 237.387 179.242 237.07C179.792 236.743 180.408 236.58 181.09 236.58C181.78 236.58 182.392 236.739 182.924 237.056C183.465 237.364 183.89 237.803 184.198 238.372C184.506 238.932 184.66 239.581 184.66 240.318C184.66 240.365 184.655 240.416 184.646 240.472C184.646 240.519 184.646 240.57 184.646 240.626H178.248V239.884H184.114L183.722 240.178C183.722 239.646 183.605 239.175 183.372 238.764C183.148 238.344 182.84 238.017 182.448 237.784C182.056 237.551 181.603 237.434 181.09 237.434C180.586 237.434 180.133 237.551 179.732 237.784C179.33 238.017 179.018 238.344 178.794 238.764C178.57 239.184 178.458 239.665 178.458 240.206V240.36C178.458 240.92 178.579 241.415 178.822 241.844C179.074 242.264 179.419 242.595 179.858 242.838C180.306 243.071 180.814 243.188 181.384 243.188C181.832 243.188 182.247 243.109 182.63 242.95C183.022 242.791 183.358 242.549 183.638 242.222L184.198 242.866C183.871 243.258 183.46 243.557 182.966 243.762C182.48 243.967 181.944 244.07 181.356 244.07ZM189.007 244.07C188.316 244.07 187.784 243.883 187.411 243.51C187.038 243.137 186.851 242.609 186.851 241.928V235.026H187.845V241.872C187.845 242.301 187.952 242.633 188.167 242.866C188.391 243.099 188.708 243.216 189.119 243.216C189.558 243.216 189.922 243.09 190.211 242.838L190.561 243.552C190.365 243.729 190.127 243.86 189.847 243.944C189.576 244.028 189.296 244.07 189.007 244.07ZM185.535 237.476V236.65H190.085V237.476H185.535ZM192.37 244V236.65H193.364V244H192.37ZM192.874 235.026C192.669 235.026 192.496 234.956 192.356 234.816C192.216 234.676 192.146 234.508 192.146 234.312C192.146 234.116 192.216 233.953 192.356 233.822C192.496 233.682 192.669 233.612 192.874 233.612C193.08 233.612 193.252 233.677 193.392 233.808C193.532 233.939 193.602 234.102 193.602 234.298C193.602 234.503 193.532 234.676 193.392 234.816C193.262 234.956 193.089 235.026 192.874 235.026ZM198.454 244.07C197.763 244.07 197.231 243.883 196.858 243.51C196.485 243.137 196.298 242.609 196.298 241.928V235.026H197.292V241.872C197.292 242.301 197.399 242.633 197.614 242.866C197.838 243.099 198.155 243.216 198.566 243.216C199.005 243.216 199.369 243.09 199.658 242.838L200.008 243.552C199.812 243.729 199.574 243.86 199.294 243.944C199.023 244.028 198.743 244.07 198.454 244.07ZM194.982 237.476V236.65H199.532V237.476H194.982ZM204.554 244.07C203.845 244.07 203.205 243.911 202.636 243.594C202.076 243.267 201.633 242.824 201.306 242.264C200.979 241.695 200.816 241.046 200.816 240.318C200.816 239.581 200.979 238.932 201.306 238.372C201.633 237.812 202.076 237.373 202.636 237.056C203.196 236.739 203.835 236.58 204.554 236.58C205.282 236.58 205.926 236.739 206.486 237.056C207.055 237.373 207.499 237.812 207.816 238.372C208.143 238.932 208.306 239.581 208.306 240.318C208.306 241.046 208.143 241.695 207.816 242.264C207.499 242.824 207.055 243.267 206.486 243.594C205.917 243.911 205.273 244.07 204.554 244.07ZM204.554 243.188C205.086 243.188 205.557 243.071 205.968 242.838C206.379 242.595 206.701 242.259 206.934 241.83C207.177 241.391 207.298 240.887 207.298 240.318C207.298 239.739 207.177 239.235 206.934 238.806C206.701 238.377 206.379 238.045 205.968 237.812C205.557 237.569 205.091 237.448 204.568 237.448C204.045 237.448 203.579 237.569 203.168 237.812C202.757 238.045 202.431 238.377 202.188 238.806C201.945 239.235 201.824 239.739 201.824 240.318C201.824 240.887 201.945 241.391 202.188 241.83C202.431 242.259 202.757 242.595 203.168 242.838C203.579 243.071 204.041 243.188 204.554 243.188ZM210.335 244V236.65H211.287V238.652L211.189 238.302C211.395 237.742 211.74 237.317 212.225 237.028C212.711 236.729 213.313 236.58 214.031 236.58V237.546C213.994 237.546 213.957 237.546 213.919 237.546C213.882 237.537 213.845 237.532 213.807 237.532C213.033 237.532 212.426 237.77 211.987 238.246C211.549 238.713 211.329 239.38 211.329 240.248V244H210.335ZM217.901 244.07C217.294 244.07 216.72 243.986 216.179 243.818C215.638 243.641 215.213 243.421 214.905 243.16L215.353 242.376C215.652 242.6 216.034 242.796 216.501 242.964C216.968 243.123 217.458 243.202 217.971 243.202C218.671 243.202 219.175 243.095 219.483 242.88C219.791 242.656 219.945 242.362 219.945 241.998C219.945 241.727 219.856 241.517 219.679 241.368C219.511 241.209 219.287 241.093 219.007 241.018C218.727 240.934 218.414 240.864 218.069 240.808C217.724 240.752 217.378 240.687 217.033 240.612C216.697 240.537 216.389 240.43 216.109 240.29C215.829 240.141 215.6 239.94 215.423 239.688C215.255 239.436 215.171 239.1 215.171 238.68C215.171 238.279 215.283 237.919 215.507 237.602C215.731 237.285 216.058 237.037 216.487 236.86C216.926 236.673 217.458 236.58 218.083 236.58C218.559 236.58 219.035 236.645 219.511 236.776C219.987 236.897 220.379 237.061 220.687 237.266L220.253 238.064C219.926 237.84 219.576 237.681 219.203 237.588C218.83 237.485 218.456 237.434 218.083 237.434C217.42 237.434 216.93 237.551 216.613 237.784C216.305 238.008 216.151 238.297 216.151 238.652C216.151 238.932 216.235 239.151 216.403 239.31C216.58 239.469 216.809 239.595 217.089 239.688C217.378 239.772 217.691 239.842 218.027 239.898C218.372 239.954 218.713 240.024 219.049 240.108C219.394 240.183 219.707 240.29 219.987 240.43C220.276 240.561 220.505 240.752 220.673 241.004C220.85 241.247 220.939 241.569 220.939 241.97C220.939 242.399 220.818 242.773 220.575 243.09C220.342 243.398 219.996 243.641 219.539 243.818C219.091 243.986 218.545 244.07 217.901 244.07Z" fill="#31B47C"/>
<path d="M122 184L112 179L102 184V194L112 199L122 194V184Z" fill="#FFF9EC" stroke="#FFC43D" stroke-linejoin="round"/>
<path d="M102 184L112 189L102 184ZM112 199V189V199ZM122 184L112 189L122 184ZM117 181.5L107 186.5L117 181.5Z" fill="#FFF9EC"/>
<path d="M102 184L112 189M112 189V199M112 189L122 184M117 181.5L107 186.5" stroke="#FFC43D" stroke-linecap="round" stroke-linejoin="round"/>
<path d="M103 149H121H103ZM109 136H110H109ZM109 140H110H109ZM109 144H110H109ZM114 136H115H114ZM114 140H115H114ZM114 144H115H114ZM105 149V133C105 132.47 105.211 131.961 105.586 131.586C105.961 131.211 106.47 131 107 131H117C117.53 131 118.039 131.211 118.414 131.586C118.789 131.961 119 132.47 119 133V149" fill="#F9F1F9"/>
<path d="M103 149H121M109 136H110M109 140H110M109 144H110M114 136H115M114 140H115M114 144H115M105 149V133C105 132.47 105.211 131.961 105.586 131.586C105.961 131.211 106.47 131 107 131H117C117.53 131 118.039 131.211 118.414 131.586C118.789 131.961 119 132.47 119 133V149" stroke="#C270C8" stroke-linecap="round" stroke-linejoin="round"/>
<path d="M108 249.5H102V247L103 246H106.5L108 246.5V238L109.5 237H114.5L115.5 237.5L116 243.5L121 243L122 244V249.5H116H108Z" fill="#EEF9F4"/>
<path d="M111 230.5L109.5 231L109 231.5L110.5 233L110 235L112 234.5L114 235V233L115 231L113.5 230.5L112 229L111 230.5Z" fill="#EEF9F4"/>
<path fill-rule="evenodd" clip-rule="evenodd" d="M112 230.034C111.942 230.135 111.877 230.251 111.801 230.388L111.703 230.564L111.68 230.604C111.602 230.748 111.472 230.986 111.255 231.151C111.034 231.319 110.767 231.377 110.612 231.411L110.568 231.42L110.378 231.463C110.202 231.503 110.059 231.535 109.938 231.566C110.017 231.663 110.12 231.785 110.254 231.942L110.384 232.094L110.414 232.128C110.522 232.253 110.696 232.453 110.777 232.713C110.857 232.969 110.829 233.233 110.812 233.399C110.81 233.415 110.809 233.43 110.807 233.446L110.787 233.649C110.772 233.802 110.758 233.956 110.745 234.109C110.85 234.063 110.968 234.009 111.109 233.944L111.288 233.862L111.328 233.842C111.472 233.775 111.721 233.657 112 233.657C112.279 233.657 112.528 233.775 112.672 233.843L112.712 233.862L112.891 233.944C113.031 234.009 113.151 234.064 113.255 234.109C113.242 233.956 113.228 233.802 113.213 233.649L113.193 233.446C113.191 233.43 113.19 233.415 113.188 233.399C113.171 233.232 113.143 232.969 113.223 232.713C113.303 232.453 113.478 232.253 113.586 232.128L113.616 232.094L113.746 231.942C113.88 231.785 113.983 231.663 114.062 231.566C113.941 231.536 113.798 231.503 113.622 231.463L113.432 231.42L113.388 231.41C113.233 231.377 112.966 231.319 112.745 231.15C112.528 230.986 112.398 230.748 112.32 230.605L112.297 230.564L112.199 230.388C112.123 230.251 112.059 230.135 112 230.034ZM111.014 228.8C111.186 228.575 111.498 228.25 112 228.25C112.502 228.25 112.814 228.575 112.986 228.8C113.151 229.014 113.316 229.311 113.486 229.616L113.509 229.657L113.607 229.834L113.664 229.934L113.763 229.957L113.953 230L114.001 230.01C114.328 230.085 114.654 230.158 114.904 230.257C115.18 230.366 115.554 230.577 115.699 231.042C115.841 231.497 115.662 231.883 115.506 232.132C115.361 232.362 115.141 232.618 114.916 232.881L114.886 232.916L114.756 233.069L114.674 233.166C114.676 233.202 114.681 233.244 114.686 233.301L114.706 233.504L114.71 233.55C114.744 233.902 114.777 234.242 114.765 234.514C114.753 234.8 114.685 235.232 114.297 235.525C113.897 235.829 113.457 235.763 113.177 235.682C112.919 235.609 112.614 235.468 112.307 235.327L112.264 235.307L112.084 235.224L112 235.185L111.915 235.225L111.736 235.307L111.692 235.327C111.386 235.468 111.082 235.609 110.823 235.682C110.543 235.762 110.103 235.829 109.703 235.525C109.316 235.232 109.247 234.8 109.235 234.515C109.223 234.242 109.255 233.902 109.29 233.55L109.294 233.504L109.314 233.301L109.327 233.166C109.3 233.133 109.272 233.101 109.244 233.069L109.114 232.916L109.084 232.881C108.859 232.618 108.639 232.361 108.494 232.131C108.338 231.883 108.159 231.497 108.301 231.041C108.445 230.578 108.82 230.366 109.096 230.257C109.346 230.158 109.672 230.085 109.999 230.011L110.046 230.001L110.237 229.957L110.337 229.934L110.393 229.834L110.491 229.657L110.514 229.616C110.684 229.311 110.849 229.014 111.014 228.8ZM110.951 236.25H113.049C113.714 236.25 114.287 236.25 114.746 236.312C115.238 236.378 115.709 236.527 116.091 236.909C116.473 237.291 116.622 237.762 116.688 238.254C116.75 238.713 116.75 239.286 116.75 239.951V242.417C116.914 242.367 117.083 242.335 117.254 242.312C117.713 242.25 118.286 242.25 118.951 242.25H119.049C119.714 242.25 120.287 242.25 120.746 242.312C121.238 242.378 121.709 242.527 122.091 242.909C122.473 243.291 122.622 243.762 122.688 244.254C122.75 244.713 122.75 245.286 122.75 245.951V249C122.75 249.199 122.671 249.39 122.53 249.53C122.39 249.671 122.199 249.75 122 249.75C121.801 249.75 121.61 249.671 121.47 249.53C121.329 249.39 121.25 249.199 121.25 249V246C121.25 245.272 121.248 244.8 121.202 244.454C121.158 244.129 121.087 244.027 121.03 243.97C120.973 243.913 120.871 243.842 120.546 243.798C120.199 243.752 119.728 243.75 119 243.75C118.272 243.75 117.8 243.752 117.454 243.798C117.129 243.842 117.027 243.913 116.97 243.97C116.913 244.027 116.842 244.129 116.798 244.454C116.752 244.801 116.75 245.272 116.75 246V249C116.75 249.199 116.671 249.39 116.53 249.53C116.39 249.671 116.199 249.75 116 249.75C115.801 249.75 115.61 249.671 115.47 249.53C115.329 249.39 115.25 249.199 115.25 249V240C115.25 239.272 115.248 238.8 115.202 238.454C115.158 238.129 115.087 238.027 115.03 237.97C114.973 237.913 114.871 237.842 114.546 237.798C114.199 237.752 113.728 237.75 113 237.75H111C110.272 237.75 109.8 237.752 109.454 237.798C109.129 237.842 109.027 237.913 108.97 237.97C108.913 238.027 108.842 238.129 108.798 238.454C108.752 238.801 108.75 239.272 108.75 240V249C108.75 249.199 108.671 249.39 108.53 249.53C108.39 249.671 108.199 249.75 108 249.75C107.801 249.75 107.61 249.671 107.47 249.53C107.329 249.39 107.25 249.199 107.25 249C107.25 248.272 107.248 247.8 107.202 247.454C107.158 247.129 107.087 247.027 107.03 246.97C106.973 246.913 106.871 246.842 106.546 246.798C106.199 246.752 105.728 246.75 105 246.75C104.272 246.75 103.8 246.752 103.454 246.798C103.129 246.842 103.027 246.913 102.97 246.97C102.913 247.027 102.842 247.129 102.798 247.454C102.752 247.801 102.75 248.272 102.75 249C102.75 249.199 102.671 249.39 102.53 249.53C102.39 249.671 102.199 249.75 102 249.75C101.801 249.75 101.61 249.671 101.47 249.53C101.329 249.39 101.25 249.199 101.25 249V248.95C101.25 248.286 101.25 247.713 101.312 247.254C101.378 246.762 101.527 246.291 101.909 245.909C102.291 245.527 102.763 245.378 103.254 245.312C103.713 245.25 104.286 245.25 104.951 245.25H105.049C105.714 245.25 106.287 245.25 106.746 245.312C106.917 245.335 107.086 245.368 107.25 245.417V239.951C107.25 239.286 107.25 238.713 107.312 238.254C107.378 237.762 107.527 237.291 107.909 236.909C108.291 236.527 108.763 236.378 109.254 236.312C109.713 236.25 110.286 236.25 110.951 236.25Z" fill="#54C796" stroke="white" stroke-width="0.5"/>
<defs>
<filter id="filter0_d_749_1802" x="0" y="0" width="574" height="334" filterUnits="userSpaceOnUse" color-interpolation-filters="sRGB">
<feFlood flood-opacity="0" result="BackgroundImageFix"/>
<feColorMatrix in="SourceAlpha" type="matrix" values="0 0 0 0 0 0 0 0 0 0 0 0 0 0 0 0 0 0 127 0" result="hardAlpha"/>
<feOffset dy="4"/>
<feGaussianBlur stdDeviation="20"/>
<feComposite in2="hardAlpha" operator="out"/>
<feColorMatrix type="matrix" values="0 0 0 0 0 0 0 0 0 0 0 0 0 0 0 0 0 0 0.08 0"/>
<feBlend mode="normal" in2="BackgroundImageFix" result="effect1_dropShadow_749_1802"/>
<feBlend mode="normal" in="SourceGraphic" in2="effect1_dropShadow_749_1802" result="shape"/>
</filter>
<filter id="filter1_d_749_1802" x="76" y="57" width="295" height="70" filterUnits="userSpaceOnUse" color-interpolation-filters="sRGB">
<feFlood flood-opacity="0" result="BackgroundImageFix"/>
<feColorMatrix in="SourceAlpha" type="matrix" values="0 0 0 0 0 0 0 0 0 0 0 0 0 0 0 0 0 0 127 0" result="hardAlpha"/>
<feOffset dy="2"/>
<feGaussianBlur stdDeviation="8"/>
<feComposite in2="hardAlpha" operator="out"/>
<feColorMatrix type="matrix" values="0 0 0 0 0 0 0 0 0 0 0 0 0 0 0 0 0 0 0.08 0"/>
<feBlend mode="normal" in2="BackgroundImageFix" result="effect1_dropShadow_749_1802"/>
<feBlend mode="normal" in="SourceGraphic" in2="effect1_dropShadow_749_1802" result="shape"/>
</filter>
<filter id="filter2_d_749_1802" x="76" y="107" width="202" height="70" filterUnits="userSpaceOnUse" color-interpolation-filters="sRGB">
<feFlood flood-opacity="0" result="BackgroundImageFix"/>
<feColorMatrix in="SourceAlpha" type="matrix" values="0 0 0 0 0 0 0 0 0 0 0 0 0 0 0 0 0 0 127 0" result="hardAlpha"/>
<feOffset dy="2"/>
<feGaussianBlur stdDeviation="8"/>
<feComposite in2="hardAlpha" operator="out"/>
<feColorMatrix type="matrix" values="0 0 0 0 0 0 0 0 0 0 0 0 0 0 0 0 0 0 0.08 0"/>
<feBlend mode="normal" in2="BackgroundImageFix" result="effect1_dropShadow_749_1802"/>
<feBlend mode="normal" in="SourceGraphic" in2="effect1_dropShadow_749_1802" result="shape"/>
</filter>
<filter id="filter3_d_749_1802" x="264" y="107" width="208" height="70" filterUnits="userSpaceOnUse" color-interpolation-filters="sRGB">
<feFlood flood-opacity="0" result="BackgroundImageFix"/>
<feColorMatrix in="SourceAlpha" type="matrix" values="0 0 0 0 0 0 0 0 0 0 0 0 0 0 0 0 0 0 127 0" result="hardAlpha"/>
<feOffset dy="2"/>
<feGaussianBlur stdDeviation="8"/>
<feComposite in2="hardAlpha" operator="out"/>
<feColorMatrix type="matrix" values="0 0 0 0 0 0 0 0 0 0 0 0 0 0 0 0 0 0 0.08 0"/>
<feBlend mode="normal" in2="BackgroundImageFix" result="effect1_dropShadow_749_1802"/>
<feBlend mode="normal" in="SourceGraphic" in2="effect1_dropShadow_749_1802" result="shape"/>
</filter>
<filter id="filter4_d_749_1802" x="76" y="157" width="334" height="70" filterUnits="userSpaceOnUse" color-interpolation-filters="sRGB">
<feFlood flood-opacity="0" result="BackgroundImageFix"/>
<feColorMatrix in="SourceAlpha" type="matrix" values="0 0 0 0 0 0 0 0 0 0 0 0 0 0 0 0 0 0 127 0" result="hardAlpha"/>
<feOffset dy="2"/>
<feGaussianBlur stdDeviation="8"/>
<feComposite in2="hardAlpha" operator="out"/>
<feColorMatrix type="matrix" values="0 0 0 0 0 0 0 0 0 0 0 0 0 0 0 0 0 0 0.08 0"/>
<feBlend mode="normal" in2="BackgroundImageFix" result="effect1_dropShadow_749_1802"/>
<feBlend mode="normal" in="SourceGraphic" in2="effect1_dropShadow_749_1802" result="shape"/>
</filter>
<filter id="filter5_d_749_1802" x="76" y="207" width="295" height="70" filterUnits="userSpaceOnUse" color-interpolation-filters="sRGB">
<feFlood flood-opacity="0" result="BackgroundImageFix"/>
<feColorMatrix in="SourceAlpha" type="matrix" values="0 0 0 0 0 0 0 0 0 0 0 0 0 0 0 0 0 0 127 0" result="hardAlpha"/>
<feOffset dy="2"/>
<feGaussianBlur stdDeviation="8"/>
<feComposite in2="hardAlpha" operator="out"/>
<feColorMatrix type="matrix" values="0 0 0 0 0 0 0 0 0 0 0 0 0 0 0 0 0 0 0.08 0"/>
<feBlend mode="normal" in2="BackgroundImageFix" result="effect1_dropShadow_749_1802"/>
<feBlend mode="normal" in="SourceGraphic" in2="effect1_dropShadow_749_1802" result="shape"/>
</filter>
</defs>
</svg>
