<svg width="543" height="352" viewBox="0 0 543 352" fill="none" xmlns="http://www.w3.org/2000/svg">
<g filter="url(#filter0_d_709_1969)">
<rect x="10" y="6" width="523" height="332" rx="10" fill="white"/>
</g>
<rect x="382.5" y="22.5" width="134" height="31" rx="4.5" fill="white" stroke="#D4D4D4"/>
<path d="M395.47 44V34.2H399.6C400.645 34.2 401.565 34.4053 402.358 34.816C403.161 35.2267 403.781 35.8007 404.22 36.538C404.668 37.2753 404.892 38.1293 404.892 39.1C404.892 40.0707 404.668 40.9247 404.22 41.662C403.781 42.3993 403.161 42.9733 402.358 43.384C401.565 43.7947 400.645 44 399.6 44H395.47ZM396.87 42.782H399.516C400.328 42.782 401.028 42.628 401.616 42.32C402.213 42.012 402.675 41.5827 403.002 41.032C403.329 40.472 403.492 39.828 403.492 39.1C403.492 38.3627 403.329 37.7187 403.002 37.168C402.675 36.6173 402.213 36.188 401.616 35.88C401.028 35.572 400.328 35.418 399.516 35.418H396.87V42.782ZM411.446 44V42.432L411.376 42.138V39.464C411.376 38.8947 411.208 38.456 410.872 38.148C410.546 37.8307 410.051 37.672 409.388 37.672C408.95 37.672 408.52 37.7467 408.1 37.896C407.68 38.036 407.326 38.2273 407.036 38.47L406.476 37.462C406.859 37.154 407.316 36.9207 407.848 36.762C408.39 36.594 408.954 36.51 409.542 36.51C410.56 36.51 411.344 36.7573 411.894 37.252C412.445 37.7467 412.72 38.5027 412.72 39.52V44H411.446ZM409.01 44.084C408.46 44.084 407.974 43.9907 407.554 43.804C407.144 43.6173 406.826 43.3607 406.602 43.034C406.378 42.698 406.266 42.32 406.266 41.9C406.266 41.4987 406.36 41.1347 406.546 40.808C406.742 40.4813 407.055 40.22 407.484 40.024C407.923 39.828 408.511 39.73 409.248 39.73H411.6V40.696H409.304C408.632 40.696 408.18 40.808 407.946 41.032C407.713 41.256 407.596 41.5267 407.596 41.844C407.596 42.208 407.741 42.502 408.03 42.726C408.32 42.9407 408.721 43.048 409.234 43.048C409.738 43.048 410.177 42.936 410.55 42.712C410.933 42.488 411.208 42.1613 411.376 41.732L411.642 42.656C411.465 43.0947 411.152 43.4447 410.704 43.706C410.256 43.958 409.692 44.084 409.01 44.084ZM415.208 44V36.58H416.552V44H415.208ZM415.88 35.152C415.618 35.152 415.399 35.068 415.222 34.9C415.054 34.732 414.97 34.5267 414.97 34.284C414.97 34.032 415.054 33.822 415.222 33.654C415.399 33.486 415.618 33.402 415.88 33.402C416.141 33.402 416.356 33.486 416.524 33.654C416.701 33.8127 416.79 34.0133 416.79 34.256C416.79 34.508 416.706 34.7227 416.538 34.9C416.37 35.068 416.15 35.152 415.88 35.152ZM419.118 44V33.612H420.462V44H419.118ZM423.35 46.8C422.995 46.8 422.65 46.7393 422.314 46.618C421.978 46.506 421.689 46.338 421.446 46.114L422.02 45.106C422.207 45.2833 422.412 45.4187 422.636 45.512C422.86 45.6053 423.098 45.652 423.35 45.652C423.677 45.652 423.947 45.568 424.162 45.4C424.377 45.232 424.577 44.9333 424.764 44.504L425.226 43.482L425.366 43.314L428.278 36.58H429.594L425.996 44.742C425.781 45.2647 425.539 45.6753 425.268 45.974C425.007 46.2727 424.717 46.4827 424.4 46.604C424.083 46.7347 423.733 46.8 423.35 46.8ZM425.114 44.238L421.726 36.58H423.126L426.01 43.188L425.114 44.238Z" fill="#2F2F2F"/>
<path d="M490 35.5L495 40.5L500 35.5" stroke="#9D9D9D" stroke-width="2" stroke-linecap="round" stroke-linejoin="round"/>
<path d="M38.72 41V29.2H34.08V27H45.96V29.2H41.32V41H38.72ZM47.4173 41V30.32H49.7973V33.26L49.5173 32.4C49.8373 31.68 50.3373 31.1333 51.0173 30.76C51.7107 30.3867 52.5707 30.2 53.5973 30.2V32.58C53.4907 32.5533 53.3907 32.54 53.2973 32.54C53.204 32.5267 53.1107 32.52 53.0173 32.52C52.0707 32.52 51.3173 32.8 50.7573 33.36C50.1973 33.9067 49.9173 34.7267 49.9173 35.82V41H47.4173ZM61.5364 41V38.84L61.3964 38.38V34.6C61.3964 33.8667 61.1764 33.3 60.7364 32.9C60.2964 32.4867 59.6297 32.28 58.7364 32.28C58.1364 32.28 57.5431 32.3733 56.9564 32.56C56.3831 32.7467 55.8964 33.0067 55.4964 33.34L54.5164 31.52C55.0897 31.08 55.7697 30.7533 56.5564 30.54C57.3564 30.3133 58.1831 30.2 59.0364 30.2C60.5831 30.2 61.7764 30.5733 62.6164 31.32C63.4697 32.0533 63.8964 33.1933 63.8964 34.74V41H61.5364ZM58.1764 41.14C57.3764 41.14 56.6764 41.0067 56.0764 40.74C55.4764 40.46 55.0097 40.08 54.6764 39.6C54.3564 39.1067 54.1964 38.5533 54.1964 37.94C54.1964 37.34 54.3364 36.8 54.6164 36.32C54.9097 35.84 55.3831 35.46 56.0364 35.18C56.6897 34.9 57.5564 34.76 58.6364 34.76H61.7364V36.42H58.8164C57.9631 36.42 57.3897 36.56 57.0964 36.84C56.8031 37.1067 56.6564 37.44 56.6564 37.84C56.6564 38.2933 56.8364 38.6533 57.1964 38.92C57.5564 39.1867 58.0564 39.32 58.6964 39.32C59.3097 39.32 59.8564 39.18 60.3364 38.9C60.8297 38.62 61.1831 38.2067 61.3964 37.66L61.8164 39.16C61.5764 39.7867 61.1431 40.2733 60.5164 40.62C59.9031 40.9667 59.1231 41.14 58.1764 41.14ZM67.4448 41V29.72C67.4448 28.6 67.7715 27.7067 68.4248 27.04C69.0915 26.36 70.0382 26.02 71.2648 26.02C71.7048 26.02 72.1182 26.0667 72.5048 26.16C72.9048 26.2533 73.2382 26.4 73.5048 26.6L72.8248 28.48C72.6382 28.3333 72.4248 28.2267 72.1848 28.16C71.9448 28.08 71.6982 28.04 71.4448 28.04C70.9248 28.04 70.5315 28.1867 70.2648 28.48C69.9982 28.76 69.8648 29.1867 69.8648 29.76V30.96L69.9448 32.08V41H67.4448ZM65.6848 32.4V30.4H72.8048V32.4H65.6848ZM74.8277 41V29.72C74.8277 28.6 75.1543 27.7067 75.8077 27.04C76.4743 26.36 77.421 26.02 78.6477 26.02C79.0877 26.02 79.501 26.0667 79.8877 26.16C80.2877 26.2533 80.621 26.4 80.8877 26.6L80.2077 28.48C80.021 28.3333 79.8077 28.2267 79.5677 28.16C79.3277 28.08 79.081 28.04 78.8277 28.04C78.3077 28.04 77.9143 28.1867 77.6477 28.48C77.381 28.76 77.2477 29.1867 77.2477 29.76V30.96L77.3277 32.08V41H74.8277ZM73.0677 32.4V30.4H80.1877V32.4H73.0677ZM81.9477 41V30.32H84.4477V41H81.9477ZM83.2077 28.56C82.741 28.56 82.3543 28.4133 82.0477 28.12C81.7543 27.8267 81.6077 27.4733 81.6077 27.06C81.6077 26.6333 81.7543 26.28 82.0477 26C82.3543 25.7067 82.741 25.56 83.2077 25.56C83.6743 25.56 84.0543 25.7 84.3477 25.98C84.6543 26.2467 84.8077 26.5867 84.8077 27C84.8077 27.44 84.661 27.8133 84.3677 28.12C84.0743 28.4133 83.6877 28.56 83.2077 28.56ZM92.6298 41.14C91.5098 41.14 90.5098 40.9067 89.6298 40.44C88.7632 39.96 88.0832 39.3067 87.5898 38.48C87.0965 37.6533 86.8498 36.7133 86.8498 35.66C86.8498 34.5933 87.0965 33.6533 87.5898 32.84C88.0832 32.0133 88.7632 31.3667 89.6298 30.9C90.5098 30.4333 91.5098 30.2 92.6298 30.2C93.6698 30.2 94.5832 30.4133 95.3698 30.84C96.1698 31.2533 96.7765 31.8667 97.1898 32.68L95.2698 33.8C94.9498 33.2933 94.5565 32.92 94.0898 32.68C93.6365 32.44 93.1432 32.32 92.6098 32.32C91.9965 32.32 91.4432 32.4533 90.9498 32.72C90.4565 32.9867 90.0698 33.3733 89.7898 33.88C89.5098 34.3733 89.3698 34.9667 89.3698 35.66C89.3698 36.3533 89.5098 36.9533 89.7898 37.46C90.0698 37.9533 90.4565 38.3333 90.9498 38.6C91.4432 38.8667 91.9965 39 92.6098 39C93.1432 39 93.6365 38.88 94.0898 38.64C94.5565 38.4 94.9498 38.0267 95.2698 37.52L97.1898 38.64C96.7765 39.44 96.1698 40.06 95.3698 40.5C94.5832 40.9267 93.6698 41.14 92.6298 41.14Z" fill="#1E63B9"/>
<path d="M109.158 41.2C108.185 41.2 107.312 41.04 106.538 40.72C105.765 40.4 105.158 39.96 104.718 39.4C104.278 38.84 104.058 38.1933 104.058 37.46C104.058 36.7933 104.205 36.1933 104.498 35.66C104.792 35.1267 105.258 34.62 105.898 34.14C106.538 33.6467 107.358 33.1533 108.358 32.66C109.145 32.2733 109.758 31.9333 110.198 31.64C110.652 31.3467 110.965 31.0667 111.138 30.8C111.325 30.5333 111.418 30.2533 111.418 29.96C111.418 29.56 111.278 29.24 110.998 29C110.718 28.7467 110.318 28.62 109.798 28.62C109.238 28.62 108.798 28.76 108.478 29.04C108.172 29.3067 108.018 29.66 108.018 30.1C108.018 30.3267 108.058 30.5467 108.138 30.76C108.232 30.9733 108.392 31.2133 108.618 31.48C108.845 31.7467 109.172 32.0867 109.598 32.5L116.998 39.6L115.618 41.22L107.618 33.54C107.165 33.1 106.798 32.6933 106.518 32.32C106.238 31.9467 106.038 31.5867 105.918 31.24C105.798 30.88 105.738 30.5133 105.738 30.14C105.738 29.4867 105.905 28.9133 106.238 28.42C106.572 27.9133 107.045 27.5267 107.658 27.26C108.272 26.98 108.985 26.84 109.798 26.84C110.558 26.84 111.212 26.9667 111.758 27.22C112.318 27.46 112.752 27.8133 113.058 28.28C113.378 28.7333 113.538 29.28 113.538 29.92C113.538 30.48 113.398 31 113.118 31.48C112.838 31.9467 112.398 32.3933 111.798 32.82C111.212 33.2467 110.425 33.6933 109.438 34.16C108.705 34.52 108.125 34.86 107.698 35.18C107.272 35.5 106.965 35.82 106.778 36.14C106.592 36.46 106.498 36.8133 106.498 37.2C106.498 37.5867 106.612 37.9267 106.838 38.22C107.078 38.5133 107.412 38.7467 107.838 38.92C108.265 39.08 108.765 39.16 109.338 39.16C110.192 39.16 110.965 38.9733 111.658 38.6C112.365 38.2133 112.958 37.64 113.438 36.88C113.918 36.12 114.265 35.18 114.478 34.06L116.498 34.72C116.218 36.0667 115.732 37.2267 115.038 38.2C114.358 39.16 113.518 39.9 112.518 40.42C111.518 40.94 110.398 41.2 109.158 41.2Z" fill="#2F2F2F"/>
<path d="M124.767 41V27H127.367V41H124.767ZM144.393 30.2C145.247 30.2 146 30.3667 146.653 30.7C147.32 31.0333 147.84 31.5467 148.213 32.24C148.587 32.92 148.773 33.8 148.773 34.88V41H146.273V35.2C146.273 34.2533 146.067 33.5467 145.653 33.08C145.24 32.6133 144.647 32.38 143.873 32.38C143.327 32.38 142.84 32.5 142.413 32.74C142 32.98 141.673 33.3333 141.433 33.8C141.207 34.2667 141.093 34.86 141.093 35.58V41H138.593V35.2C138.593 34.2533 138.387 33.5467 137.973 33.08C137.56 32.6133 136.967 32.38 136.193 32.38C135.647 32.38 135.16 32.5 134.733 32.74C134.32 32.98 133.993 33.3333 133.753 33.8C133.527 34.2667 133.413 34.86 133.413 35.58V41H130.913V30.32H133.293V33.16L132.873 32.32C133.233 31.6267 133.753 31.1 134.433 30.74C135.127 30.38 135.913 30.2 136.793 30.2C137.793 30.2 138.66 30.4467 139.393 30.94C140.14 31.4333 140.633 32.18 140.873 33.18L139.893 32.84C140.24 32.04 140.813 31.4 141.613 30.92C142.413 30.44 143.34 30.2 144.393 30.2ZM157.888 41.14C157.021 41.14 156.228 40.94 155.508 40.54C154.801 40.14 154.235 39.54 153.808 38.74C153.395 37.9267 153.188 36.9 153.188 35.66C153.188 34.4067 153.388 33.38 153.788 32.58C154.201 31.78 154.761 31.1867 155.468 30.8C156.175 30.4 156.981 30.2 157.888 30.2C158.941 30.2 159.868 30.4267 160.668 30.88C161.481 31.3333 162.121 31.9667 162.588 32.78C163.068 33.5933 163.308 34.5533 163.308 35.66C163.308 36.7667 163.068 37.7333 162.588 38.56C162.121 39.3733 161.481 40.0067 160.668 40.46C159.868 40.9133 158.941 41.14 157.888 41.14ZM151.968 44.88V30.32H154.348V32.84L154.268 35.68L154.468 38.52V44.88H151.968ZM157.608 39C158.208 39 158.741 38.8667 159.208 38.6C159.688 38.3333 160.068 37.9467 160.348 37.44C160.628 36.9333 160.768 36.34 160.768 35.66C160.768 34.9667 160.628 34.3733 160.348 33.88C160.068 33.3733 159.688 32.9867 159.208 32.72C158.741 32.4533 158.208 32.32 157.608 32.32C157.008 32.32 156.468 32.4533 155.988 32.72C155.508 32.9867 155.128 33.3733 154.848 33.88C154.568 34.3733 154.428 34.9667 154.428 35.66C154.428 36.34 154.568 36.9333 154.848 37.44C155.128 37.9467 155.508 38.3333 155.988 38.6C156.468 38.8667 157.008 39 157.608 39ZM165.679 41V30.32H168.059V33.26L167.779 32.4C168.099 31.68 168.599 31.1333 169.279 30.76C169.972 30.3867 170.832 30.2 171.859 30.2V32.58C171.752 32.5533 171.652 32.54 171.559 32.54C171.466 32.5267 171.372 32.52 171.279 32.52C170.332 32.52 169.579 32.8 169.019 33.36C168.459 33.9067 168.179 34.7267 168.179 35.82V41H165.679ZM178.902 41.14C177.716 41.14 176.676 40.9067 175.782 40.44C174.902 39.96 174.216 39.3067 173.722 38.48C173.242 37.6533 173.002 36.7133 173.002 35.66C173.002 34.5933 173.236 33.6533 173.702 32.84C174.182 32.0133 174.836 31.3667 175.662 30.9C176.502 30.4333 177.456 30.2 178.522 30.2C179.562 30.2 180.489 30.4267 181.302 30.88C182.116 31.3333 182.756 31.9733 183.222 32.8C183.689 33.6267 183.922 34.6 183.922 35.72C183.922 35.8267 183.916 35.9467 183.902 36.08C183.902 36.2133 183.896 36.34 183.882 36.46H174.982V34.8H182.562L181.582 35.32C181.596 34.7067 181.469 34.1667 181.202 33.7C180.936 33.2333 180.569 32.8667 180.102 32.6C179.649 32.3333 179.122 32.2 178.522 32.2C177.909 32.2 177.369 32.3333 176.902 32.6C176.449 32.8667 176.089 33.24 175.822 33.72C175.569 34.1867 175.442 34.74 175.442 35.38V35.78C175.442 36.42 175.589 36.9867 175.882 37.48C176.176 37.9733 176.589 38.3533 177.122 38.62C177.656 38.8867 178.269 39.02 178.962 39.02C179.562 39.02 180.102 38.9267 180.582 38.74C181.062 38.5533 181.489 38.26 181.862 37.86L183.202 39.4C182.722 39.96 182.116 40.3933 181.382 40.7C180.662 40.9933 179.836 41.14 178.902 41.14ZM189.624 41.14C188.73 41.14 187.87 41.0267 187.044 40.8C186.23 40.56 185.584 40.2733 185.104 39.94L186.064 38.04C186.544 38.3467 187.117 38.6 187.784 38.8C188.45 39 189.117 39.1 189.784 39.1C190.57 39.1 191.137 38.9933 191.484 38.78C191.844 38.5667 192.024 38.28 192.024 37.92C192.024 37.6267 191.904 37.4067 191.664 37.26C191.424 37.1 191.11 36.98 190.724 36.9C190.337 36.82 189.904 36.7467 189.424 36.68C188.957 36.6133 188.484 36.5267 188.004 36.42C187.537 36.3 187.11 36.1333 186.724 35.92C186.337 35.6933 186.024 35.3933 185.784 35.02C185.544 34.6467 185.424 34.1533 185.424 33.54C185.424 32.86 185.617 32.2733 186.004 31.78C186.39 31.2733 186.93 30.8867 187.624 30.62C188.33 30.34 189.164 30.2 190.124 30.2C190.844 30.2 191.57 30.28 192.304 30.44C193.037 30.6 193.644 30.8267 194.124 31.12L193.164 33.02C192.657 32.7133 192.144 32.5067 191.624 32.4C191.117 32.28 190.61 32.22 190.104 32.22C189.344 32.22 188.777 32.3333 188.404 32.56C188.044 32.7867 187.864 33.0733 187.864 33.42C187.864 33.74 187.984 33.98 188.224 34.14C188.464 34.3 188.777 34.4267 189.164 34.52C189.55 34.6133 189.977 34.6933 190.444 34.76C190.924 34.8133 191.397 34.9 191.864 35.02C192.33 35.14 192.757 35.3067 193.144 35.52C193.544 35.72 193.864 36.0067 194.104 36.38C194.344 36.7533 194.464 37.24 194.464 37.84C194.464 38.5067 194.264 39.0867 193.864 39.58C193.477 40.0733 192.924 40.46 192.204 40.74C191.484 41.0067 190.624 41.14 189.624 41.14ZM199.917 41.14C199.023 41.14 198.163 41.0267 197.337 40.8C196.523 40.56 195.877 40.2733 195.397 39.94L196.357 38.04C196.837 38.3467 197.41 38.6 198.077 38.8C198.743 39 199.41 39.1 200.077 39.1C200.863 39.1 201.43 38.9933 201.777 38.78C202.137 38.5667 202.317 38.28 202.317 37.92C202.317 37.6267 202.197 37.4067 201.957 37.26C201.717 37.1 201.403 36.98 201.017 36.9C200.63 36.82 200.197 36.7467 199.717 36.68C199.25 36.6133 198.777 36.5267 198.297 36.42C197.83 36.3 197.403 36.1333 197.017 35.92C196.63 35.6933 196.317 35.3933 196.077 35.02C195.837 34.6467 195.717 34.1533 195.717 33.54C195.717 32.86 195.91 32.2733 196.297 31.78C196.683 31.2733 197.223 30.8867 197.917 30.62C198.623 30.34 199.457 30.2 200.417 30.2C201.137 30.2 201.863 30.28 202.597 30.44C203.33 30.6 203.937 30.8267 204.417 31.12L203.457 33.02C202.95 32.7133 202.437 32.5067 201.917 32.4C201.41 32.28 200.903 32.22 200.397 32.22C199.637 32.22 199.07 32.3333 198.697 32.56C198.337 32.7867 198.157 33.0733 198.157 33.42C198.157 33.74 198.277 33.98 198.517 34.14C198.757 34.3 199.07 34.4267 199.457 34.52C199.843 34.6133 200.27 34.6933 200.737 34.76C201.217 34.8133 201.69 34.9 202.157 35.02C202.623 35.14 203.05 35.3067 203.437 35.52C203.837 35.72 204.157 36.0067 204.397 36.38C204.637 36.7533 204.757 37.24 204.757 37.84C204.757 38.5067 204.557 39.0867 204.157 39.58C203.77 40.0733 203.217 40.46 202.497 40.74C201.777 41.0067 200.917 41.14 199.917 41.14ZM206.91 41V30.32H209.41V41H206.91ZM208.17 28.56C207.703 28.56 207.316 28.4133 207.01 28.12C206.716 27.8267 206.57 27.4733 206.57 27.06C206.57 26.6333 206.716 26.28 207.01 26C207.316 25.7067 207.703 25.56 208.17 25.56C208.636 25.56 209.016 25.7 209.31 25.98C209.616 26.2467 209.77 26.5867 209.77 27C209.77 27.44 209.623 27.8133 209.33 28.12C209.036 28.4133 208.65 28.56 208.17 28.56ZM217.491 41.14C216.397 41.14 215.424 40.9067 214.571 40.44C213.717 39.96 213.044 39.3067 212.551 38.48C212.057 37.6533 211.811 36.7133 211.811 35.66C211.811 34.5933 212.057 33.6533 212.551 32.84C213.044 32.0133 213.717 31.3667 214.571 30.9C215.424 30.4333 216.397 30.2 217.491 30.2C218.597 30.2 219.577 30.4333 220.431 30.9C221.297 31.3667 221.971 32.0067 222.451 32.82C222.944 33.6333 223.191 34.58 223.191 35.66C223.191 36.7133 222.944 37.6533 222.451 38.48C221.971 39.3067 221.297 39.96 220.431 40.44C219.577 40.9067 218.597 41.14 217.491 41.14ZM217.491 39C218.104 39 218.651 38.8667 219.131 38.6C219.611 38.3333 219.984 37.9467 220.251 37.44C220.531 36.9333 220.671 36.34 220.671 35.66C220.671 34.9667 220.531 34.3733 220.251 33.88C219.984 33.3733 219.611 32.9867 219.131 32.72C218.651 32.4533 218.111 32.32 217.511 32.32C216.897 32.32 216.351 32.4533 215.871 32.72C215.404 32.9867 215.031 33.3733 214.751 33.88C214.471 34.3733 214.331 34.9667 214.331 35.66C214.331 36.34 214.471 36.9333 214.751 37.44C215.031 37.9467 215.404 38.3333 215.871 38.6C216.351 38.8667 216.891 39 217.491 39ZM231.641 30.2C232.495 30.2 233.255 30.3667 233.921 30.7C234.601 31.0333 235.135 31.5467 235.521 32.24C235.908 32.92 236.101 33.8 236.101 34.88V41H233.601V35.2C233.601 34.2533 233.375 33.5467 232.921 33.08C232.481 32.6133 231.861 32.38 231.061 32.38C230.475 32.38 229.955 32.5 229.501 32.74C229.048 32.98 228.695 33.34 228.441 33.82C228.201 34.2867 228.081 34.88 228.081 35.6V41H225.581V30.32H227.961V33.2L227.541 32.32C227.915 31.64 228.455 31.12 229.161 30.76C229.881 30.3867 230.708 30.2 231.641 30.2ZM242.573 41.14C241.679 41.14 240.819 41.0267 239.993 40.8C239.179 40.56 238.533 40.2733 238.053 39.94L239.013 38.04C239.493 38.3467 240.066 38.6 240.733 38.8C241.399 39 242.066 39.1 242.733 39.1C243.519 39.1 244.086 38.9933 244.433 38.78C244.793 38.5667 244.973 38.28 244.973 37.92C244.973 37.6267 244.853 37.4067 244.613 37.26C244.373 37.1 244.059 36.98 243.673 36.9C243.286 36.82 242.853 36.7467 242.373 36.68C241.906 36.6133 241.433 36.5267 240.953 36.42C240.486 36.3 240.059 36.1333 239.673 35.92C239.286 35.6933 238.973 35.3933 238.733 35.02C238.493 34.6467 238.373 34.1533 238.373 33.54C238.373 32.86 238.566 32.2733 238.953 31.78C239.339 31.2733 239.879 30.8867 240.573 30.62C241.279 30.34 242.113 30.2 243.073 30.2C243.793 30.2 244.519 30.28 245.253 30.44C245.986 30.6 246.593 30.8267 247.073 31.12L246.113 33.02C245.606 32.7133 245.093 32.5067 244.573 32.4C244.066 32.28 243.559 32.22 243.053 32.22C242.293 32.22 241.726 32.3333 241.353 32.56C240.993 32.7867 240.813 33.0733 240.813 33.42C240.813 33.74 240.933 33.98 241.173 34.14C241.413 34.3 241.726 34.4267 242.113 34.52C242.499 34.6133 242.926 34.6933 243.393 34.76C243.873 34.8133 244.346 34.9 244.813 35.02C245.279 35.14 245.706 35.3067 246.093 35.52C246.493 35.72 246.813 36.0067 247.053 36.38C247.293 36.7533 247.413 37.24 247.413 37.84C247.413 38.5067 247.213 39.0867 246.813 39.58C246.426 40.0733 245.873 40.46 245.153 40.74C244.433 41.0067 243.573 41.14 242.573 41.14Z" fill="#D7076B"/>
<path d="M443.324 295V285.76L443.926 286.418H441.112V285.2H444.71V295H443.324ZM450.858 295.112C450.092 295.112 449.406 294.916 448.8 294.524C448.202 294.132 447.726 293.563 447.372 292.816C447.026 292.069 446.854 291.164 446.854 290.1C446.854 289.036 447.026 288.131 447.372 287.384C447.726 286.637 448.202 286.068 448.8 285.676C449.406 285.284 450.092 285.088 450.858 285.088C451.614 285.088 452.295 285.284 452.902 285.676C453.508 286.068 453.984 286.637 454.33 287.384C454.675 288.131 454.848 289.036 454.848 290.1C454.848 291.164 454.675 292.069 454.33 292.816C453.984 293.563 453.508 294.132 452.902 294.524C452.295 294.916 451.614 295.112 450.858 295.112ZM450.858 293.866C451.371 293.866 451.819 293.726 452.202 293.446C452.594 293.166 452.897 292.746 453.112 292.186C453.336 291.626 453.448 290.931 453.448 290.1C453.448 289.269 453.336 288.574 453.112 288.014C452.897 287.454 452.594 287.034 452.202 286.754C451.819 286.474 451.371 286.334 450.858 286.334C450.344 286.334 449.892 286.474 449.5 286.754C449.108 287.034 448.8 287.454 448.576 288.014C448.361 288.574 448.254 289.269 448.254 290.1C448.254 290.931 448.361 291.626 448.576 292.186C448.8 292.746 449.108 293.166 449.5 293.446C449.892 293.726 450.344 293.866 450.858 293.866ZM460.749 295V285.2H464.879C465.925 285.2 466.844 285.405 467.637 285.816C468.44 286.227 469.061 286.801 469.499 287.538C469.947 288.275 470.171 289.129 470.171 290.1C470.171 291.071 469.947 291.925 469.499 292.662C469.061 293.399 468.44 293.973 467.637 294.384C466.844 294.795 465.925 295 464.879 295H460.749ZM462.149 293.782H464.795C465.607 293.782 466.307 293.628 466.895 293.32C467.493 293.012 467.955 292.583 468.281 292.032C468.608 291.472 468.771 290.828 468.771 290.1C468.771 289.363 468.608 288.719 468.281 288.168C467.955 287.617 467.493 287.188 466.895 286.88C466.307 286.572 465.607 286.418 464.795 286.418H462.149V293.782ZM475.424 295.084C474.63 295.084 473.93 294.921 473.324 294.594C472.726 294.267 472.26 293.819 471.924 293.25C471.597 292.681 471.434 292.027 471.434 291.29C471.434 290.553 471.592 289.899 471.91 289.33C472.236 288.761 472.68 288.317 473.24 288C473.809 287.673 474.448 287.51 475.158 287.51C475.876 287.51 476.511 287.669 477.062 287.986C477.612 288.303 478.042 288.751 478.35 289.33C478.667 289.899 478.826 290.567 478.826 291.332C478.826 291.388 478.821 291.453 478.812 291.528C478.812 291.603 478.807 291.673 478.798 291.738H472.484V290.772H478.098L477.552 291.108C477.561 290.632 477.463 290.207 477.258 289.834C477.052 289.461 476.768 289.171 476.404 288.966C476.049 288.751 475.634 288.644 475.158 288.644C474.691 288.644 474.276 288.751 473.912 288.966C473.548 289.171 473.263 289.465 473.058 289.848C472.852 290.221 472.75 290.651 472.75 291.136V291.36C472.75 291.855 472.862 292.298 473.086 292.69C473.319 293.073 473.641 293.371 474.052 293.586C474.462 293.801 474.934 293.908 475.466 293.908C475.904 293.908 476.301 293.833 476.656 293.684C477.02 293.535 477.337 293.311 477.608 293.012L478.35 293.88C478.014 294.272 477.594 294.571 477.09 294.776C476.595 294.981 476.04 295.084 475.424 295.084ZM483.926 295.084C483.17 295.084 482.493 294.921 481.896 294.594C481.308 294.267 480.846 293.819 480.51 293.25C480.174 292.681 480.006 292.027 480.006 291.29C480.006 290.553 480.174 289.899 480.51 289.33C480.846 288.761 481.308 288.317 481.896 288C482.493 287.673 483.17 287.51 483.926 287.51C484.598 287.51 485.195 287.645 485.718 287.916C486.25 288.177 486.661 288.569 486.95 289.092L485.928 289.75C485.685 289.386 485.387 289.12 485.032 288.952C484.687 288.775 484.313 288.686 483.912 288.686C483.427 288.686 482.993 288.793 482.61 289.008C482.227 289.223 481.924 289.526 481.7 289.918C481.476 290.301 481.364 290.758 481.364 291.29C481.364 291.822 481.476 292.284 481.7 292.676C481.924 293.068 482.227 293.371 482.61 293.586C482.993 293.801 483.427 293.908 483.912 293.908C484.313 293.908 484.687 293.824 485.032 293.656C485.387 293.479 485.685 293.208 485.928 292.844L486.95 293.488C486.661 294.001 486.25 294.398 485.718 294.678C485.195 294.949 484.598 295.084 483.926 295.084Z" fill="#2F2F2F"/>
<path d="M344.85 285.088C345.737 285.088 346.483 285.279 347.09 285.662C347.706 286.045 348.173 286.6 348.49 287.328C348.807 288.047 348.966 288.929 348.966 289.974C348.966 291.085 348.77 292.023 348.378 292.788C347.986 293.553 347.445 294.132 346.754 294.524C346.063 294.916 345.256 295.112 344.332 295.112C343.875 295.112 343.431 295.065 343.002 294.972C342.582 294.879 342.213 294.734 341.896 294.538L342.428 293.446C342.689 293.614 342.979 293.735 343.296 293.81C343.623 293.875 343.963 293.908 344.318 293.908C345.307 293.908 346.096 293.6 346.684 292.984C347.272 292.359 347.566 291.435 347.566 290.212C347.566 290.016 347.557 289.783 347.538 289.512C347.519 289.241 347.477 288.975 347.412 288.714L347.874 289.19C347.743 289.619 347.524 289.983 347.216 290.282C346.917 290.571 346.553 290.791 346.124 290.94C345.704 291.08 345.242 291.15 344.738 291.15C344.094 291.15 343.52 291.029 343.016 290.786C342.512 290.543 342.115 290.203 341.826 289.764C341.537 289.316 341.392 288.789 341.392 288.182C341.392 287.547 341.541 287.001 341.84 286.544C342.148 286.077 342.563 285.718 343.086 285.466C343.618 285.214 344.206 285.088 344.85 285.088ZM344.906 286.222C344.486 286.222 344.113 286.301 343.786 286.46C343.459 286.619 343.203 286.838 343.016 287.118C342.839 287.398 342.75 287.734 342.75 288.126C342.75 288.705 342.951 289.167 343.352 289.512C343.753 289.848 344.295 290.016 344.976 290.016C345.424 290.016 345.816 289.932 346.152 289.764C346.497 289.596 346.763 289.367 346.95 289.078C347.146 288.789 347.244 288.467 347.244 288.112C347.244 287.767 347.155 287.454 346.978 287.174C346.801 286.894 346.539 286.665 346.194 286.488C345.849 286.311 345.419 286.222 344.906 286.222ZM354.87 295V285.2H359C360.046 285.2 360.965 285.405 361.758 285.816C362.561 286.227 363.182 286.801 363.62 287.538C364.068 288.275 364.292 289.129 364.292 290.1C364.292 291.071 364.068 291.925 363.62 292.662C363.182 293.399 362.561 293.973 361.758 294.384C360.965 294.795 360.046 295 359 295H354.87ZM356.27 293.782H358.916C359.728 293.782 360.428 293.628 361.016 293.32C361.614 293.012 362.076 292.583 362.402 292.032C362.729 291.472 362.892 290.828 362.892 290.1C362.892 289.363 362.729 288.719 362.402 288.168C362.076 287.617 361.614 287.188 361.016 286.88C360.428 286.572 359.728 286.418 358.916 286.418H356.27V293.782ZM369.545 295.084C368.751 295.084 368.051 294.921 367.445 294.594C366.847 294.267 366.381 293.819 366.045 293.25C365.718 292.681 365.555 292.027 365.555 291.29C365.555 290.553 365.713 289.899 366.031 289.33C366.357 288.761 366.801 288.317 367.361 288C367.93 287.673 368.569 287.51 369.279 287.51C369.997 287.51 370.632 287.669 371.183 287.986C371.733 288.303 372.163 288.751 372.471 289.33C372.788 289.899 372.947 290.567 372.947 291.332C372.947 291.388 372.942 291.453 372.933 291.528C372.933 291.603 372.928 291.673 372.919 291.738H366.605V290.772H372.219L371.673 291.108C371.682 290.632 371.584 290.207 371.379 289.834C371.173 289.461 370.889 289.171 370.525 288.966C370.17 288.751 369.755 288.644 369.279 288.644C368.812 288.644 368.397 288.751 368.033 288.966C367.669 289.171 367.384 289.465 367.179 289.848C366.973 290.221 366.871 290.651 366.871 291.136V291.36C366.871 291.855 366.983 292.298 367.207 292.69C367.44 293.073 367.762 293.371 368.173 293.586C368.583 293.801 369.055 293.908 369.587 293.908C370.025 293.908 370.422 293.833 370.777 293.684C371.141 293.535 371.458 293.311 371.729 293.012L372.471 293.88C372.135 294.272 371.715 294.571 371.211 294.776C370.716 294.981 370.161 295.084 369.545 295.084ZM378.047 295.084C377.291 295.084 376.614 294.921 376.017 294.594C375.429 294.267 374.967 293.819 374.631 293.25C374.295 292.681 374.127 292.027 374.127 291.29C374.127 290.553 374.295 289.899 374.631 289.33C374.967 288.761 375.429 288.317 376.017 288C376.614 287.673 377.291 287.51 378.047 287.51C378.719 287.51 379.316 287.645 379.839 287.916C380.371 288.177 380.782 288.569 381.071 289.092L380.049 289.75C379.806 289.386 379.508 289.12 379.153 288.952C378.808 288.775 378.434 288.686 378.033 288.686C377.548 288.686 377.114 288.793 376.731 289.008C376.348 289.223 376.045 289.526 375.821 289.918C375.597 290.301 375.485 290.758 375.485 291.29C375.485 291.822 375.597 292.284 375.821 292.676C376.045 293.068 376.348 293.371 376.731 293.586C377.114 293.801 377.548 293.908 378.033 293.908C378.434 293.908 378.808 293.824 379.153 293.656C379.508 293.479 379.806 293.208 380.049 292.844L381.071 293.488C380.782 294.001 380.371 294.398 379.839 294.678C379.316 294.949 378.719 295.084 378.047 295.084Z" fill="#2F2F2F"/>
<path d="M255.494 295.112C254.701 295.112 254.015 294.995 253.436 294.762C252.857 294.529 252.409 294.197 252.092 293.768C251.775 293.329 251.616 292.816 251.616 292.228C251.616 291.649 251.765 291.159 252.064 290.758C252.372 290.347 252.815 290.039 253.394 289.834C253.973 289.619 254.673 289.512 255.494 289.512C256.315 289.512 257.015 289.619 257.594 289.834C258.182 290.039 258.63 290.347 258.938 290.758C259.246 291.169 259.4 291.659 259.4 292.228C259.4 292.816 259.241 293.329 258.924 293.768C258.607 294.197 258.154 294.529 257.566 294.762C256.978 294.995 256.287 295.112 255.494 295.112ZM255.494 293.978C256.278 293.978 256.889 293.819 257.328 293.502C257.776 293.175 258 292.737 258 292.186C258 291.645 257.776 291.22 257.328 290.912C256.889 290.595 256.278 290.436 255.494 290.436C254.719 290.436 254.113 290.595 253.674 290.912C253.235 291.22 253.016 291.645 253.016 292.186C253.016 292.737 253.235 293.175 253.674 293.502C254.113 293.819 254.719 293.978 255.494 293.978ZM255.494 290.268C254.747 290.268 254.113 290.17 253.59 289.974C253.067 289.769 252.666 289.479 252.386 289.106C252.106 288.723 251.966 288.271 251.966 287.748C251.966 287.197 252.111 286.726 252.4 286.334C252.699 285.933 253.114 285.625 253.646 285.41C254.178 285.195 254.794 285.088 255.494 285.088C256.203 285.088 256.824 285.195 257.356 285.41C257.888 285.625 258.303 285.933 258.602 286.334C258.901 286.726 259.05 287.197 259.05 287.748C259.05 288.271 258.91 288.723 258.63 289.106C258.35 289.479 257.944 289.769 257.412 289.974C256.88 290.17 256.241 290.268 255.494 290.268ZM255.494 289.372C256.175 289.372 256.707 289.232 257.09 288.952C257.482 288.672 257.678 288.289 257.678 287.804C257.678 287.309 257.477 286.922 257.076 286.642C256.675 286.362 256.147 286.222 255.494 286.222C254.841 286.222 254.318 286.362 253.926 286.642C253.543 286.922 253.352 287.309 253.352 287.804C253.352 288.289 253.539 288.672 253.912 288.952C254.295 289.232 254.822 289.372 255.494 289.372ZM265.24 295V285.2H269.37C270.415 285.2 271.334 285.405 272.128 285.816C272.93 286.227 273.551 286.801 273.99 287.538C274.438 288.275 274.662 289.129 274.662 290.1C274.662 291.071 274.438 291.925 273.99 292.662C273.551 293.399 272.93 293.973 272.128 294.384C271.334 294.795 270.415 295 269.37 295H265.24ZM266.64 293.782H269.286C270.098 293.782 270.798 293.628 271.386 293.32C271.983 293.012 272.445 292.583 272.772 292.032C273.098 291.472 273.262 290.828 273.262 290.1C273.262 289.363 273.098 288.719 272.772 288.168C272.445 287.617 271.983 287.188 271.386 286.88C270.798 286.572 270.098 286.418 269.286 286.418H266.64V293.782ZM279.914 295.084C279.121 295.084 278.421 294.921 277.814 294.594C277.217 294.267 276.75 293.819 276.414 293.25C276.087 292.681 275.924 292.027 275.924 291.29C275.924 290.553 276.083 289.899 276.4 289.33C276.727 288.761 277.17 288.317 277.73 288C278.299 287.673 278.939 287.51 279.648 287.51C280.367 287.51 281.001 287.669 281.552 287.986C282.103 288.303 282.532 288.751 282.84 289.33C283.157 289.899 283.316 290.567 283.316 291.332C283.316 291.388 283.311 291.453 283.302 291.528C283.302 291.603 283.297 291.673 283.288 291.738H276.974V290.772H282.588L282.042 291.108C282.051 290.632 281.953 290.207 281.748 289.834C281.543 289.461 281.258 289.171 280.894 288.966C280.539 288.751 280.124 288.644 279.648 288.644C279.181 288.644 278.766 288.751 278.402 288.966C278.038 289.171 277.753 289.465 277.548 289.848C277.343 290.221 277.24 290.651 277.24 291.136V291.36C277.24 291.855 277.352 292.298 277.576 292.69C277.809 293.073 278.131 293.371 278.542 293.586C278.953 293.801 279.424 293.908 279.956 293.908C280.395 293.908 280.791 293.833 281.146 293.684C281.51 293.535 281.827 293.311 282.098 293.012L282.84 293.88C282.504 294.272 282.084 294.571 281.58 294.776C281.085 294.981 280.53 295.084 279.914 295.084ZM288.416 295.084C287.66 295.084 286.984 294.921 286.386 294.594C285.798 294.267 285.336 293.819 285 293.25C284.664 292.681 284.496 292.027 284.496 291.29C284.496 290.553 284.664 289.899 285 289.33C285.336 288.761 285.798 288.317 286.386 288C286.984 287.673 287.66 287.51 288.416 287.51C289.088 287.51 289.686 287.645 290.208 287.916C290.74 288.177 291.151 288.569 291.44 289.092L290.418 289.75C290.176 289.386 289.877 289.12 289.522 288.952C289.177 288.775 288.804 288.686 288.402 288.686C287.917 288.686 287.483 288.793 287.1 289.008C286.718 289.223 286.414 289.526 286.19 289.918C285.966 290.301 285.854 290.758 285.854 291.29C285.854 291.822 285.966 292.284 286.19 292.676C286.414 293.068 286.718 293.371 287.1 293.586C287.483 293.801 287.917 293.908 288.402 293.908C288.804 293.908 289.177 293.824 289.522 293.656C289.877 293.479 290.176 293.208 290.418 292.844L291.44 293.488C291.151 294.001 290.74 294.398 290.208 294.678C289.686 294.949 289.088 295.084 288.416 295.084Z" fill="#2F2F2F"/>
<path d="M163.366 295L167.524 285.788L167.888 286.418H162.064L162.764 285.732V288.168H161.42V285.2H168.812V286.152L164.85 295H163.366ZM174.597 295V285.2H178.727C179.772 285.2 180.692 285.405 181.485 285.816C182.288 286.227 182.908 286.801 183.347 287.538C183.795 288.275 184.019 289.129 184.019 290.1C184.019 291.071 183.795 291.925 183.347 292.662C182.908 293.399 182.288 293.973 181.485 294.384C180.692 294.795 179.772 295 178.727 295H174.597ZM175.997 293.782H178.643C179.455 293.782 180.155 293.628 180.743 293.32C181.34 293.012 181.802 292.583 182.129 292.032C182.456 291.472 182.619 290.828 182.619 290.1C182.619 289.363 182.456 288.719 182.129 288.168C181.802 287.617 181.34 287.188 180.743 286.88C180.155 286.572 179.455 286.418 178.643 286.418H175.997V293.782ZM189.271 295.084C188.478 295.084 187.778 294.921 187.171 294.594C186.574 294.267 186.107 293.819 185.771 293.25C185.445 292.681 185.281 292.027 185.281 291.29C185.281 290.553 185.44 289.899 185.757 289.33C186.084 288.761 186.527 288.317 187.087 288C187.657 287.673 188.296 287.51 189.005 287.51C189.724 287.51 190.359 287.669 190.909 287.986C191.46 288.303 191.889 288.751 192.197 289.33C192.515 289.899 192.673 290.567 192.673 291.332C192.673 291.388 192.669 291.453 192.659 291.528C192.659 291.603 192.655 291.673 192.645 291.738H186.331V290.772H191.945L191.399 291.108C191.409 290.632 191.311 290.207 191.105 289.834C190.9 289.461 190.615 289.171 190.251 288.966C189.897 288.751 189.481 288.644 189.005 288.644C188.539 288.644 188.123 288.751 187.759 288.966C187.395 289.171 187.111 289.465 186.905 289.848C186.7 290.221 186.597 290.651 186.597 291.136V291.36C186.597 291.855 186.709 292.298 186.933 292.69C187.167 293.073 187.489 293.371 187.899 293.586C188.31 293.801 188.781 293.908 189.313 293.908C189.752 293.908 190.149 293.833 190.503 293.684C190.867 293.535 191.185 293.311 191.455 293.012L192.197 293.88C191.861 294.272 191.441 294.571 190.937 294.776C190.443 294.981 189.887 295.084 189.271 295.084ZM197.774 295.084C197.018 295.084 196.341 294.921 195.744 294.594C195.156 294.267 194.694 293.819 194.358 293.25C194.022 292.681 193.854 292.027 193.854 291.29C193.854 290.553 194.022 289.899 194.358 289.33C194.694 288.761 195.156 288.317 195.744 288C196.341 287.673 197.018 287.51 197.774 287.51C198.446 287.51 199.043 287.645 199.566 287.916C200.098 288.177 200.508 288.569 200.798 289.092L199.776 289.75C199.533 289.386 199.234 289.12 198.88 288.952C198.534 288.775 198.161 288.686 197.76 288.686C197.274 288.686 196.84 288.793 196.458 289.008C196.075 289.223 195.772 289.526 195.548 289.918C195.324 290.301 195.212 290.758 195.212 291.29C195.212 291.822 195.324 292.284 195.548 292.676C195.772 293.068 196.075 293.371 196.458 293.586C196.84 293.801 197.274 293.908 197.76 293.908C198.161 293.908 198.534 293.824 198.88 293.656C199.234 293.479 199.533 293.208 199.776 292.844L200.798 293.488C200.508 294.001 200.098 294.398 199.566 294.678C199.043 294.949 198.446 295.084 197.774 295.084Z" fill="#2F2F2F"/>
<path d="M82.788 295.112C81.92 295.112 81.178 294.921 80.562 294.538C79.946 294.155 79.4747 293.605 79.148 292.886C78.8307 292.158 78.672 291.271 78.672 290.226C78.672 289.115 78.868 288.177 79.26 287.412C79.652 286.647 80.198 286.068 80.898 285.676C81.598 285.284 82.4007 285.088 83.306 285.088C83.7727 285.088 84.216 285.135 84.636 285.228C85.0653 285.321 85.434 285.466 85.742 285.662L85.21 286.754C84.958 286.577 84.6687 286.455 84.342 286.39C84.0247 286.325 83.6887 286.292 83.334 286.292C82.3353 286.292 81.542 286.605 80.954 287.23C80.366 287.846 80.072 288.765 80.072 289.988C80.072 290.184 80.0813 290.417 80.1 290.688C80.1187 290.959 80.1653 291.225 80.24 291.486L79.764 291.01C79.904 290.581 80.1233 290.221 80.422 289.932C80.73 289.633 81.094 289.414 81.514 289.274C81.9433 289.125 82.4053 289.05 82.9 289.05C83.5533 289.05 84.132 289.171 84.636 289.414C85.14 289.657 85.5367 290.002 85.826 290.45C86.1153 290.889 86.26 291.411 86.26 292.018C86.26 292.643 86.106 293.189 85.798 293.656C85.49 294.123 85.0747 294.482 84.552 294.734C84.0293 294.986 83.4413 295.112 82.788 295.112ZM82.732 293.978C83.1613 293.978 83.5347 293.899 83.852 293.74C84.1787 293.581 84.4353 293.362 84.622 293.082C84.8087 292.793 84.902 292.457 84.902 292.074C84.902 291.495 84.7013 291.038 84.3 290.702C83.8987 290.357 83.3527 290.184 82.662 290.184C82.214 290.184 81.822 290.268 81.486 290.436C81.15 290.604 80.884 290.833 80.688 291.122C80.5013 291.402 80.408 291.724 80.408 292.088C80.408 292.424 80.4967 292.737 80.674 293.026C80.8513 293.306 81.1127 293.535 81.458 293.712C81.8033 293.889 82.228 293.978 82.732 293.978ZM91.8704 295V285.2H96.0004C97.0457 285.2 97.9651 285.405 98.7584 285.816C99.5611 286.227 100.182 286.801 100.62 287.538C101.068 288.275 101.292 289.129 101.292 290.1C101.292 291.071 101.068 291.925 100.62 292.662C100.182 293.399 99.5611 293.973 98.7584 294.384C97.9651 294.795 97.0457 295 96.0004 295H91.8704ZM93.2704 293.782H95.9164C96.7284 293.782 97.4284 293.628 98.0164 293.32C98.6137 293.012 99.0757 292.583 99.4024 292.032C99.7291 291.472 99.8924 290.828 99.8924 290.1C99.8924 289.363 99.7291 288.719 99.4024 288.168C99.0757 287.617 98.6137 287.188 98.0164 286.88C97.4284 286.572 96.7284 286.418 95.9164 286.418H93.2704V293.782ZM106.545 295.084C105.751 295.084 105.051 294.921 104.445 294.594C103.847 294.267 103.381 293.819 103.045 293.25C102.718 292.681 102.555 292.027 102.555 291.29C102.555 290.553 102.713 289.899 103.031 289.33C103.357 288.761 103.801 288.317 104.361 288C104.93 287.673 105.569 287.51 106.279 287.51C106.997 287.51 107.632 287.669 108.183 287.986C108.733 288.303 109.163 288.751 109.471 289.33C109.788 289.899 109.947 290.567 109.947 291.332C109.947 291.388 109.942 291.453 109.933 291.528C109.933 291.603 109.928 291.673 109.919 291.738H103.605V290.772H109.219L108.673 291.108C108.682 290.632 108.584 290.207 108.379 289.834C108.173 289.461 107.889 289.171 107.525 288.966C107.17 288.751 106.755 288.644 106.279 288.644C105.812 288.644 105.397 288.751 105.033 288.966C104.669 289.171 104.384 289.465 104.179 289.848C103.973 290.221 103.871 290.651 103.871 291.136V291.36C103.871 291.855 103.983 292.298 104.207 292.69C104.44 293.073 104.762 293.371 105.173 293.586C105.583 293.801 106.055 293.908 106.587 293.908C107.025 293.908 107.422 293.833 107.777 293.684C108.141 293.535 108.458 293.311 108.729 293.012L109.471 293.88C109.135 294.272 108.715 294.571 108.211 294.776C107.716 294.981 107.161 295.084 106.545 295.084ZM115.047 295.084C114.291 295.084 113.614 294.921 113.017 294.594C112.429 294.267 111.967 293.819 111.631 293.25C111.295 292.681 111.127 292.027 111.127 291.29C111.127 290.553 111.295 289.899 111.631 289.33C111.967 288.761 112.429 288.317 113.017 288C113.614 287.673 114.291 287.51 115.047 287.51C115.719 287.51 116.316 287.645 116.839 287.916C117.371 288.177 117.782 288.569 118.071 289.092L117.049 289.75C116.806 289.386 116.508 289.12 116.153 288.952C115.808 288.775 115.434 288.686 115.033 288.686C114.548 288.686 114.114 288.793 113.731 289.008C113.348 289.223 113.045 289.526 112.821 289.918C112.597 290.301 112.485 290.758 112.485 291.29C112.485 291.822 112.597 292.284 112.821 292.676C113.045 293.068 113.348 293.371 113.731 293.586C114.114 293.801 114.548 293.908 115.033 293.908C115.434 293.908 115.808 293.824 116.153 293.656C116.508 293.479 116.806 293.208 117.049 292.844L118.071 293.488C117.782 294.001 117.371 294.398 116.839 294.678C116.316 294.949 115.719 295.084 115.047 295.084Z" fill="#2F2F2F"/>
<path d="M47.0799 244V234.76L47.6819 235.418H44.8679V234.2H48.4659V244H47.0799ZM52.6395 241.634L52.5695 239.926L58.1275 234.2H59.7235L55.4255 238.736L54.6415 239.604L52.6395 241.634ZM51.4075 244V234.2H52.8075V244H51.4075ZM58.3515 244L54.3335 239.324L55.2715 238.288L59.9895 244H58.3515Z" fill="#2F2F2F"/>
<path d="M42.4164 197V196.048L46.4064 192.198C46.7611 191.862 47.0224 191.568 47.1904 191.316C47.3678 191.055 47.4844 190.817 47.5404 190.602C47.6058 190.378 47.6384 190.163 47.6384 189.958C47.6384 189.454 47.4611 189.057 47.1064 188.768C46.7518 188.479 46.2338 188.334 45.5524 188.334C45.0298 188.334 44.5584 188.423 44.1384 188.6C43.7184 188.768 43.3544 189.034 43.0464 189.398L42.0944 188.572C42.4678 188.096 42.9671 187.732 43.5924 187.48C44.2271 187.219 44.9224 187.088 45.6784 187.088C46.3598 187.088 46.9524 187.2 47.4564 187.424C47.9604 187.639 48.3478 187.951 48.6184 188.362C48.8984 188.773 49.0384 189.258 49.0384 189.818C49.0384 190.135 48.9964 190.448 48.9124 190.756C48.8284 191.064 48.6698 191.391 48.4364 191.736C48.2031 192.081 47.8671 192.469 47.4284 192.898L43.8724 196.328L43.5364 195.782H49.4584V197H42.4164ZM52.6395 194.634L52.5695 192.926L58.1275 187.2H59.7235L55.4255 191.736L54.6415 192.604L52.6395 194.634ZM51.4075 197V187.2H52.8075V197H51.4075ZM58.3515 197L54.3335 192.324L55.2715 191.288L59.9895 197H58.3515Z" fill="#2F2F2F"/>
<path d="M45.5938 150.112C44.9031 150.112 44.2311 150.005 43.5778 149.79C42.9338 149.575 42.4064 149.286 41.9958 148.922L42.6398 147.816C42.9664 148.124 43.3911 148.376 43.9138 148.572C44.4364 148.768 44.9964 148.866 45.5938 148.866C46.3218 148.866 46.8864 148.712 47.2878 148.404C47.6984 148.087 47.9038 147.662 47.9038 147.13C47.9038 146.617 47.7078 146.206 47.3158 145.898C46.9331 145.581 46.3218 145.422 45.4818 145.422H44.6978V144.442L47.6098 140.858L47.8058 141.418H42.4438V140.2H48.9118V141.152L46.0138 144.722L45.2858 144.288H45.7478C46.9331 144.288 47.8198 144.554 48.4078 145.086C49.0051 145.618 49.3038 146.295 49.3038 147.116C49.3038 147.667 49.1684 148.171 48.8978 148.628C48.6271 149.085 48.2164 149.449 47.6658 149.72C47.1244 149.981 46.4338 150.112 45.5938 150.112ZM52.6395 147.634L52.5695 145.926L58.1275 140.2H59.7235L55.4255 144.736L54.6415 145.604L52.6395 147.634ZM51.4075 150V140.2H52.8075V150H51.4075ZM58.3515 150L54.3335 145.324L55.2715 144.288L59.9895 150H58.3515Z" fill="#2F2F2F"/>
<path d="M41.1043 100.592V99.612L46.1163 93.2H47.6283L42.6583 99.612L41.9443 99.388H49.7703V100.592H41.1043ZM46.5503 103V100.592L46.5923 99.388V97.26H47.9083V103H46.5503ZM52.6395 100.634L52.5695 98.926L58.1275 93.2H59.7235L55.4255 97.736L54.6415 98.604L52.6395 100.634ZM51.4075 103V93.2H52.8075V103H51.4075ZM58.3515 103L54.3335 98.324L55.2715 97.288L59.9895 103H58.3515Z" fill="#2F2F2F"/>
<line x1="65" y1="269.5" x2="504" y2="269.5" stroke="#BDBDBD"/>
<line x1="65" y1="238.5" x2="504" y2="238.5" stroke="#EEEEEE"/>
<line x1="65" y1="191.5" x2="504" y2="191.5" stroke="#EEEEEE"/>
<line x1="65" y1="144.5" x2="504" y2="144.5" stroke="#EEEEEE"/>
<line x1="65" y1="99.5" x2="504" y2="99.5" stroke="#EEEEEE"/>
<line x1="65.5" y1="270" x2="65.5" y2="82" stroke="#BDBDBD"/>
<path d="M96 241.5L175 210L198 162L275 213.5L355.5 197L465.5 111" stroke="#1E63B9" stroke-width="2"/>
<path d="M95.5 220L175 174L197 128.5L273.5 193.5L354.5 176L467 99" stroke="#D7076B" stroke-width="2"/>
<circle cx="96" cy="242" r="6" fill="#1E63B9"/>
<circle cx="96" cy="221" r="6" fill="#D7076B"/>
<circle cx="185" cy="226" r="6" fill="#D7076B"/>
<circle cx="173" cy="209" r="6" fill="#1E63B9"/>
<circle cx="173" cy="174" r="6" fill="#D7076B"/>
<circle cx="196" cy="163" r="6" fill="#1E63B9"/>
<circle cx="196" cy="130" r="6" fill="#D7076B"/>
<circle cx="274" cy="212" r="6" fill="#1E63B9"/>
<circle cx="274" cy="194" r="6" fill="#D7076B"/>
<circle cx="355" cy="197" r="6" fill="#1E63B9"/>
<circle cx="355" cy="176" r="6" fill="#D7076B"/>
<circle cx="466" cy="100" r="6" fill="#D7076B"/>
<circle cx="466" cy="112" r="6" fill="#1E63B9"/>
<defs>
<filter id="filter0_d_709_1969" x="0" y="0" width="543" height="352" filterUnits="userSpaceOnUse" color-interpolation-filters="sRGB">
<feFlood flood-opacity="0" result="BackgroundImageFix"/>
<feColorMatrix in="SourceAlpha" type="matrix" values="0 0 0 0 0 0 0 0 0 0 0 0 0 0 0 0 0 0 127 0" result="hardAlpha"/>
<feOffset dy="4"/>
<feGaussianBlur stdDeviation="5"/>
<feColorMatrix type="matrix" values="0 0 0 0 0 0 0 0 0 0 0 0 0 0 0 0 0 0 0.05 0"/>
<feBlend mode="normal" in2="BackgroundImageFix" result="effect1_dropShadow_709_1969"/>
<feBlend mode="normal" in="SourceGraphic" in2="effect1_dropShadow_709_1969" result="shape"/>
</filter>
</defs>
</svg>
